<?xml version="1.0" encoding="utf-8"?>
<!-- Generator: Adobe Illustrator 24.2.1, SVG Export Plug-In . SVG Version: 6.00 Build 0)  -->
<svg version="1.1" id="Calque_1" xmlns="http://www.w3.org/2000/svg" xmlns:xlink="http://www.w3.org/1999/xlink" x="0px" y="0px"
	 viewBox="0 0 595.3 391" style="enable-background:new 0 0 595.3 391;" xml:space="preserve">
<style type="text/css">
	.st0{fill:#E0E0E0;}
	.st1{fill:#D1D1D1;fill-opacity:0.5633;}
	.st2{opacity:0.123;enable-background:new    ;}
	.st3{fill:#FF725E;}
	.st4{opacity:0.304;}
	.st5{fill-rule:evenodd;clip-rule:evenodd;stroke:#C7C7C7;stroke-width:3.7621;}
	.st6{fill:#C7C7C7;}
	.st7{fill:none;stroke:#C7C7C7;stroke-width:3.0097;stroke-miterlimit:3.2;}
</style>
<rect x="173.7" y="72.9" transform="matrix(0.9659 -0.2588 0.2588 0.9659 -44.5495 73.2392)" class="st0" width="164.3" height="265.9"/>
<g transform="matrix(.96593 -.25882 .25882 .96593 -16.21 -62.402)">
	
		<rect x="131.4" y="266.2" transform="matrix(-1 2.536454e-06 -2.536454e-06 -1 392.5291 536.5882)" class="st1" width="129.8" height="4.2"/>
	
		<rect x="131.4" y="254.6" transform="matrix(-1 2.536454e-06 -2.536454e-06 -1 392.5291 513.3882)" class="st1" width="129.8" height="4.2"/>
	
		<rect x="131.4" y="277.8" transform="matrix(-1 2.536454e-06 -2.536454e-06 -1 392.5292 559.7722)" class="st1" width="129.8" height="4.2"/>
	
		<rect x="131.4" y="289.4" transform="matrix(-1 2.536454e-06 -2.536454e-06 -1 392.5292 582.9722)" class="st1" width="129.8" height="4.2"/>
	
		<rect x="131.4" y="319" transform="matrix(-1 2.536454e-06 -2.536454e-06 -1 392.5293 642.2361)" class="st1" width="129.8" height="4.2"/>
	
		<rect x="131.4" y="307.4" transform="matrix(-1 2.536454e-06 -2.536454e-06 -1 392.5292 619.0361)" class="st1" width="129.8" height="4.2"/>
	
		<rect x="131.4" y="330.6" transform="matrix(-1 2.536454e-06 -2.536454e-06 -1 392.5293 665.4202)" class="st1" width="129.8" height="4.2"/>
	
		<rect x="131.4" y="342.2" transform="matrix(-1 2.536454e-06 -2.536454e-06 -1 392.5293 688.6201)" class="st1" width="129.8" height="4.2"/>
	
		<rect x="131.4" y="361.9" transform="matrix(-1 2.536454e-06 -2.536454e-06 -1 322.0974 726.0397)" class="st1" width="59.4" height="2.3"/>
	
		<rect x="131.4" y="369.1" transform="matrix(-1 2.536454e-06 -2.536454e-06 -1 322.0974 740.3918)" class="st1" width="59.4" height="2.3"/>
	
		<rect x="131.4" y="376.2" transform="matrix(-1 2.536454e-06 -2.536454e-06 -1 322.0974 754.7438)" class="st1" width="59.4" height="2.3"/>
	
		<rect x="131.4" y="383.4" transform="matrix(-1 2.536454e-06 -2.536454e-06 -1 322.0974 769.0958)" class="st1" width="59.4" height="2.3"/>
	
		<rect x="131.4" y="390.6" transform="matrix(-1 2.536454e-06 -2.536454e-06 -1 322.0974 783.4478)" class="st1" width="59.4" height="2.3"/>
	
		<rect x="131.4" y="397.7" transform="matrix(-1 2.536454e-06 -2.536454e-06 -1 322.0975 797.7838)" class="st1" width="59.4" height="2.3"/>
	
		<rect x="131.4" y="404.9" transform="matrix(-1 2.536454e-06 -2.536454e-06 -1 322.0975 812.1357)" class="st1" width="59.4" height="2.3"/>
	
		<rect x="131.4" y="412.1" transform="matrix(-1 2.536454e-06 -2.536454e-06 -1 322.0975 826.4878)" class="st1" width="59.4" height="2.3"/>
	<g transform="translate(88.041)">
		
			<rect x="113.8" y="361.9" transform="matrix(-1 2.536454e-06 -2.536454e-06 -1 286.881 726.0398)" class="st1" width="59.4" height="2.3"/>
		
			<rect x="113.8" y="369.1" transform="matrix(-1 2.536454e-06 -2.536454e-06 -1 286.881 740.3918)" class="st1" width="59.4" height="2.3"/>
		
			<rect x="113.8" y="376.2" transform="matrix(-1 2.536454e-06 -2.536454e-06 -1 286.881 754.7438)" class="st1" width="59.4" height="2.3"/>
		
			<rect x="113.8" y="383.4" transform="matrix(-1 2.536454e-06 -2.536454e-06 -1 286.881 769.0959)" class="st1" width="59.4" height="2.3"/>
		
			<rect x="113.8" y="390.6" transform="matrix(-1 2.536454e-06 -2.536454e-06 -1 286.881 783.4478)" class="st1" width="59.4" height="2.3"/>
		
			<rect x="113.8" y="397.7" transform="matrix(-1 2.536454e-06 -2.536454e-06 -1 286.8811 797.7839)" class="st1" width="59.4" height="2.3"/>
		
			<rect x="113.8" y="404.9" transform="matrix(-1 2.536454e-06 -2.536454e-06 -1 286.8811 812.1358)" class="st1" width="59.4" height="2.3"/>
		
			<rect x="113.8" y="412.1" transform="matrix(-1 2.536454e-06 -2.536454e-06 -1 286.8811 826.4879)" class="st1" width="59.4" height="2.3"/>
	</g>
	
		<rect x="131.4" y="223.2" transform="matrix(-1 2.536454e-06 -2.536454e-06 -1 306.7715 455.8054)" class="st1" width="44" height="9.5"/>
</g>
<rect x="242.9" y="77.4" class="st2" width="164.3" height="265.9"/>
<rect x="247.7" y="77.4" class="st0" width="164.3" height="265.9"/>
<rect x="350.7" y="97.1" class="st1" width="44" height="44"/>
<rect x="265" y="97.1" class="st1" width="44" height="9.5"/>
<rect x="265" y="210" class="st1" width="44" height="9.5"/>
<rect x="265" y="111.1" class="st1" width="22.6" height="5.3"/>
<rect x="265" y="142" class="st1" width="69.8" height="4.2"/>
<rect x="265" y="130.4" class="st1" width="69.8" height="4.2"/>
<g transform="translate(4.3215 -21.04)">
	<rect x="260.7" y="253.6" class="st1" width="59.4" height="2.3"/>
	<rect x="260.7" y="260.3" class="st1" width="59.4" height="2.3"/>
	<rect x="260.7" y="267" class="st1" width="59.4" height="2.3"/>
	<rect x="260.7" y="273.7" class="st1" width="59.4" height="2.3"/>
</g>
<g transform="translate(7.9899 -25.232)">
	<rect x="327.4" y="257.7" class="st1" width="59.4" height="2.3"/>
	<rect x="327.4" y="264.5" class="st1" width="59.4" height="2.3"/>
	<rect x="327.4" y="271.2" class="st1" width="59.4" height="2.3"/>
	<rect x="327.4" y="277.9" class="st1" width="59.4" height="2.3"/>
</g>
<g transform="translate(4.3215 23.922)">
	<rect x="260.7" y="244.6" class="st1" width="59.4" height="2.3"/>
	<rect x="260.7" y="251.3" class="st1" width="59.4" height="2.3"/>
	<rect x="260.7" y="258" class="st1" width="59.4" height="2.3"/>
	<rect x="260.7" y="264.7" class="st1" width="59.4" height="2.3"/>
</g>
<g transform="translate(7.9899 19.729)">
	<rect x="327.4" y="248.8" class="st1" width="59.4" height="2.3"/>
	<rect x="327.4" y="255.5" class="st1" width="59.4" height="2.3"/>
	<rect x="327.4" y="262.2" class="st1" width="59.4" height="2.3"/>
	<rect x="327.4" y="268.9" class="st1" width="59.4" height="2.3"/>
</g>
<rect x="265" y="304.4" class="st1" width="59.4" height="2.3"/>
<rect x="265" y="311.2" class="st1" width="59.4" height="2.3"/>
<rect x="363.2" y="312.8" class="st1" width="31.6" height="0.7"/>
<rect x="325" y="331.3" class="st1" width="9.7" height="2.1"/>
<rect x="265" y="165.2" class="st1" width="129.8" height="4.2"/>
<rect x="265" y="153.6" class="st1" width="129.8" height="4.2"/>
<rect x="265" y="176.8" class="st1" width="129.8" height="4.2"/>
<rect x="265" y="188.4" class="st1" width="129.8" height="4.2"/>
<path class="st3" d="M367,311.3c0.2-0.1,0.3-0.1-0.4,0.2c0,0,0.1,0,0.1-0.1c0.2-0.1,0.3-0.2,0.4-0.3c0.2-0.2,0.5-0.4,0.7-0.6
	c0.2-0.2,0.4-0.3,0.6-0.5c0.3-0.2,0.6-0.4,1-0.6c0.4-0.3,0.9-0.5,1.4-0.6c0.1,0,0.3,0,0.5,0c0.1,0,0.2,0,0.3,0c0.1,0,0.1,0,0.2,0.1
	c0.2,0.1,0.4,0.3,0.6,0.5c0.2,0.2,0.4,0.3,0.6,0.5c0.2,0.2,0.3,0.3,0.5,0.4c0.2,0.2,0.4,0.3,0.6,0.5c0.1,0.1,0.3,0.2,0.5,0.2
	c0.1,0,0.3,0,0.4,0c0.2,0,0.4,0,0.6,0c0.2,0,0.4-0.1,0.6-0.2c0.1,0,0.3-0.2,0.2-0.1c-0.1,0.1-0.3,0.3-0.3,0.2c0-0.1,0.2-0.1,0.3-0.2
	c0.4-0.2,0.7-0.5,1-0.8c0.3-0.2,0.1-0.1,0.7-0.4c0,0,0.1,0,0.1,0c0.1,0,0.1,0.1,0.2,0.1c0.2,0.1,0.3,0.3,0.5,0.5
	c0.1,0.1,0.2,0.2,0.3,0.3c0.3,0.2,0.6,0.4,0.9,0.6c0.2,0.1,0.4,0.1,0.6,0.1c0.2,0,0.4,0,0.6,0c0.2,0,0.4-0.1,0.5-0.2
	c0.1,0,0.2-0.1,0.2-0.1c-0.1,0.1-0.2,0.1-0.4,0.2c0.3-0.2,0.6-0.4,0.9-0.7c0.2-0.2,0.2-0.2,0.4-0.4c0.3-0.3,0.5-0.7,0.8-1
	c0.1-0.2,0.2-0.3,0.3-0.6c0.2-0.5,0.3-1,0.3-1.5c0-0.5,0-0.9-0.2-1.3c-0.1-0.2-0.2-0.4-0.3-0.5c-0.1,0-0.2-0.1-0.3-0.1
	c0,0-0.1,0-0.1,0c0.2-0.1,0.3-0.2,0.5-0.2c0.1,0-0.1,0.1-0.1,0.1c-0.1,0.1-0.2,0.3-0.2,0.5c0,0.1,0,0.2,0,0.2
	c-0.1,0.6,0,1.2,0.2,1.7c0,0.1,0.1,0.2,0.1,0.3c0.2,0.4,0.5,0.8,0.8,1.1c0.5,0.5,1,1.1,1.5,1.6c0.5,0.6,1.1,1.1,1.7,1.6
	c0.2,0.1,0.3,0.3,0.6,0.3c0.1,0,0.3,0,0.4,0c0,0.1,0.3-0.1,0.2,0c-0.8,0.5-0.5,0.3-0.4,0.2c0,0,0.1-0.1,0.1-0.1
	c0.2-0.1,0.4-0.3,0.6-0.5c0.4-0.2,0.6-0.4,0.9-0.4c0.1,0,0.2,0,0.3,0c0.1,0,0.2,0,0.4,0c0.2,0.1,0.3,0.2,0.5,0.3
	c0.1,0.1,0.3,0.2,0.4,0.3c0.1,0.1,0.1,0.1,0.2,0.1c0,0,0,0,0,0l-0.6,0.4c0,0,0,0,0,0c-0.1,0-0.2-0.1-0.2-0.1
	c-0.1-0.1-0.2-0.2-0.4-0.3c-0.1-0.1-0.3-0.2-0.5-0.3c-0.1,0-0.2,0-0.4,0c-0.1,0-0.2,0-0.3,0c-0.3,0-0.6,0.3,0.2-0.2
	c-0.2,0.1-0.4,0.3-0.6,0.5c-0.3,0.3-0.7,0.6-1.1,0.6c-0.1,0-0.3,0-0.4,0c-0.2,0-0.4-0.2-0.6-0.3c-0.6-0.5-1.1-1.1-1.7-1.6
	c-0.5-0.5-1-1-1.5-1.6c-0.3-0.3-0.6-0.7-0.8-1.1c-0.1-0.2-0.2-0.3-0.2-0.6c-0.1-0.5-0.2-0.9-0.1-1.4c0-0.1,0-0.2,0-0.2
	c0-0.2,0.1-0.4,0.2-0.5c0,0,0.1-0.1,0.1-0.1c0.2-0.1,0.5-0.3,0.7-0.4c0,0,0.1,0,0.1,0c0.1,0,0.2,0,0.3,0.1c0.2,0.1,0.3,0.3,0.4,0.5
	c0,0.1,0.1,0.2,0.1,0.4c0.1,0.3,0.1,0.7,0.1,1c0,0.1,0,0.2,0,0.2c0,0.4-0.2,0.9-0.3,1.3c-0.1,0.2-0.2,0.4-0.3,0.6
	c-0.2,0.4-0.5,0.7-0.7,1c-0.2,0.2-0.2,0.2-0.4,0.4c-0.3,0.2-0.6,0.5-0.9,0.7c-0.3,0.2-0.5,0.3-0.8,0.5c-0.2,0.1-0.5,0.3-0.7,0.3
	c-0.2,0-0.4,0-0.6,0c-0.2,0-0.4-0.1-0.6-0.1c-0.3-0.2-0.6-0.4-0.9-0.6c-0.1-0.1-0.2-0.2-0.3-0.3c-0.2-0.2-0.3-0.3-0.5-0.5
	c-0.1,0-0.1-0.1-0.2-0.1c-0.1,0-0.1,0.1-0.1,0c0.7-0.4,0.6-0.4,0.4-0.2c-0.3,0.3-0.7,0.6-1,0.8c-0.5,0.3-0.4,0.3-1.1,0.7
	c-0.3,0.2-0.6,0.3-0.9,0.3c-0.2,0-0.4,0-0.6,0c-0.1,0-0.3,0-0.4,0c-0.2,0-0.3-0.1-0.5-0.2c-0.2-0.1-0.4-0.3-0.6-0.5
	c-0.2-0.1-0.3-0.3-0.5-0.4c-0.2-0.2-0.4-0.3-0.6-0.5c-0.2-0.2-0.4-0.4-0.6-0.5c-0.1,0-0.3-0.1-0.4,0c-0.1,0-0.3,0-0.4,0
	c-0.1,0-0.2,0.1-0.3,0.1c-0.2,0.1-0.7,0.3,0.1-0.1c-0.3,0.2-0.7,0.4-1,0.6c-0.2,0.2-0.4,0.3-0.6,0.5c-0.2,0.2-0.4,0.4-0.7,0.6
	c-0.4,0.3-0.9,0.6-1.3,0.8C366.5,311.7,367,311.3,367,311.3z"/>
<g transform="matrix(.99929 -.028733 .028605 1.0048 -20.79 -6.2856)" class="st4">
	<polygon points="254.2,370.2 248.5,364.6 280,333.2 285.6,338.8 	"/>
	<path d="M345,275.8l-2-2l22.2-22.2c0,0,1.8-0.9,2.4-0.4c0.6,0.6-0.4,2.4-0.4,2.4L345,275.8z"/>
	<path class="st5" d="M257.6,353.1c-2.1-34.1,39.7-28.4,47.7-57.8"/>
	<path d="M262,365.4l-4.3-4.3l-4.3-4.3l97.8-97.8l12.8-6.7l2,0.5l0.5,2l-6.7,12.8L262,365.4z"/>
</g>
<g transform="translate(-1.2228 -2.4456)">
	
		<rect x="234.8" y="336.7" transform="matrix(0.7071 -0.7071 0.7071 0.7071 -165.619 281.5704)" class="st6" width="44.5" height="8"/>
	<path class="st6" d="M335,264.8l-2-2l22.2-22.2c0,0,1.8-0.9,2.4-0.4c0.6,0.6-0.4,2.4-0.4,2.4L335,264.8z"/>
	<path class="st7" d="M247.7,342.1c-2.1-34.1,39.7-28.4,47.7-57.8"/>
	<path class="st3" d="M252,354.4l-4.3-4.3l-4.3-4.3l97.8-97.8l12.8-6.7l2,0.5l0.5,2l-6.7,12.8L252,354.4z"/>
</g>
</svg>
