<?xml version="1.0" encoding="utf-8"?>
<!-- Generator: Adobe Illustrator 24.2.1, SVG Export Plug-In . SVG Version: 6.00 Build 0)  -->
<svg version="1.1" id="Calque_1" xmlns="http://www.w3.org/2000/svg" xmlns:xlink="http://www.w3.org/1999/xlink" x="0px" y="0px"
	 viewBox="0 0 1901.2 1241.6" style="enable-background:new 0 0 1901.2 1241.6;" xml:space="preserve">
<style type="text/css">
	.st0{fill:#FFFFFF;}
	.st1{fill:#E0E0E0;}
	.st2{fill:#212122;}
	.st3{fill:#0E100F;}
	.st4{fill:#FE9F73;}
	.st5{fill:#FF725E;}
	.st6{fill:#F9B59D;}
	.st7{fill:#5E45DB;}
	.st8{fill:#F07162;}
	.st9{fill:#FBFDFC;}
	.st10{fill:#EAE7D8;}
	.st11{fill:#F0F6FF;}
</style>
<g id="Calque_2_1_">
	<g id="Layer_1">
		<polygon class="st0" points="611.2,0 611.2,1233.7 1530,1233.7 1530,203 1332.2,0 		"/>
		<polygon class="st1" points="1530,203.4 1333.3,0 1333.3,203.4 		"/>
		<path class="st1" d="M1435.7,374.1H838.3c-4.7,0-8.4-4.7-8.4-10.4l0,0c0-5.8,3.8-10.4,8.4-10.4h597.4c4.7,0,8.4,4.7,8.4,10.4l0,0
			C1444.1,369.4,1440.3,374.1,1435.7,374.1z"/>
		<path class="st1" d="M1435.7,465.2H838.3c-4.7,0-8.4-4.7-8.4-10.4l0,0c0-5.8,3.8-10.4,8.4-10.4h597.4c4.7,0,8.4,4.7,8.4,10.4l0,0
			C1444.1,460.5,1440.3,465.2,1435.7,465.2z"/>
		<path class="st1" d="M1435.7,556.3H838.3c-4.7,0-8.4-4.7-8.4-10.4l0,0c0-5.8,3.8-10.4,8.4-10.4h597.4c4.7,0,8.4,4.7,8.4,10.4l0,0
			C1444.1,551.6,1440.3,556.3,1435.7,556.3z"/>
		<path class="st1" d="M1435.7,738.5H838.3c-4.7,0-8.4-4.7-8.4-10.4l0,0c0-5.8,3.8-10.4,8.4-10.4h597.4c4.7,0,8.4,4.7,8.4,10.4l0,0
			C1444.1,733.8,1440.3,738.5,1435.7,738.5z"/>
		<path class="st1" d="M1435.7,829.6H838.3c-4.7,0-8.4-4.7-8.4-10.4l0,0c0-5.8,3.8-10.4,8.4-10.4h597.4c4.7,0,8.4,4.7,8.4,10.4l0,0
			C1444.1,824.9,1440.3,829.6,1435.7,829.6z"/>
		<path class="st1" d="M1435.7,647.4H838.3c-4.7,0-8.4-4.7-8.4-10.4l0,0c0-5.8,3.8-10.4,8.4-10.4h597.4c4.7,0,8.4,4.7,8.4,10.4l0,0
			C1444.1,642.7,1440.3,647.4,1435.7,647.4z"/>
		<path class="st1" d="M1435.7,918.9H838.3c-4.7,0-8.4-4.7-8.4-10.4l0,0c0-5.8,3.8-10.4,8.4-10.4h597.4c4.7,0,8.4,4.7,8.4,10.4l0,0
			C1444.1,914.3,1440.3,918.9,1435.7,918.9z"/>
		<path class="st1" d="M1435.7,1010H838.3c-4.7,0-8.4-4.7-8.4-10.4l0,0c0-5.8,3.8-10.4,8.4-10.4h597.4c4.7,0,8.4,4.7,8.4,10.4l0,0
			C1444.1,1005.4,1440.3,1010,1435.7,1010z"/>
		<path class="st1" d="M1435.7,1100.8H838.3c-4.7,0-8.4-4.7-8.4-10.4l0,0c0-5.8,3.8-10.4,8.4-10.4h597.4c4.7,0,8.4,4.7,8.4,10.4l0,0
			C1444.1,1096.2,1440.3,1100.8,1435.7,1100.8z"/>
		<path class="st1" d="M786.2,374.1h-85v-79.7h85V374.1z M709.5,365.8h68.4v-63h-68.4V365.8z"/>
		<path class="st1" d="M786.2,465.2h-85v-79.7h85V465.2z M709.5,456.9h68.4v-63h-68.4V456.9z"/>
		<path class="st1" d="M786.2,556.3h-85v-79.7h85V556.3z M709.5,548h68.4v-63h-68.4V548z"/>
		<path class="st1" d="M786.2,647.4h-85v-79.7h85V647.4z M709.5,639h68.4v-63h-68.4V639z"/>
		<path class="st1" d="M786.2,738.5h-85v-79.7h85V738.5z M709.5,730.2h68.4v-63h-68.4V730.2z"/>
		<path class="st1" d="M786.2,829.6h-85v-79.7h85V829.6z M709.5,821.3h68.4v-63h-68.4V821.3z"/>
		<path class="st1" d="M786.2,918.9h-85v-79.7h85V918.9z M709.5,910.6h68.4v-63h-68.4V910.6z"/>
		<path class="st1" d="M786.2,1010h-85v-79.6h85V1010z M709.5,1001.7h68.4v-63h-68.4V1001.7z"/>
		<path class="st1" d="M786.2,1100.8h-85v-79.7h85V1100.8z M709.5,1092.5h68.4v-63h-68.4V1092.5z"/>
		<path d="M742.1,358.4l-2.5-4.8c-6.5-12.3-19.7-35.9-19.8-36.1c-0.8-1.4-0.3-3.2,1.1-4s3.2-0.3,4,1.1c0,0,0,0,0,0
			c0.1,0.2,10.4,18.7,17.3,31.5c15-27.1,39.7-67.7,40-68.1c0.8-1.4,2.6-1.8,4-1s1.8,2.6,1,4c-0.3,0.5-28,46-42.4,72.6L742.1,358.4z"
			/>
		<path d="M742.1,445.5l-2.5-4.8c-6.5-12.3-19.7-35.9-19.8-36.1c-0.7-1.4-0.1-3.2,1.3-3.9c1.4-0.7,3-0.2,3.8,1.1
			c0.1,0.2,10.4,18.7,17.3,31.5c15-27.1,39.7-67.7,40-68.1c0.8-1.4,2.6-1.8,4-1s1.8,2.6,1,4c-0.3,0.5-28,46-42.4,72.6L742.1,445.5z"
			/>
		<path d="M742.1,538.1l-2.5-4.8c-6.5-12.3-19.7-35.9-19.8-36.1c-0.8-1.4-0.3-3.2,1.1-4c1.4-0.8,3.2-0.3,3.9,1.1
			c0.1,0.2,10.4,18.7,17.3,31.5c15-27.1,39.7-67.7,40-68.2c0.8-1.4,2.6-1.8,4-1s1.8,2.6,1,4l0,0c-0.3,0.5-28,46-42.4,72.6
			L742.1,538.1z"/>
		<path d="M742.1,630.5l-2.5-4.8c-6.5-12.3-19.7-35.9-19.8-36.1c-0.8-1.4-0.4-3.2,1-4c1.4-0.8,3.2-0.4,4,1c0,0.1,0.1,0.1,0.1,0.2
			c0.1,0.2,10.4,18.7,17.3,31.5c15-27.1,39.7-67.7,40-68.2c0.8-1.4,2.6-1.8,4-1s1.8,2.6,1,4c-0.3,0.5-28,46-42.4,72.6L742.1,630.5z"
			/>
		<path d="M742.1,722.4l-2.5-4.8c-6.5-12.3-19.7-35.9-19.8-36.1c-0.8-1.4-0.3-3.2,1.1-4c1.4-0.8,3.2-0.3,4,1.1
			c0.1,0.2,10.4,18.7,17.3,31.5c15-27.1,39.7-67.7,40-68.2c0.8-1.4,2.6-1.8,4-1s1.8,2.6,1,4l0,0c-0.3,0.5-28,46-42.4,72.6
			L742.1,722.4z"/>
		<path class="st2" d="M864.2,80.9h20.2c8.8,0,15.6,1.8,20.3,5.4c4.7,3.6,7.1,8.7,7.1,15.4c0,5.1-1.3,9.4-4,12.7
			c-2.6,3.4-6.6,5.9-11.9,7.6c1.5,0.8,2.9,1.8,4.1,3c1.3,1.2,2.4,2.5,3.3,3.9l22.9,35.1h-7.6l-13.3-20.5c-2.6-4-4.9-7.3-6.8-9.9
			c-1.4-2-2.9-3.8-4.5-5.6c-1.6-1.6-3.6-2.6-5.8-3.1c-3.5-0.7-7.1-1-10.7-0.9h-6.8v40h-6.7L864.2,80.9z M870.9,86.5v32h5.1
			c4.4,0.1,8.8-0.1,13.2-0.5c2.1-0.2,4.2-0.8,6.2-1.6c2.8-1.1,5.2-3.1,6.9-5.7c1.6-2.7,2.4-5.8,2.3-9c0-4.8-1.7-8.6-5.2-11.3
			s-8.3-4-14.6-4L870.9,86.5z"/>
		<path class="st2" d="M932.5,164.2V80.9h45.1v5.4h-38.5v33h37.2v5.4h-37.2v33.9h39.4v5.6L932.5,164.2z"/>
		<path class="st2" d="M1031.8,92.8c-3.1-2.1-6.4-3.9-9.8-5.2c-3-1.1-6.1-1.7-9.3-1.7c-4.5-0.2-9,1.4-12.4,4.4
			c-3.2,2.8-4.9,6.9-4.8,11.2c-0.1,3.3,1,6.5,3.1,8.9c2.1,2.3,6.5,4.9,13.3,7.8l1.8,0.7c7.7,3.1,12.8,6.1,15.4,9
			c1.8,1.9,3.2,4.2,4.1,6.7c0.9,2.6,1.4,5.3,1.4,8c0.2,6.2-2.3,12.2-6.9,16.3c-4.6,4.3-10.5,6.4-17.7,6.4c-3.7,0-7.3-0.6-10.7-1.9
			c-3.8-1.4-7.4-3.2-10.7-5.5v-8.1c3.4,2.7,7.2,5,11.2,6.8c3.2,1.4,6.7,2.2,10.2,2.2c5.4,0,9.7-1.5,12.9-4.5c3.2-3,4.8-7,4.8-12.1
			c0.1-3.4-1-6.7-3.2-9.3c-2.2-2.4-7.1-5.2-14.8-8.4c-8-3.3-13.5-6.7-16.4-10c-2.9-3.3-4.4-7.6-4.4-12.8c-0.2-6,2.3-11.8,6.7-15.8
			c4.5-4.1,10.3-6.2,17.5-6.2c3.2,0,6.4,0.4,9.5,1.3c3.3,1,6.4,2.4,9.3,4.1V92.8z"/>
		<path class="st2" d="M1054.5,129.7c0,8.9,2.5,16,7.5,21.3s11.7,7.9,20.1,7.9s15.1-2.6,20.1-7.9s7.5-12.3,7.5-21.3V80.9h7v48.4
			c0,11.2-3.1,20.1-9.3,26.6c-6.2,6.6-14.6,9.9-25.2,9.9c-10.5,0-18.9-3.3-25.1-9.8s-9.3-15.4-9.3-26.7V80.9h6.8L1054.5,129.7z"/>
		<path class="st2" d="M1135.3,164.2V80.9h7l31.1,38.4l30.9-38.4h7.1v83.3h-6.8V90.7l-31.2,38.7L1142,90.7v73.5H1135.3z"/>
		<path class="st2" d="M1230.9,164.2V80.9h45.1v5.4h-38.5v33h37.2v5.4h-37.2v33.9h39.4v5.6L1230.9,164.2z"/>
		<path class="st1" d="M4,1232.6h1893.1c2.2,0,4,1.8,4,4v1c0,2.2-1.8,4-4,4H4c-2.2,0-4-1.8-4-4v-1C0,1234.4,1.8,1232.6,4,1232.6z"/>
		<polygon class="st3" points="1819.9,1233.7 1827.7,1233.7 1810.6,953.5 1791.3,953.5 		"/>
		<polygon class="st3" points="1547.4,1233.7 1539.6,1233.7 1556.8,953.5 1576.1,953.5 		"/>
		<polygon class="st1" points="1882.5,561.7 1714.5,561.7 1625.6,957.4 1818.1,936.8 		"/>
		<path class="st1" d="M1496.9,911.5c0,0,221.6,5.6,287.5,5.6c10.7-0.1,19.8-7.9,21.7-18.5l58.6-324.3c1.4-8.4,9.3-14,17.7-12.6
			c0.2,0,0.5,0.1,0.7,0.1c8.1,1.8,13.2,10.2,11.7,18.5l-66.4,367.4c-0.5,2.7-1.7,5.3-3.5,7.4c-4.3,8.3-12.9,13.6-22.3,13.6h-304.9
			c-14,0-25.3-11.6-25.3-25.9l0,0C1472.4,928.6,1482.9,911.5,1496.9,911.5z"/>
		<path class="st3" d="M1784.3,918.3c11.3-0.1,21-8.3,22.9-19.5l58.6-324.4c0.7-3.8,2.9-7.2,6.1-9.4c3.2-2.2,7.1-2.9,10.9-2
			c0.7,0.1,1.3-0.3,1.5-1c0,0,0,0,0,0c0.1-0.7-0.3-1.3-0.9-1.5c-4.4-1-9-0.1-12.8,2.4c-3.8,2.6-6.4,6.6-7.2,11.1l-58.6,324.3
			c-1.7,10-10.3,17.3-20.5,17.4c-0.7,0-1.3,0.6-1.3,1.3S1783.7,918.3,1784.3,918.3L1784.3,918.3L1784.3,918.3z"/>
		<path class="st3" d="M1674.6,970.3L1674.6,970.3l119.6-0.2c32.2,3,36-25.2,36.2-26.8l7.1-39.4c0.1-0.7-0.3-1.3-1-1.5
			c-0.7-0.1-1.3,0.3-1.4,1c0,0,0,0,0,0L1828,943c-0.1,1.1-3.1,27.4-33.6,24.6h-0.1l-119.7,0.2c-0.7,0.1-1.2,0.7-1.2,1.4
			C1673.5,969.8,1674,970.3,1674.6,970.3L1674.6,970.3z"/>
		<path class="st3" d="M1817.8,562.9L1817.8,562.9l58.8-0.1c0.7-0.1,1.2-0.7,1.2-1.4c-0.1-0.6-0.5-1.1-1.2-1.2l0,0l-58.8,0.1
			c-0.7,0-1.3,0.6-1.3,1.3S1817.1,562.9,1817.8,562.9L1817.8,562.9z"/>
		<path class="st4" d="M1747.4,691l-19.2,8.3l-21.4,10.1c0,0-33.2,5.8-33.7,5.7c-0.1,0,2.8,4.9,2.8,4.9
			c-41.2,5.1-171.1,10.4-192.4,12.8c-12.8,1.4-25.2,17.4-33,29.9l10.6,7.2c0,0,113.4-5,113.2-2.6c-0.1,0.8-3.3,12-8.2,26.7
			c70,4.7,168.1,4.2,186.3-24.6C1767.3,745.7,1752.7,711.7,1747.4,691z"/>
		<polygon class="st4" points="1309.9,1197 1396,1198.2 1397.3,1117.6 1311.4,1107 		"/>
		<path class="st2" d="M1574.8,912.8c0,0,74.2,1.2,126.2-0.6c16.7-0.6,31.5,0.6,40.3-1.3c36.2-8,45.1-121,4-190.2
			S1560.5,864,1560.5,864L1574.8,912.8z"/>
		<polygon class="st4" points="1440.6,1200.1 1526.7,1201.3 1528,1120.7 1442.1,1110.1 		"/>
		<path class="st3" d="M1494.9,761.6c0,0-182.2,11.6-187.5,32.7s-20.3,244.8-9.1,340.2c0,0,69.1,4.8,102.2-3.3l8-232.7l54.6-6.3
			l125-150.3L1494.9,761.6z"/>
		<path class="st2" d="M1582.5,758.2c0,0-140.5,39.7-145.8,60.7s-20.2,220.7-9,316.2c0,0,74.3,4.3,107.4-3.8l8.9-219.5l32.1,1.1
			l77.8-136.8L1582.5,758.2z"/>
		<path class="st3" d="M1490.5,1137.6c32.9,0,44.6-4.9,45.1-5.2l0.7-0.3l8.6-220.8l-13.6,6.4l1.1,2.3l9.8-4.6l-8.4,215
			c-3.6,1.2-20.6,6.2-60.8,4.3l-0.1,2.5C1479.4,1137.5,1485.2,1137.6,1490.5,1137.6z"/>
		<path class="st3" d="M1521.3,1090c3.5-13.5,4.5-145.5,4.6-151.1h-2.5c0,1.4-1,137.2-4.5,150.4L1521.3,1090z"/>
		<path class="st3" d="M1390.7,903.5c16.7-5.4,39.6-6.2,39.8-6.2l-0.1-2.5c-0.2,0-23.5,0.8-40.5,6.3L1390.7,903.5z"/>
		<path class="st3" d="M1353.2,1137.2c28.1,0,47.4-4.6,47.7-4.7l0.9-0.2l8.2-235.3l-10.4,8.4l1.6,2l6.1-4.9l-7.9,227.9
			c-16,3.2-32.3,4.6-48.6,4.4v2.5L1353.2,1137.2z"/>
		<path class="st3" d="M1388.6,1094.9c3.5-20.4,0.2-158.7,0-164.6l-2.5,0.1c0,1.4,3.5,143.9,0,164.1L1388.6,1094.9z"/>
		<path class="st3" d="M1630.6,915.2c32.4,0,71.2-1.1,114.8-4.4l-0.2-2.5c-130,9.8-217.2,0.1-218,0l-0.3,2.5
			C1527.5,910.8,1566.4,915.2,1630.6,915.2z"/>
		<path class="st5" d="M1586.1,687.3c-2.5,0-103.5,43.4-103.5,43.4l20.3,38.9l56.7-12.4L1586.1,687.3z"/>
		<path class="st5" d="M1732.4,506.4c0,0,42.9-1.5,63.4,10.1c30.6,17.3,19.7,116.5,19.7,116.5s-26-14.2-27.6-18.9
			S1732.4,506.4,1732.4,506.4z"/>
		<path class="st3" d="M1742.8,721.7h-0.2l-31.6,7.3c-0.6,0.2-1.3-0.2-1.4-0.8c-0.2-0.6,0.2-1.3,0.8-1.4c0,0,0.1,0,0.1,0l31.6-7.2
			c0.6-0.2,1.3,0.2,1.5,0.8C1743.8,720.9,1743.4,721.5,1742.8,721.7L1742.8,721.7z"/>
		<path class="st6" d="M1759.3,703l-19.2,8.3l-21.4,10.1c0,0-33.2,5.8-33.7,5.7c-0.1,0,2.8,5,2.8,5c-41.2,5.1-171.1,10.4-192.4,12.8
			c-12.9,1.4-25.2,17.4-33,29.9l10.6,7.1c0,0,113.4-5,113.2-2.6c-0.1,0.8-3.3,12-8.2,26.8c70,4.7,168.1,4.2,186.4-24.6
			C1779.2,757.7,1764.6,723.7,1759.3,703z"/>
		<path class="st5" d="M1774,514.1c-24.4-3.4-88.8-5.7-88.8-5.7s-8.5,2.2-5.8,1c-71.1,12.6-78.9,65.3-78.9,65.3L1565.7,727
			l-38.6,2.1c-12.5,23.7-3.3,87.5-3.3,87.5l187,21.1c0,0,40.4,6.7,74.6-37.2c22.6-29,30.3-118.1,30.3-183.2
			C1815.8,617.3,1811.9,519.3,1774,514.1z"/>
		<polygon class="st0" points="1250.1,632.1 1428.2,632.1 1490.3,790.2 1312.2,790.2 		"/>
		<polygon class="st1" points="1490.3,790.2 1481,790.2 1418.8,632.1 1428.2,632.1 		"/>
		<path class="st1" d="M1366.5,706.1c2.5,7.3,0.7,14.5-4,16s-10.5-3-13-10.3s-0.7-14.5,4-16S1364,698.8,1366.5,706.1z"/>
		<path class="st1" d="M1549.1,777.5h-66.5v12.8h66.5c3.5,0,6.4-2.9,6.4-6.4l0,0l0,0C1555.5,780.3,1552.6,777.5,1549.1,777.5z"/>
		<rect x="1490.3" y="781.8" class="st7" width="42" height="2"/>
		<path class="st3" d="M1711.1,729.6c-0.2,0.1-0.5,0.1-0.7,0c-0.6-0.1-1-0.8-0.9-1.4c0,0,0,0,0,0c0.2-0.8,19.7-83.9,28.1-136.2
			c0.1-0.6,0.7-1.1,1.3-1c0,0,0,0,0,0c0.6,0.1,1.1,0.7,1,1.3c0,0,0,0,0,0.1c-8.3,52.4-27.9,135.6-28.1,136.4
			C1711.8,729.1,1711.5,729.5,1711.1,729.6z"/>
		<path class="st3" d="M1590.1,728.3c-0.2,0.1-0.5,0.1-0.8,0c-0.6-0.2-1-0.8-0.8-1.5c0,0,0,0,0,0c0.3-0.9,29.3-93,35.3-124.8
			c0.1-0.6,0.7-1.1,1.4-0.9c0.6,0.1,1.1,0.7,0.9,1.4l0,0c-6.1,32-35.1,124.1-35.4,125C1590.7,727.8,1590.5,728.1,1590.1,728.3z"/>
		<path class="st3" d="M1708,553c-0.9,0.1-1.8,0.2-2.8,0.2c-0.6,0-1-0.4-1.1-0.9c0-0.6,0.4-1,0.9-1.1c40.7-2.9,48.2-32.6,48.3-32.9
			c0.1-0.5,0.6-0.9,1.1-0.8c0.5,0.1,0.9,0.6,0.8,1.1C1755.3,519,1747.8,548.9,1708,553z"/>
		<path class="st3" d="M1581.8,706.3c-0.5,0.2-1.1,0-1.4-0.5l-7.9-13.6l0.1-0.5l26.7-117.3c0.2-1,2.5-14.7,14.1-29.8
			c10.9-14.1,32.3-32.1,72.7-37.5c0.6-0.1,1.2,0.4,1.3,1c0.1,0.6-0.4,1.2-1,1.3c-39.5,5.3-60.4,22.7-71,36.5
			c-11.5,14.9-13.7,28.7-13.7,28.9v0.1l-26.7,116.9l7.5,12.8c0.3,0.6,0.1,1.3-0.4,1.6L1581.8,706.3z"/>
		<path class="st3" d="M1540,706.7c-0.6,0.2-1.3-0.1-1.5-0.7c-0.2-0.6,0.1-1.3,0.7-1.5l0,0l34.1-13.6c0.6-0.2,1.3,0.1,1.5,0.7
			c0.2,0.6,0,1.3-0.6,1.5c0,0,0,0,0,0L1540,706.7z"/>
		<path class="st5" d="M1527.1,729.1c0,0-12.3,29.1-3.3,87.5l45.1-24.2l-13.4-43.6L1527.1,729.1z"/>
		<path class="st3" d="M1751.9,730.7c-0.1,0.1-0.3,0.1-0.5,0.1c-1.7,0-168.8-5.1-223.5-0.6c-1.3,3.6-7.5,22.1-5.8,56.1
			c0,0.7-0.5,1.2-1.1,1.2s-1.2-0.5-1.2-1.1c-2-38.5,5.9-57,6.2-57.8l0.3-0.7l0.7-0.1c54-4.6,222.8,0.4,224.5,0.5
			c0.7,0,1.2,0.6,1.1,1.2C1752.6,730.1,1752.3,730.5,1751.9,730.7z"/>
		<path class="st4" d="M1675.5,419.8l-1.3,51.4c0,0-1.1,16.5,13.3,18.9l-3.3,22c-1.3,8.2,3.5,16.1,11.3,18.9c4.4,1.5,9,2.3,13.6,2.5
			c16.5,0.4,25.8-11.7,27.3-17.9s-1.8-35.9-1.8-35.9l0.9-14.5l-0.4-56.5L1675.5,419.8z"/>
		<path class="st8" d="M1721.3,477c0,0-1.7,27.6-36.3,29.4l2.4-16.2C1687.4,490.2,1709.7,495.2,1721.3,477z"/>
		<path class="st2" d="M1714.7,447.8c0.2,0,0.3-0.1,0.5-0.2c0.3-0.3,0.3-0.7,0-1c0,0,0,0,0,0c-0.1-0.1-9.3-10-18.2-3.3
			c-0.3,0.2-0.4,0.6-0.2,1s0.6,0.4,1,0.2c0,0,0.1,0,0.1-0.1c7.8-6,15.9,2.8,16.3,3.1C1714.3,447.7,1714.5,447.8,1714.7,447.8z"/>
		<path class="st2" d="M1738.6,441.2l-14.9,2.7l-2.8,2.7c0,0,1.9-24.9,4.9-29.7S1738.6,441.2,1738.6,441.2z"/>
		<path class="st2" d="M1686.4,442.9c0.2,0,0.4-0.1,0.5-0.2c0.3-0.3,0.3-0.7,0-1c0,0,0,0,0,0c-0.3-0.3-6.7-6-10.9-2.6
			c-0.3,0.2-0.4,0.7-0.1,1c0.2,0.3,0.7,0.4,1,0.1c0,0,0,0,0,0c3.3-2.7,9.1,2.5,9.1,2.5C1686.1,442.8,1686.2,442.9,1686.4,442.9z"/>
		<path d="M1700.7,450.2c0,1.1,0.9,2.1,2,2.1c1.1,0,2.1-0.9,2.1-2s-0.9-2.1-2-2.1c0,0,0,0,0,0
			C1701.6,448.2,1700.7,449.1,1700.7,450.2z"/>
		<path d="M1678.8,447.6c0,1.1,0.9,2.1,2,2.1c1.1,0,2.1-0.9,2.1-2s-0.9-2.1-2-2.1c0,0,0,0,0,0
			C1679.7,445.5,1678.8,446.4,1678.8,447.6z"/>
		<path class="st4" d="M1717.7,449.9c-0.2,6.8,5.2,12.5,12.1,12.7s12.5-5.2,12.7-12.1c0.2-6.8-5.2-12.5-12.1-12.7c0,0,0,0,0,0
			C1723.6,437.7,1717.9,443.1,1717.7,449.9z"/>
		<path class="st8" d="M1732.1,457.2c2.3,0,4.4-1.5,5-3.7c0.8-2.1,0-4.5-1.8-5.7c-2-1.3-4.6-1.3-6.5,0.1c0.5-1.3,1.4-2.4,2.6-3
			c1.7-0.7,3.7-0.8,5.5-0.2c0.2,0.1,0.4,0,0.4-0.2c0,0,0,0,0,0c0.1-0.2,0-0.4-0.2-0.4c-2-0.7-4.1-0.6-6,0.2
			c-1.7,0.9-2.9,2.6-3.3,4.4l-0.3,1.2l0.9-0.9c0.1-0.1,3.2-2.9,6.6-0.7c1.6,1.1,2.2,3.1,1.5,4.9c-0.5,1.9-2.3,3.3-4.3,3.3h-0.1
			c-0.2,0-0.4,0.1-0.4,0.3C1731.7,457,1731.9,457.1,1732.1,457.2C1732.1,457.2,1732.1,457.2,1732.1,457.2L1732.1,457.2z"/>
		<path class="st8" d="M1693,464c0.1,0,0.3-0.1,0.3-0.2c0.1-0.2,0-0.4-0.2-0.4c0,0,0,0,0,0l-6.8-2.5l2.6-16.2c0-0.2-0.1-0.4-0.3-0.4
			c0,0,0,0,0,0c-0.2,0-0.4,0.1-0.4,0.3l-2.7,16.8l7.4,2.6C1692.9,464,1693,464,1693,464z"/>
		<path class="st9" d="M1698.2,470.8c-0.2,0-13.6-0.7-13.6-0.7s1.5,5.6,6.5,5.9S1698.2,470.8,1698.2,470.8z"/>
		<path class="st2" d="M1738.6,441.2c0,0,4.8-24-2.3-33.2s-49.2-26-54.4-21.7s-0.3,10-0.3,10s-16.9-5.9-21.1,9.1
			s32.2,22.4,54.2,15.9C1724.6,425.1,1733,432.1,1738.6,441.2z"/>
		<path class="st3" d="M1743.4,834.2c-2.6,1-5.2,1.8-7.8,2.5c-14.5,3.8-24.6,2.3-25,2.2c-0.7-0.1-1.1-0.7-1-1.4c0,0,0,0,0,0
			c0.1-0.6,0.7-1.1,1.3-1c0,0,0,0,0,0c0.1,0,10.1,1.6,24.1-2.2c12.9-3.5,32-12.3,49.4-34.6c21.9-28,29.9-114.4,30.1-179.8
			c0-0.6,0.5-1.2,1.2-1.2c0,0,0,0,0,0c0.7,0,1.2,0.5,1.2,1.2v0c-0.2,65.8-8.3,152.8-30.6,181.3C1771.7,820,1756,829.5,1743.4,834.2z
			"/>
		<path class="st1" d="M1396.8,1215.1h-74.4l-30.2-32.9l-55.2,32.9h-11.9c-4.1-0.1-7.7,2.8-8.6,6.8c-0.9,4.6,2.1,9.1,6.7,10
			c0.5,0.1,1.1,0.2,1.7,0.2h173.1c1.3,0,2.3-1,2.3-2.3v0v-11.3C1400.2,1216.6,1398.7,1215.1,1396.8,1215.1z"/>
		<path class="st3" d="M1396.2,1215.1v-30.6c0,0-12.5-16.9-31.6-8.3c0,0-28.9,20.5-54.3-4.3l-63.2,28c0,0-17.3,5.8-22,15.1
			L1396.2,1215.1z"/>
		<rect x="1395.6" y="1184.6" width="1.3" height="30.4"/>
		<path d="M1338.7,1184.9c-1.3,0-2.6-0.1-3.9-0.2l0.2-1.3c10.3,0.9,20.7-1.8,29.3-7.7l0.7,1
			C1357.2,1182.1,1348,1184.9,1338.7,1184.9z"/>
		<rect x="1379.6" y="1205.4" transform="matrix(0.8296 -0.5583 0.5583 0.8296 -437.4993 978.4877)" width="9.7" height="1.3"/>
		<rect x="1373.8" y="1204.1" transform="matrix(0.8291 -0.559 0.559 0.8291 -437.9154 976.6004)" width="9.7" height="1.3"/>
		<path d="M1218.9,1230.5c-3.8-3.3-4.2-9-1-12.8c1.7-2,4.2-3.2,6.8-3.2H1396c2.7,0,4.9,2.2,4.9,4.9l0,0v8.4h-1.3v-8.4
			c0-2-1.6-3.6-3.6-3.6h-171.2c-4.3,0-7.8,3.5-7.8,7.8c0,2.3,1,4.5,2.8,6L1218.9,1230.5z"/>
		<path d="M1225.4,1215.4l-1.2-0.5c0.1-0.3,3.6-7.4,16.6-12.9c12.7-5.4,68.6-30.2,69.2-30.5l0.5,1.2c-0.6,0.3-56.5,25.1-69.2,30.5
			C1228.8,1208.4,1225.4,1215.3,1225.4,1215.4z"/>
		<path class="st1" d="M1529.1,1215.1h-74.4l-30.2-32.9l-55.2,32.9h-11.9c-4.1-0.1-7.7,2.8-8.6,6.8c-0.9,4.6,2.1,9.1,6.7,10
			c0.5,0.1,1.1,0.2,1.6,0.2h173.1c1.3,0,2.3-1,2.3-2.3v0v-11.3C1532.5,1216.6,1531,1215.1,1529.1,1215.1z"/>
		<path class="st2" d="M1528.5,1215.1v-30.6c0,0-12.5-16.9-31.6-8.3c0,0-28.9,20.5-54.3-4.3l-63.2,28c0,0-17.3,5.8-22,15.1
			L1528.5,1215.1z"/>
		<rect x="1527.8" y="1184.6" width="1.3" height="30.4"/>
		<path d="M1471,1184.9c-1.3,0-2.6-0.1-3.9-0.2l0.2-1.3c10.3,0.9,20.7-1.8,29.3-7.7l0.7,1C1489.5,1182.1,1480.4,1184.9,1471,1184.9z
			"/>
		<rect x="1511.9" y="1205.5" transform="matrix(0.8297 -0.5582 0.5582 0.8297 -414.9814 1052.0173)" width="9.7" height="1.3"/>
		<rect x="1506.1" y="1204.1" transform="matrix(0.8291 -0.559 0.559 0.8291 -415.3131 1050.55)" width="9.7" height="1.3"/>
		<path d="M1351.2,1230.5c-3.8-3.3-4.2-9-1-12.8c1.7-2,4.2-3.2,6.8-3.2h171.1c2.7,0,4.9,2.2,4.9,4.9v8.4h-1.3v-8.4
			c0-2-1.6-3.6-3.6-3.6h-171.1c-4.3,0-7.8,3.5-7.8,7.9c0,2.3,1,4.5,2.8,5.9L1351.2,1230.5z"/>
		<path d="M1357.7,1215.4l-1.2-0.5c0.1-0.3,3.6-7.4,16.6-12.9c12.7-5.4,68.6-30.2,69.2-30.5l0.5,1.2c-0.6,0.3-56.5,25.1-69.2,30.5
			C1361.1,1208.4,1357.7,1215.3,1357.7,1215.4z"/>
		<path d="M349.3,204.1c0,0-13.5,11.6,1.4,40.8l5.1-4.4l-5.8-16.1L349.3,204.1z"/>
		<path class="st4" d="M407.7,210.7l10.7,45.5c0,0,4.2,15.2-8.7,20.3l7.3,20c2.8,7.4-0.1,15.7-6.9,19.8c-3.8,2.3-7.9,3.9-12.1,4.9
			c-15.3,3.6-26.3-6-28.9-11.5s-5.3-33.9-5.3-33.9l-3.6-13.4l-10.6-52.9L407.7,210.7z"/>
		<path d="M376.1,242.1c-0.2,0-0.3,0-0.5-0.1c-0.3-0.2-0.4-0.6-0.2-0.9c0,0,0,0,0,0c0.1-0.1,6.7-11.2,16.2-6.6
			c0.3,0.2,0.5,0.6,0.3,0.9c-0.2,0.3-0.5,0.5-0.9,0.3c0,0,0,0,0,0c-8.5-4.1-14.3,5.6-14.6,6.1C376.5,242,376.3,242.1,376.1,242.1z"
			/>
		<path d="M401.5,232.1c-0.4,0.1-0.7-0.2-0.8-0.5c0-0.2,0-0.3,0.1-0.5c0.2-0.3,5.1-6.9,9.7-4.5c0.3,0.2,0.4,0.6,0.3,0.9c0,0,0,0,0,0
			c-0.2,0.3-0.5,0.4-0.9,0.3c0,0,0,0,0,0c-3.6-1.9-8,4.1-8,4.1C401.8,232,401.7,232.1,401.5,232.1z"/>
		<path d="M389.6,241.7c0.3,1.1-0.4,2.2-1.5,2.4c-1.1,0.3-2.2-0.4-2.4-1.5c-0.3-1.1,0.4-2.2,1.5-2.4c0,0,0,0,0.1,0
			C388.3,240,389.4,240.6,389.6,241.7z"/>
		<path d="M409.5,235c0.3,1.1-0.4,2.2-1.5,2.4c-1.1,0.3-2.2-0.4-2.4-1.5c-0.3-1.1,0.4-2.2,1.5-2.4c0,0,0,0,0.1,0
			C408.2,233.3,409.2,233.9,409.5,235z"/>
		<path class="st4" d="M367.5,247.6c1.4,6.3-2.5,12.7-8.9,14.1c-6.3,1.4-12.7-2.5-14.1-8.9c-1.4-6.3,2.5-12.6,8.8-14.1
			C359.7,237.2,366,241.2,367.5,247.6z"/>
		<path class="st8" d="M356.8,257.5c-2.1,0.4-4.3-0.6-5.3-2.6c-1.1-1.8-0.9-4.2,0.6-5.7c1.6-1.6,4-2.1,6.1-1.2
			c-0.7-1.1-1.8-1.9-3-2.3c-1.8-0.4-3.6-0.1-5.2,0.9c-0.2,0.1-0.4,0-0.5-0.1c-0.1-0.1-0.1-0.3,0.1-0.4c0,0,0,0,0,0
			c1.7-1,3.7-1.4,5.7-0.9c1.7,0.6,3.2,1.8,3.9,3.5l0.5,1.1l-1-0.6c-0.1-0.1-3.5-2.1-6.3,0.6c-1.2,1.3-1.4,3.4-0.5,4.9
			c0.9,1.7,2.8,2.6,4.6,2.2h0.1c0.2,0,0.3,0.1,0.4,0.2c0,0,0,0,0,0C357.1,257.3,357,257.5,356.8,257.5L356.8,257.5z"/>
		<path d="M418.9,248.4c0,0,11.4,29.9-8.7,35.7c-28.8,8.4-35.5-7.7-40.4-21l-6.9-28.2l-1-8.4l0,0c2.6,1.9,4.6,4.5,5.6,7.6
			c2.2,6.6,8,24.5,9.8,24.9C379.9,259.7,413.7,246.5,418.9,248.4z"/>
		<path class="st8" d="M399.4,253.1c-0.1,0-0.3,0-0.4-0.1c-0.1-0.2,0-0.4,0.1-0.4l5.9-3.6l-5.6-14.7c-0.1-0.2,0-0.4,0.2-0.4
			c0,0,0,0,0,0c0.2-0.1,0.4,0,0.4,0.2c0,0,0,0,0,0l5.8,15.2L399.4,253.1L399.4,253.1z"/>
		<path class="st9" d="M395.9,260.5c0.2-0.1,12.5-3.3,12.5-3.3s-0.4,5.5-4.9,6.7S395.9,260.5,395.9,260.5z"/>
		<path d="M362,227.2l-7-3.9l-2.6,15.7c0,0,7.7-0.5,9.6,7.1s0.6,20.6,17.9,34.6s-7.1-25.4-7.5-26.9S362,227.2,362,227.2z"/>
		<path d="M349.3,204.1c4.7-7.5,25.2-16,42.5-10.4l0,0c19.3,4.4,17.9,22.9,17.4,23.6l-0.3-0.1c0.2,0.4,0.4,0.8,0.5,1.1
			c-0.9-0.8-1.9-1.6-2.9-2.2l-8-3.6c-5.4-1.5-11.1-1.8-16.6-0.8c-6.7,1.1-12.3,2.8-16.7,5.4c-0.3,4.2,0.5,12.2,5.5,27.1
			c7.7,22.8-9.1-3.1-15.3-13c-0.3,2.4-0.3,4.9,0,7.3C355.5,238.4,339.8,219.1,349.3,204.1z"/>
		<path class="st4" d="M410.7,223.5c0,0-1.7-9.5-2.7-11.4s-23.1-3-34.1,1.3s14,11.6,14.3,11.5S410.7,223.5,410.7,223.5z"/>
		<polygon class="st4" points="367.6,217.4 354.2,209.7 368.1,222.3 		"/>
		<polygon class="st4" points="353.7,1216.6 296.8,1217.4 296,1163.7 352.7,1156.6 		"/>
		<polygon class="st4" points="482.6,1216.6 425.7,1217.4 424.9,1163.7 481.6,1156.6 		"/>
		<path class="st4" d="M484.2,734c-8.7,11.2-11,0.2-11,0.2c-5.3,5.5-8,4.5-9.3,2.7c-0.9-1.4-1.2-3.1-0.7-4.7
			c1.6-5,6.5-20.2,10.2-29.6c-0.9-6.4-11.6-3.7-17-0.5c-2.8,1.7-7.5,2.1-3.2-5.3c3.6-6,15.9-15.4,15.9-15.4l-5.7-35.8l50,2.3
			c0,0,1.9,41.1,2.3,47.3s-5.5,27.4-10.5,34c-9.2,12-10.1,4.8-10.1,4.8C484.3,745.8,484.2,734,484.2,734z"/>
		<path class="st8" d="M480.6,720.7c0-0.3-0.2-0.6-0.5-0.7c-0.4-0.1-0.8,0.1-0.9,0.4c0,0,0,0,0,0c-1.9,5.5-6.5,13.3-6.6,13.4
			c-0.2,0.4-0.1,0.8,0.3,1c0.4,0.2,0.8,0.1,1-0.3c0.2-0.3,4.8-8,6.7-13.7C480.6,720.9,480.6,720.8,480.6,720.7z"/>
		<path class="st8" d="M490.1,720.9c0-0.4-0.3-0.8-0.7-0.8c-0.4,0-0.7,0.2-0.8,0.6c-1,4.5-2.7,8.9-5.1,12.9c-0.2,0.3-0.1,0.8,0.2,1
			c0.3,0.2,0.8,0.1,1-0.2c0,0,0,0,0,0c2.4-4.2,4.2-8.7,5.2-13.4C490.1,721,490.1,720.9,490.1,720.9z"/>
		<path class="st8" d="M500.8,722.7c0-0.3-0.2-0.7-0.6-0.7c-0.4-0.1-0.8,0.1-0.9,0.5c0,0,0,0,0,0c-1.1,4-2.7,7.8-5,11.3
			c-0.2,0.4-0.1,0.8,0.3,1c0.3,0.2,0.7,0.1,0.9-0.2c2.3-3.6,4.1-7.6,5.1-11.8C500.8,722.8,500.8,722.8,500.8,722.7z"/>
		<path class="st0" d="M518.1,663.5l-0.9,17.4c0,0-9.1,6.1-25.8,5.6l4.2-23L518.1,663.5z"/>
		<path class="st1" d="M382,610.5c0,0,7.5,356.2,33.6,561.8c0,0,34.6,10.9,78.2-9.5l1.9-525.1l6.3-78.7L382,610.5z"/>
		<path class="st1" d="M290.6,614c0,0-15.2,351.2,1.8,558.1c0,0,32.4,20.4,76.7,2.7l53.7-504.6l22.8-135L290.6,614z"/>
		<path d="M336.3,1182.8c-15.3-0.2-30.4-3.4-44.5-9.6l-0.5-0.3l-0.1-0.6c-14.6-78.9-5.3-467.9-5.2-471.8c0-0.6,0.5-1.2,1.2-1.2l0,0
			c0.7,0,1.2,0.5,1.2,1.2c0,0,0,0,0,0c-0.1,3.9-9.4,390.7,5,470.7c4.9,2.2,41.5,17.8,75.2,2.5c0.6-0.3,1.3-0.1,1.6,0.5
			c0.3,0.6,0.1,1.3-0.5,1.6c0,0-0.1,0-0.1,0C359.1,1180.6,347.8,1182.9,336.3,1182.8z"/>
		<path d="M440.5,1176.3c-8.5,0-16.9-0.9-25.2-2.7c-0.6-0.2-1-0.8-0.8-1.5c0.2-0.6,0.7-0.9,1.3-0.9c39.8,8.7,72-6.6,76.8-9l1.8-494
			c0-0.7,1.2-2.1,1.2-2.7c0-17.1,0,1.5,0,1.5c0.7,0,1.2,0.5,1.2,1.2c0,0,0,0,0,0l-1.8,495.4l-0.6,0.3
			C494.1,1164.1,471.8,1176.3,440.5,1176.3z"/>
		<path class="st2" d="M479.4,308.6c0,0,28.4,11.6,33.2,34.1c4.7,22.5,17,294.1,8.5,320.8h-41.7V308.6z"/>
		<path class="st0" d="M275.9,465.2l-2.2,173.9c0,0,134.8,38.4,222-7.4c0,0-15.2-305.7-18-319.1c-3.2-15.9-90.2-17.2-126.5-13.3
			c0,0-56.2-1.4-86.3,15.2L275.9,465.2z"/>
		<path class="st2" d="M273.6,416.9v271.7c0,0,71.8,17,106.6,3.3c0,0-0.2-382.8-14.4-394.4c-1.8,0-37.5,0.7-63.1,3.9
			S273.6,416.9,273.6,416.9z"/>
		<path class="st2" d="M423.5,297.4c0,0,7.2,336.6,14.3,386.7c0,0,29,1.9,65.9-10.9c0,0-6.6-351.2-16.2-360.6
			S423.5,297.4,423.5,297.4z"/>
		<path d="M273.6,505.4c-0.7,0-1.2-0.5-1.2-1.2c0,0,0,0,0,0v-56.7c0-0.7,0.5-1.2,1.2-1.2c0.7,0,1.2,0.5,1.2,1.2v56.7
			C274.9,504.9,274.3,505.4,273.6,505.4C273.7,505.4,273.7,505.4,273.6,505.4z"/>
		<path d="M380.2,693L380.2,693c-0.7,0-1.2-0.5-1.2-1.2v0c0.6-243.7-6.2-328.4-6.2-329.2c0-0.7,0.4-1.2,1.1-1.3
			c0.7,0,1.2,0.4,1.3,1.1c0.1,0.8,6.9,85.6,6.3,329.4C381.4,692.5,380.9,693.1,380.2,693C380.2,693,380.2,693,380.2,693z"/>
		<path d="M503.7,674.3L503.7,674.3c-0.7,0-1.2-0.5-1.2-1.2c2.3-104.6-16.7-330.8-16.9-333.1c0-0.6,0.5-1.2,1.1-1.2c0,0,0,0,0,0
			c0.6-0.1,1.2,0.4,1.3,1c0,0,0,0,0,0c0.2,2.3,19.2,228.6,16.9,333.3C504.9,673.9,504.3,674.4,503.7,674.3z"/>
		<path d="M425,367.4c-0.7,0-1.2-0.5-1.2-1.2l-1.6-70l1.3,0.1c2.4,0.2,60,4.9,77,24.6c0.5,0.5,0.4,1.2,0,1.7c-0.5,0.5-1.2,0.4-1.7,0
			c0,0-0.1-0.1-0.1-0.1c-15-17.4-65.2-22.9-74-23.7l1.5,67.4C426.3,366.8,425.7,367.3,425,367.4C425.1,367.3,425.1,367.3,425,367.4
			L425,367.4z"/>
		<path class="st10" d="M181.9,548c7.3-37.2-8.7-60.6-20.7-73c-4.2,11.6-7,23.6-8.4,35.8c-1.7,16,7,37.2,20.2,59.4
			C177,564.7,180.1,557.5,181.9,548z"/>
		<path class="st3" d="M277.4,330.3c0.3,0,0.5-0.1,0.6-0.3c7.9-10.5,20.7-14.7,20.8-14.8c0.4-0.1,0.6-0.6,0.5-1
			c-0.1-0.4-0.6-0.6-1-0.5c-0.5,0.2-13.5,4.5-21.6,15.4c-0.3,0.4-0.2,0.9,0.2,1.1C277,330.3,277.2,330.4,277.4,330.3L277.4,330.3z"
			/>
		<path class="st3" d="M278.9,337.9c0.3,0,0.5-0.1,0.6-0.3c7.9-10.5,20.7-14.8,20.8-14.8c0.4-0.1,0.7-0.6,0.5-1s-0.6-0.7-1-0.5
			c-0.5,0.2-13.5,4.5-21.6,15.4c-0.3,0.4-0.2,0.9,0.2,1.1C278.5,337.8,278.7,337.9,278.9,337.9L278.9,337.9z"/>
		<path d="M312,1179.9c-0.7,0-1.2-0.5-1.2-1.2l-2.1-140.9c0-0.7,0.5-1.2,1.2-1.2l0,0c0.7,0,1.2,0.5,1.2,1.2l2.1,140.9
			C313.2,1179.4,312.7,1179.9,312,1179.9C312,1179.9,312,1179.9,312,1179.9z"/>
		<path d="M441.9,1176.3c-0.6,0-1.2-0.5-1.2-1.1l-7.9-137.3c0-0.7,0.5-1.2,1.1-1.3c0.7,0,1.2,0.5,1.3,1.1l7.9,137.2
			C443.2,1175.7,442.7,1176.2,441.9,1176.3C442,1176.3,442,1176.3,441.9,1176.3L441.9,1176.3z"/>
		<path class="st5" d="M18.3,1069l-5.9-4.8c-9.7-7.9-11.1-22.2-3.1-31.9c0,0,0,0,0,0l520.3-634.1c3.5-4.3,44.4,29.3,40.9,33.6
			L50.2,1065.8C42.2,1075.5,28,1076.9,18.3,1069C18.3,1069,18.3,1069,18.3,1069z"/>
		<path class="st11" d="M529.5,398.2l63-38l-22.2,71.5C559.7,444.8,518.8,411.2,529.5,398.2z"/>
		<path d="M574.8,370.9c2.5,6.4,8.1,8.9,11.5,9.8l6.4-20.6L574.8,370.9z"/>
		<path class="st4" d="M342.2,715.3c14,1.9,7.9-7.6,7.9-7.6c7.6,0.2,8.8-2.4,8.5-4.6c-0.3-1.6-1.3-3-2.8-3.8
			c-4.6-2.4-18.8-9.8-28-14c-3.9-5.2,5.7-10.8,11.8-12.3c3.1-0.8,6.8-3.8-1.4-6c-6.7-1.8-22.1,0.2-22.1,0.2L295,637.9l-34,36.7
			c0,0,27.5,30.7,31.6,35.3s23.2,15.7,31.4,16.8c15,2.1,10.6-3.7,10.6-3.7C350.4,723.8,342.2,715.3,342.2,715.3z"/>
		<path class="st8" d="M335.4,703.3c-0.3-0.3-0.3-0.8,0-1.1c0.2-0.2,0.6-0.3,0.8-0.1c5.2,2.6,14,4.9,14.1,4.9
			c0.4,0.1,0.7,0.5,0.6,0.9c-0.1,0.4-0.5,0.7-0.9,0.6c0,0-0.1,0-0.1,0c-0.4-0.1-9-2.4-14.4-5C335.5,703.4,335.4,703.4,335.4,703.3z"
			/>
		<path class="st8" d="M328.8,710.1c-0.3-0.3-0.3-0.8,0-1.1c0.2-0.2,0.6-0.3,0.9-0.1c3.9,2.5,8.2,4.4,12.7,5.7
			c0.4,0,0.7,0.4,0.6,0.8c0,0.4-0.4,0.7-0.8,0.6c-0.1,0-0.1,0-0.2-0.1C337.3,714.7,332.9,712.7,328.8,710.1L328.8,710.1z"/>
		<path class="st8" d="M322.4,718.9c-0.3-0.3-0.3-0.8,0-1.1c0.2-0.2,0.6-0.3,0.9-0.1c3.5,2.1,7.4,3.7,11.4,4.6
			c0.4,0,0.7,0.4,0.7,0.8s-0.4,0.7-0.8,0.7c-0.1,0-0.1,0-0.2,0c-4.2-0.9-8.2-2.6-11.9-4.8C322.5,719,322.4,718.9,322.4,718.9z"/>
		<path class="st2" d="M324.8,300.1c0,0-58.6-5.4-87.8,43.1c-26.7,44.3-77.7,106.4-84.1,167.6c-5.2,49.5,87.7,148.1,112,171.7
			l42.9-45.8c0,0-68.4-108.4-73.7-121.8c-4.8-12.2,95.1-144.1,95.1-144.1L324.8,300.1z"/>
		<path class="st0" d="M264.8,681.4l8.8,11.5c0,0,35.8-30.9,38.4-34.8c-0.6-0.6-10.3-14.9-10.3-14.9L264.8,681.4z"/>
		<path d="M264.8,683.7c-0.7,0-1.2-0.5-1.2-1.2c0-0.3,0.1-0.6,0.3-0.8c9.8-11.2,37.7-40.3,42.3-45.1
			c-23.9-36.7-73.3-120.9-73.4-123.3c0-0.7,0.5-1.2,1.2-1.2l0,0c0.6,0,1.1,0.4,1.2,1c1.4,3.7,47.8,83.6,73.5,123l0.5,0.8l-0.7,0.7
			c-0.3,0.3-32.3,33.6-42.9,45.7C265.5,683.6,265.2,683.7,264.8,683.7z"/>
		<path d="M210.7,523.6c-0.7,0-1.2-0.5-1.2-1.2s0.5-1.2,1.2-1.2c7.3,0,19.8-7.2,22.3-8.7c4-16.2,60.3-95.5,62.7-98.9
			c0.4-0.5,1.1-0.7,1.7-0.3s0.7,1.1,0.3,1.7l0,0c-0.6,0.8-59.7,84.1-62.4,98.5l-0.1,0.5l-0.5,0.3
			C234.1,514.7,219.5,523.6,210.7,523.6z"/>
		<path d="M181.9,431.2c-0.7,0-1.2-0.6-1.2-1.2c0-0.2,0.1-0.4,0.2-0.6l64.5-99.7c33-35.3,73.3-30.6,73.7-30.5c0.6,0.1,1.1,0.7,1,1.3
			c-0.1,0.6-0.7,1.1-1.3,1c-0.4,0-39.5-4.5-71.6,29.7l-64.3,99.5C182.7,431,182.3,431.2,181.9,431.2z"/>
		<path class="st2" d="M422.8,1222.2h50.8l20.6-22.4l37.7,22.4h8.1c2.8,0,5.3,1.9,5.9,4.6c0.6,3.1-1.4,6.2-4.5,6.8
			c-0.4,0.1-0.8,0.1-1.1,0.1H422c-0.9,0-1.6-0.7-1.6-1.6v-7.7C420.5,1223.2,421.5,1222.2,422.8,1222.2
			C422.8,1222.2,422.8,1222.2,422.8,1222.2z"/>
		<path class="st0" d="M423.2,1222.2v-20.9c0,0,8.5-11.5,21.6-5.6c0,0,19.7,14,37.1-2.9l43.1,19.1c0,0,11.8,4,15,10.3H423.2z"/>
		<rect x="422.8" y="1201.4" width="0.9" height="20.8"/>
		<path d="M462.5,1201.6c0.9,0,1.8,0,2.7-0.2l-0.1-0.8c-7.1,0.6-14.1-1.2-20-5.2l-0.5,0.7C449.8,1199.7,456.1,1201.6,462.5,1201.6z"
			/>
		<rect x="430.8" y="1212.7" transform="matrix(0.5583 -0.8296 0.8296 0.5583 -818.3948 894.8586)" width="0.9" height="6.7"/>
		<rect x="434.7" y="1211.9" transform="matrix(0.5592 -0.829 0.829 0.5592 -815.6138 896.4025)" width="0.9" height="6.6"/>
		<path d="M539.8,1222.4l0.8-0.4c-0.1-0.2-2.5-5.1-11.3-8.8c-8.7-3.7-46.8-20.6-47.2-20.8l-0.4,0.8c0.4,0.2,38.5,17.1,47.2,20.8
			C537.4,1217.6,539.8,1222.3,539.8,1222.4z"/>
		<path d="M544.2,1232.7c2.6-2.2,3-6.1,0.8-8.7c-1.2-1.4-3-2.3-4.8-2.3H423.4c-1.8,0-3.3,1.5-3.3,3.3v5.8h0.9v-5.8
			c0-1.4,1.1-2.5,2.5-2.5h116.8c3,0,5.3,2.4,5.3,5.4c0,1.6-0.7,3.1-1.9,4.1L544.2,1232.7z"/>
		<path class="st2" d="M293.3,1222.2h50.8l20.6-22.4l37.7,22.4h8.1c2.8,0,5.3,1.9,5.9,4.6c0.6,3.1-1.4,6.2-4.5,6.8
			c-0.4,0.1-0.7,0.1-1.1,0.1H292.6c-0.9,0-1.6-0.7-1.6-1.6c0,0,0,0,0,0v-7.7C291,1223.2,292,1222.2,293.3,1222.2
			C293.3,1222.2,293.3,1222.2,293.3,1222.2z"/>
		<path class="st0" d="M293.7,1222.2v-20.9c0,0,8.5-11.5,21.6-5.6c0,0,19.7,14,37.1-2.9l43.1,19.1c0,0,11.8,4,15,10.3L293.7,1222.2z
			"/>
		<rect x="293.3" y="1201.4" width="0.9" height="20.8"/>
		<path d="M333,1201.6c0.9,0,1.8,0,2.7-0.2l-0.1-0.8c-7.1,0.6-14.1-1.2-20-5.2l-0.5,0.7C320.4,1199.7,326.6,1201.6,333,1201.6z"/>
		<rect x="302.2" y="1214.8" transform="matrix(0.5593 -0.829 0.829 0.5593 -876.3613 787.7207)" width="0.9" height="6.7"/>
		<rect x="305.2" y="1211.8" transform="matrix(0.5592 -0.829 0.829 0.5592 -872.6918 789.0388)" width="0.9" height="6.6"/>
		<path d="M410.3,1222.4l0.8-0.4c-0.1-0.2-2.5-5.1-11.3-8.8c-8.7-3.7-46.8-20.6-47.2-20.8l-0.4,0.8c0.4,0.2,38.5,17.1,47.2,20.8
			C408,1217.6,410.3,1222.3,410.3,1222.4z"/>
		<path d="M414.7,1232.7c2.6-2.2,3-6.1,0.8-8.7c-1.2-1.4-3-2.3-4.8-2.3H293.9c-1.8,0-3.3,1.5-3.3,3.3v5.8h0.9v-5.8
			c0-1.4,1.1-2.5,2.5-2.5h116.8c3,0,5.3,2.4,5.3,5.4c0,1.6-0.7,3-1.9,4L414.7,1232.7z"/>
	</g>
</g>
</svg>
