<svg id="Calque_1" data-name="Calque 1" xmlns="http://www.w3.org/2000/svg" viewBox="0 0 174.33 330.41"><defs><style>.cls-1{fill:#1e2846;}.cls-2{fill:#ff725e;}.cls-3{fill:#48413c;}.cls-4{fill:#f1f1f1;}.cls-5{fill:#e5e5e5;}.cls-6{fill:#0d0c10;}.cls-7{fill:#e9ad5b;}.cls-8{fill:#9f632f;}.cls-9{fill:#cbcbcb;}.cls-10{fill:#ebba03;}.cls-11{fill:#a06330;}.cls-12{fill:#cacaca;}.cls-13{fill:#323232;}.cls-14{fill:#e0e0e0;}.cls-15{fill:#b1b1b1;}.cls-16{fill:#393236;}.cls-17{fill:#9f6431;}.cls-18{fill:#56b397;}.cls-19{fill:#181880;}.cls-20{fill:#bc884a;}.cls-21{fill:#f5edcf;}.cls-22{fill:#e3e7fa;}.cls-23{fill:#27469c;}.cls-24{fill:#ebbb05;}.cls-25{fill:#233994;}.cls-26{fill:#b2b2b2;}.cls-27{fill:#fdf5d8;}.cls-28{fill:#23262e;}.cls-29{fill:#24262e;}.cls-30{fill:#bb884b;}.cls-31{fill:#3b343b;}.cls-32{fill:#c9c9c9;}.cls-33{fill:#ebbb06;}.cls-34{fill:#9b9b9b;}.cls-35{fill:#3b343a;}.cls-36{fill:#e6e6e6;}.cls-37{fill:#3d373f;}.cls-38{fill:#f7eed6;}.cls-39{fill:#2a1f20;}.cls-40{fill:#231634;}.cls-41{fill:#55b396;}.cls-42{fill:#1b1033;}.cls-43{fill:#000107;}.cls-44{fill:#090a80;}.cls-45{fill:#b3b3b3;}.cls-46{fill:#2f6420;}.cls-47{fill:#cbcac9;}.cls-48{fill:#29611b;}.cls-49{fill:#1a4412;}.cls-50{fill:#e6a54a;}.cls-51{fill:#dde1df;}.cls-52{fill:#cdcccb;}.cls-53{fill:#fdf9e7;}.cls-54{fill:#362740;}.cls-55{fill:#474148;}.cls-56{fill:#e5cca7;}.cls-57{fill:#3d3842;}.cls-58{fill:#282d89;}.cls-59{fill:#f6c407;}.cls-60{fill:#5bb599;}.cls-61{fill:#23193b;}.cls-62{fill:#4d454b;}.cls-63{fill:#213e9c;}.cls-64{fill:#554e52;}.cls-65{fill:#f8f0d1;}.cls-66{fill:#171532;}.cls-67{fill:#a36a36;}.cls-68{fill:#4b4445;}.cls-69{fill:#f8f1d5;}.cls-70{fill:#fcf4d3;}.cls-71{fill:#f7f0d4;}.cls-72{fill:#f9f0cf;}.cls-73{fill:#f8f0d2;}.cls-74{fill:#f7efd3;}.cls-75{fill:#f8f1d6;}.cls-76{fill:#f8f1d4;}.cls-77{fill:#f8f1d2;}.cls-78{fill:#1c1a32;}.cls-79{fill:#fdf6dc;}.cls-80{fill:#f9f1d4;}.cls-81{fill:#f8efd0;}.cls-82{fill:#c6b880;}.cls-83{fill:#f8efce;}.cls-84{fill:#f8f0d3;}.cls-85{fill:#fdf5d6;}.cls-86{fill:#bbb;}.cls-87{fill:#fdf4d6;}.cls-88{fill:#fcf5d8;}.cls-89{fill:#f7212b;}.cls-90{fill:#f8211e;}.cls-91{fill:#41a954;}.cls-92{fill:#989898;}.cls-93{fill:#979797;}.cls-94{fill:#989797;}.cls-95{fill:#f4f4f4;}.cls-96{fill:#43aa55;}.cls-97{fill:#f7f6f7;}.cls-98{fill:#f5f5f4;}.cls-99{fill:#999;}.cls-100{fill:#f5f4f5;}.cls-101{fill:#f3f4f4;}.cls-102{fill:#3ea951;}.cls-103{fill:#42aa53;}.cls-104{fill:#3fa951;}.cls-105{fill:#f3f3f2;}.cls-106{fill:#3ca84e;}.cls-107{fill:#55a5bc;}.cls-108{fill:#42aa55;}.cls-109{fill:#42aa54;}.cls-110{fill:#edd0a4;}.cls-111{fill:#fdfdfd;}.cls-112{fill:#fca90d;}.cls-113{fill:#b2b2b1;}.cls-114{fill:#e4eae7;}.cls-115{fill:#ebbb03;}.cls-116{fill:#58b498;}.cls-117{fill:#aeaeae;}.cls-118{fill:#476cae;}.cls-119{fill:#63b89e;}.cls-120{fill:#f2eaec;}.cls-121{fill:#57b397;}.cls-122{fill:#b4b4b4;}.cls-123{fill:#9dcdbc;}.cls-124{fill:#dbe2df;}.cls-125{fill:#ede8ea;}.cls-126{fill:#f3eaec;}.cls-127{fill:#f4eaee;}.cls-128{fill:#f4eaed;}.cls-129{fill:#aaa;}.cls-130{fill:#f6f6f7;}.cls-131{fill:#b1aca8;}.cls-132{fill:#cccbc8;}.cls-133{fill:#edeceb;}.cls-134{fill:#e8a344;}.cls-135{fill:#faf7f3;}.cls-136{fill:#cfcac1;}.cls-137{fill:#fcfdfe;}.cls-138{fill:#e4eaf2;}.cls-139{fill:#f9eedd;}.cls-140{fill:#8e5122;}.cls-141{fill:#e5e2dc;}.cls-142{fill:#fcd27e;}.cls-143{fill:#261e1f;}.cls-144{fill:#99999a;}.cls-145{fill:#fefefe;}.cls-146{fill:#eee;}.cls-147{fill:#f8f8f7;}.cls-148{fill:#313130;}.cls-149{fill:#6d6363;}.cls-150{fill:#f7f7f6;}.cls-151{fill:#281d1e;}.cls-152{fill:#fcfcfb;}.cls-153{fill:#6e6363;}.cls-154{fill:#1f2d8d;}.cls-155{fill:#1b2287;}.cls-156{fill:#e4e9f5;}.cls-157{fill:#e5e3e2;}.cls-158{fill:#f1f1f0;}.cls-159{fill:#251e1f;}.cls-160{fill:#f9eb64;}.cls-161{fill:#979898;}.cls-162{fill:#9a9a9a;}.cls-163{fill:#f0f1ee;}.cls-164{fill:#efece6;}.cls-165{fill:#3a322f;}.cls-166{fill:#efefeb;}.cls-167{fill:#47ab54;}.cls-168{fill:#251e1e;}.cls-169{fill:#191415;}.cls-170{fill:#271f1f;}.cls-171{fill:#e5ca94;}.cls-172{fill:#ecd08e;}.cls-173{fill:#130f0f;}.cls-174{fill:#49ae8f;}.cls-175{fill:#44ac8d;}.cls-176{fill:#151112;}.cls-177{fill:#070204;}.cls-178{fill:#a29f9d;}.cls-179{fill:#d65625;}.cls-180{fill:#5698ab;}.cls-181{fill:#969696;}.cls-182{fill:#959595;}.cls-183{fill:#bfbfc0;}.cls-184{fill:#bdae54;}.cls-185{fill:#fbdea0;}.cls-186{fill:#fade9f;}.cls-187{fill:#eecd85;}</style></defs><path class="cls-1" d="M261.92,71.62c2.58,8.62,5.38,17.17,8.2,25.72,3.14,9.52,6.23,19.07,9.94,28.39,2.88,7.24,6.23,14.3,9.37,21.43.57,1.3,1.1,2.61,1.72,3.88.3.6.28.86-.39,1.13-4.13,1.7-8.25,3.41-12.35,5.19-.91.4-1.19.16-1.54-.69-3.91-9.32-8-18.58-11.78-27.95-5.82-14.37-11.71-28.72-16.94-43.33-1.56-4.36-3.08-8.73-4.47-13.14a4.34,4.34,0,0,1-.09-.63Z" transform="translate(-209.75 -71.62)"/><path class="cls-2" d="M326.52,401.77c0-2,0-4,0-6.07V323.92c0-.55,0-1.11,0-1.67a.53.53,0,0,1,.47-.07c5.45-.14,10.91-.1,16.37,0a1,1,0,0,1,1,1.12c0,.3,0,.6,0,.9-.07,25.19.18,50.38.11,75.57,0,.6,0,1.2,0,1.81a.76.76,0,0,1-.13.48H326.75A.58.58,0,0,1,326.52,401.77Z" transform="translate(-209.75 -71.62)"/><path class="cls-3" d="M210,287.87l-.27,0V269l.29,0,.29.12a1.1,1.1,0,0,1,0,.48c0,5.48,0,11,0,16.45a8.78,8.78,0,0,1-.06,1.54Z" transform="translate(-209.75 -71.62)"/><path class="cls-4" d="M265.8,287.33l-.78.25a2,2,0,0,0-1.53,0h-.8c-.61.36-.83,0-1-.51-.32-1-.11-2.12-.51-3.11a2.05,2.05,0,0,0,0-1.54,8.17,8.17,0,0,1-.26-2.87c-.33-.56.08-1.22-.25-1.77a8.18,8.18,0,0,1-.27-2.87c-.32-.56.08-1.22-.25-1.78-.39-.73,0-1.62-.51-2.34a.87.87,0,0,1,0-.77,1.81,1.81,0,0,1,2.41-.91c2.5.2,4.94-.36,7.39-.63q11.33-1.2,22.63-2.46c1.49-.17,3-.32,4.47-.52.39-.06.46-.19.06-.38-.76-.36-1.65-.27-2.37-.75.14-.84.78-.55,1.28-.57a5.87,5.87,0,0,1,1.17.36c.16.07-.05.06.11,0s0-.1,0-.17c.18-.46.59-.84.47-1.39.15-.61.79-1.1.39-2,0,0-.12.24,0,.15.1.34.29.7-.17,1-.4-.15-.43-.82-1-.73a3.21,3.21,0,0,0-1.23.16,5,5,0,0,1-.95.1,4,4,0,0,0-1.33.15,4.6,4.6,0,0,1-1,.11,3.87,3.87,0,0,0-1.35.15,3.8,3.8,0,0,1-1,.08,3.1,3.1,0,0,1-.61-.09,4.59,4.59,0,0,0-2.18,0,1.31,1.31,0,0,1-1.41-.36c-.32-.82-1-.84-1.7-.72-1,.19-2.11.18-3.16.37a1.85,1.85,0,0,1-1.58-.23,1,1,0,0,1,.3-1.19,47.83,47.83,0,0,1,5.72-.73c3.4-.41,6.8-.77,10.21-1.11.42,0,1,.09,1.09-.59-.41-.66-1.26-.3-1.76-.73.12-1.06,1.12-.38,1.57-.86,0-.31-.39-.18-.58-.3a17.81,17.81,0,0,1-2-.66.35.35,0,0,1,0-.38,1.45,1.45,0,0,1,.94-.28,3.59,3.59,0,0,0,1.26-.13c.3-.18.53-.43,0-.52a10.12,10.12,0,0,0-1.74,0,3.64,3.64,0,0,0-1.27.17,5,5,0,0,1-1,.1,4.06,4.06,0,0,0-1.34.15,4.6,4.6,0,0,1-1,.11A4.09,4.09,0,0,0,288,254a4.86,4.86,0,0,1-1,.11,4.08,4.08,0,0,0-1.39.17,24.81,24.81,0,0,1-4.12.42,6.64,6.64,0,0,0-1.52-3c-.21-.22-.1-.57.22-.75,2.37-.66,4.84-.6,7.25-.94a3.87,3.87,0,0,0,2.16-.67c-3.75-.07-7.42.61-11.13.87a19.18,19.18,0,0,0-6.09-.37c-.23-.08-.41-.2-.42-.47a1.54,1.54,0,0,1,1.16-.62c5.35-.76,10.75-1.15,16.08-2.15-2.7-.38-5.34.46-8,.31-.43-.48-1.18-.74-1.08-1.58a3,3,0,0,1,1.7-.49c1.93-.17,3.84-.45,5.77-.59a1.72,1.72,0,0,0,1.42-.53c-.27-.44-.68-.26-1-.23-4.41.38-8.8,1-13.2,1.39a2.77,2.77,0,0,1-1.28,0c-.56-1,.41-1.33.85-1.89.52-.24,1.12-.15,1.65-.36,1.07,0,2.12-.32,3.19-.35a4.07,4.07,0,0,0,1.47-.18c2.5-.29,5-.47,7.49-.83.24-.12.87.2.56-.52a5.78,5.78,0,0,0-1.71-.11,3.9,3.9,0,0,0-1.31.16,4.57,4.57,0,0,1-1,.1,4,4,0,0,0-1.37.16,4.28,4.28,0,0,1-1,.1,4.13,4.13,0,0,0-1.43.2,47.83,47.83,0,0,1-5.61.59,4.51,4.51,0,0,0-1.37.11c-.49.12-1,.19-1.5.27-.73.11-.88.52-.79,1.15-.49,1.2-1.61,1.69-2.61,2.31a.56.56,0,0,1-.79-.16,3.1,3.1,0,0,1-.36-1.1c-.31-1.68-.31-1.69-2.06-1.54s-3.58.44-5.38.57c-.88.07-1.13.5-1,1.37.26,2.39.58,4.78.84,7.17,0,.39.08.78.52,1s.95,0,1.38.27a.42.42,0,0,1,.22.43,5,5,0,0,1-3.78,3.53.76.76,0,0,1-.45-.43.94.94,0,0,1,.19-1c-.21-1.86-.91-3.63-.67-5.58a11.54,11.54,0,0,0-.39-2.19c-.46-4.11-1-8.22-1.5-12.33-.16-1.27.22-1.82,1.48-1.9,2.55-.16,5.12-.42,7.62-.76s5-.62,7.52-.93c2.11-.26,4.29-.41,6.41-.62,2.47-.24,5-.54,7.43-.91,1.22-.18,2.46-.27,3.69-.4l3.5-.37.12-.05c1.94-.42,2.57,0,2.77,1.93.23,2.17.56,4.35.67,6.51s.39,4,.62,6a51.15,51.15,0,0,0,.88,7.07,3,3,0,0,1,0,1.89c-.28.68.46,1,.47,1.68a45,45,0,0,0,.62,6c.38,2.51.58,5.05.86,7.58.14,1.27.32,2.53.45,3.81.15,1.45-.16,3,.75,4.29-.88,1-.83,2.49-2,3.29-2.16.5-4.41.41-6.56,1,1.53.13,3-.34,4.54-.23a3.22,3.22,0,0,1,.84.29s.19.29.16,0c0-.06-.06-.13,0-.22a.71.71,0,0,1,1-.06c-.43,1-.86,2.08-1.28,3.13-.57.33-1.24-.09-1.8.25-1,.31-2.11.11-3.11.51a2.05,2.05,0,0,0-1.54,0,11.3,11.3,0,0,1-3.12.26c-.56.32-1.22-.08-1.78.25-1,.47-2.13,0-3.12.52a2,2,0,0,0-1.53,0c-1,.31-2.12.11-3.12.51a2,2,0,0,0-1.54,0h-.8c-.56.33-1.22-.08-1.77.25h-.55c-.47.32-1.06-.08-1.53.25a1.82,1.82,0,0,0-1,.26,2,2,0,0,0-1.53,0l-.79.26a1.43,1.43,0,0,0-1.29,0,1.89,1.89,0,0,0-1,.25A2.05,2.05,0,0,0,265.8,287.33Z" transform="translate(-209.75 -71.62)"/><path class="cls-5" d="M298.6,165.92c1.95,1.75,3.5,3.87,5.3,5.76s3.33,3.8,5,5.7q5,5.69,10.07,11.34c.85,1,1.69,1.94,2.6,2.85.45.46.43.74,0,1.14-2.12,1.81-4.22,3.64-6.33,5.45l-8.2,7-8.59,7.35a1.56,1.56,0,0,1-.2.16c-1.87,1.54-1.93,1.6-3.56-.22-3.1-3.43-6.11-6.95-9.18-10.41-2.38-2.7-4.82-5.35-7.22-8-3.27-3.67-6.53-7.37-9.8-11.06a30.83,30.83,0,0,1-2.16-2.39c-.37-.51-.38-.75.08-1.14q5.92-5,11.84-10.06a27.66,27.66,0,0,1,3.82-3.18c.9.49,1,1.41,1.17,2.26a2.79,2.79,0,0,1-1,1.28c-3.39,2.86-6.69,5.82-10.08,8.66a2.28,2.28,0,0,0-1.08,1.45,18.55,18.55,0,0,0,3.43-2.73c2.65-2.32,5.37-4.57,8-6.91a1.25,1.25,0,0,1,1.27-.43c.88.72,1,1.84,1.47,2.8a28.29,28.29,0,0,1,2.15,5.18,1.79,1.79,0,0,1-.74.89,7.15,7.15,0,0,0-2.26,6.6,7.36,7.36,0,0,0,3.3,4.79,2.67,2.67,0,0,1,1,.78c.89.77,2,.57,3,.64a8.85,8.85,0,0,1,2.12,0s0,0,0-.07a.41.41,0,0,0-.14-.21.42.42,0,0,1,.11-.32,7.85,7.85,0,0,0,4.58-4.42,7.37,7.37,0,0,0,.47-2.9,6.9,6.9,0,0,0-3.13-5.51,3,3,0,0,1-.85-.77c-.53-1.18-1-2.39-1.56-3.54-.26-.49-.61-1.24,0-1.51s1,.49,1.22,1c.34.78.7,1.57,1.1,2.33s1,1.35,2,.92.84-1.32.51-2.12-.75-1.65-1.07-2.49c-.2-.5-.66-1.16,0-1.49s1,.49,1.21,1c1,2.28,2.09,4.53,3.1,6.82a6.69,6.69,0,0,0,.83,1.59,1.21,1.21,0,0,0,1.51.4c.6-.24.59-.78.5-1.31a4.85,4.85,0,0,0-.47-1.34c-1.72-3.56-3.15-7.27-5-10.77C298.5,166.48,298.34,166.21,298.6,165.92Z" transform="translate(-209.75 -71.62)"/><path class="cls-4" d="M342.77,283l.5-.74c.6-.27.94.23,1.33.49a13.65,13.65,0,0,0,2.57,1.67c-1-1.33-2.65-1.89-3.62-3.23l.5-.75c.6-.3.95.18,1.34.46a30.25,30.25,0,0,0,3.13,2.13c-1.17-1.49-2.95-2.26-4.2-3.65l.5-.71c.51-.35.78.14,1.08.36l2.71,1.93c.35.24.8.9,1.15.46s-.36-.74-.69-1c-1-.82-2.09-1.61-3.17-2.39a6.88,6.88,0,0,1-.77-.66l1.47-3.19a58.32,58.32,0,0,0,5.49,4c-.11-.6-.64-.79-1-1.11-1.39-1.12-3.05-1.92-4.15-3.4l.48-1.3c1.92,1.52,3.88,3,5.95,4.32-.05-.59-.53-.74-.88-1-1.59-1.29-3.42-2.26-4.78-3.83l.47-1.28c1.76,1.44,3.63,2.72,5.44,4.09.31.24.75.8,1.07.38s-.34-.76-.67-1c-1.83-1.41-3.79-2.66-5.52-4.21l1.3-2.64c.65-.16,1,.33,1.47.64,1.92,1.36,3.79,2.79,5.76,4.1-.06-.53-.5-.72-.83-1-2-1.62-4.26-2.9-6.13-4.7l.52-.88c.56-.26.89.18,1.24.44,1.72,1.28,3.44,2.56,5.18,3.8a2,2,0,0,0,1.41.62c-2.6-2.13-5.24-3.76-7.57-5.78l.52-.94c.56-.18.88.25,1.26.5,2,1.34,3.83,2.91,5.84,4.25.33.22.75.79,1.08.38s-.31-.7-.61-.92q-10.15-7.53-20.32-15c-2-1.46-3.91-3-5.91-4.38-.39-.27-.77-.68-1.4-.58,0,.75.64.95,1.05,1.25q8.44,6.27,16.9,12.51c.46.35,1.09.59,1.13,1.31a6.17,6.17,0,0,1-2.94-1c-4.6-2.88-8.79-6.34-13.18-9.51-1.34-1-2.68-1.95-4.1-2.82.17.6.68.84,1.11,1.15q5.31,3.87,10.58,7.83c.43.32,1,.55,1,1.24a13,13,0,0,1-3.94-1.45c-1.42-1.3-3.08-2.28-4.6-3.45-1.36-1-2.73-2.08-4.12-3.08a2,2,0,0,0-1.43-.6c1.84,1.44,3.61,2.7,5.32,4,.41.32,1,.51,1,1.22a13.79,13.79,0,0,1-3.12-1c-1.15-.94-2.5-1.61-3.63-2.57-.47-.39-.77-.15-1,.27a11,11,0,0,1-4.13-1.55c.65-.61,1.76,0,2.3-.9-1.89-.17-3.8.14-5.64-.4l-.8-.48c.42-.5,1-.38,1.55-.39,1.89,0,3.77.06,5.65-.06.62-.21.91-.78,1.34-1.2.22-.26.4-.55.61-.81s.51-.7.78-1,.51-.69.78-1,.37-.4.53-.62.5-.74.74-1.12.52-.57.77-.87.31-.44.47-.66l.31-.35c.09-.12.17-.25.25-.38a2.25,2.25,0,0,1,.54-.75c.12-.12.23-.23.34-.36.69-1.08,1.5-2.06,2.23-3.11.4-.49.84-.94,1.24-1.43s.65-1.07,1.05-1.55a13.77,13.77,0,0,0,1.3-1.64c1.09-1.43,2.16-2.88,3.27-4.3a1.3,1.3,0,0,1,2.08-.29,16.77,16.77,0,0,0,1.89,1.34c.25-.67,0-1.3.26-1.85.13-.27.3-.63.57-.08a14.26,14.26,0,0,0,.14,3.13l19.12,14.09c2.75,2,5.5,4.08,8.29,6,.8.57,1,1,.34,1.82q-8.54,11.08-17,22.21-6.45,8.46-12.89,17c-.62.81-1.25,1.63-1.88,2.43-.37.46-.74.66-1.3.21-.88-.69-1.8-1.32-2.71-1.95-.43-.3-.69-.53-.36-1.13.45-.81.76-1.71,1.13-2.57A9.14,9.14,0,0,0,343,290a7.34,7.34,0,0,0-2.54-1.92l2.05-4.67a20.56,20.56,0,0,0,3.7,2.64C345.32,284.74,343.6,284.35,342.77,283Z" transform="translate(-209.75 -71.62)"/><path class="cls-6" d="M259.82,270.34l-.21.46-15.53,5.26-33.56,11.49c-.45-.21-.38-.63-.38-1V270.16a1.15,1.15,0,0,1,.23-.84.22.22,0,0,0,0-.18l37.11-12c1.87-.6,3.77-1.14,5.6-1.84,1-.37,1.41-.14,1.64.78a2.65,2.65,0,0,1,.77,1.32c1.27,3.75,2.67,7.45,3.92,11.21C259.56,269.18,259.69,269.76,259.82,270.34Z" transform="translate(-209.75 -71.62)"/><path class="cls-5" d="M333,241.37l-.27.26a3.5,3.5,0,0,1-1.4.1H310.64a6.15,6.15,0,0,0-1.16,0c.09-.06.32,0,.53,0h21.55a1.45,1.45,0,0,1,.87.12l-.47.79a9.45,9.45,0,0,1-1.92.15H311.86a5.43,5.43,0,0,0-1.59.1,5.76,5.76,0,0,0,1.79.11h17c.71,0,1.48-.17,2.07.44a3,3,0,0,1-.75,1.26,8.8,8.8,0,0,1-1.15.13h-1.19c.62,0,1.31-.15,1.8.43-.25.34-.33.82-.79,1a3.47,3.47,0,0,1-2.12.4h-15.1a6.31,6.31,0,0,0-1.69.12,9.34,9.34,0,0,0,1.73.09c4.82,0,9.64,0,14.46,0,.67,0,1.39-.14,2,.42-.18.28-.26.64-.61.78a3.28,3.28,0,0,1-2,.38c-3.42-.05-6.85.15-10.27-.17-.53-.05-1.07-.87-1.57,0-1.31.26-2.66-.06-4.18.25.62.53,1.19.36,1.7.41.66.07,1.39-.18,1.94.41l-.5,1.26c-.93.05-1.87.05-3,.13.87.56,1.83,0,2.46.64,0,.29,0,.59-.28.77-.57.58-1.4.14-2.12.53.63.3,1.34,0,1.85.46l-1.32,2.95c-.47.27-1.22.41-.49,1.18l-2.56,5.73-.24,0V217.58a2.16,2.16,0,0,1,1.49-.25h37.06c1.7,0,1.72,0,1.73,1.75,0,2.19,0,4.39,0,6.58a1.17,1.17,0,0,0,.21.45l0,.52a.35.35,0,0,1-.25.27c-.58.8,0,1.75-.37,2.67-1.06-.29-1.74-1.17-2.6-1.75-.61-.41-.94-.35-1.35.21-1.14,1.55-2.31,3.06-3.47,4.58a3.91,3.91,0,0,1-2.13.37H324a2.93,2.93,0,0,0-1.68.27,1.89,1.89,0,0,0,1.3.21c4.25,0,8.51,0,12.77,0,.7,0,1.49-.16,2,.59l-1,1.61c-4.42.32-8.85.06-13.28.15a3.3,3.3,0,0,0-1.78.25c.5.39,1,.23,1.42.23,3.58,0,7.15,0,10.72,0,.59,0,1.33-.2,1.63.63a22.12,22.12,0,0,1-2.3,3.38l-.46-.12c-7.59-.09-15.19,0-22.78,0a1.32,1.32,0,0,0-.62.12.43.43,0,0,0-.11.36,3.17,3.17,0,0,0,2,.28c6.37,0,12.73,0,19.09,0C331.58,241,332.35,240.8,333,241.37Z" transform="translate(-209.75 -71.62)"/><path class="cls-7" d="M329.3,287.85c1.58-.6,2.16-.35,2.9,1.23a4.73,4.73,0,0,1,.38,1.66,8.47,8.47,0,0,0-.1,1.22,3.49,3.49,0,0,1,1.51-.88c.8.11,1.64.16,2,1.06l-.24.36c.06,1.89-.07,3.79.06,5.68a.31.31,0,0,1,.21,0c.36.28.2.68.26,1-.06-.45.08-1,0-1.5a5.6,5.6,0,0,0,.26-2.15c0-.77.39-1.46,1.2-1.34s1.92,0,1.91,1.4c0,1.76,0,3.53,0,5.29,0,.31-.18.83.3.84s.39-.55.4-.88c0-1,0-2,0-3s.33-1.75,1.36-1.71,1.24.93,1.24,1.79c0,3.27.23,6.56-.05,9.81a76.42,76.42,0,0,1-1.62,8.27c-.07.34-.11.68-.17,1-.37,1.87-.41,1.91-2.32,1.92h-6.55c-2,0-2,0-2.49-1.91a18.54,18.54,0,0,0-2.68-4.88,13.56,13.56,0,0,1-2.27-4.38c-.29-.39-.59-.78-.4-1.31l-1.4-4.93c-.2-.41-.66-.77-.28-1.3l.09-.77c.1-.41.12-.9.75-.81.61-.07,1.2-.37,1.83-.09a.68.68,0,0,1,.54,0,2.47,2.47,0,0,1,1,1.32c.15.45.28.9.47,1.33s.4.83.56,1.27.21.7.35,1c0,0,.1,0,.1,0l0-.11c0-.32,0-.63,0-.94s0-.51,0-.76v-1.22a7.85,7.85,0,0,1,0-.84,2.1,2.1,0,0,1,.28-1.25l-.16-.77a3,3,0,0,1,0-1.5l0-.07a.79.79,0,0,0,.23-.34c.12-2.09,0-4.18,0-6.27a1.24,1.24,0,0,0-.19-.36.41.41,0,0,1,0-.18A.89.89,0,0,1,329.3,287.85Z" transform="translate(-209.75 -71.62)"/><path class="cls-7" d="M283.06,168.51l-1-2.34v-.27a11.63,11.63,0,0,0-.46-1.29,5.59,5.59,0,0,1,.15-2,2.72,2.72,0,0,0-.54-2.53c-.44-.57-.47-1,.36-1.3,2.55-1,5.07-2.13,7.58-3.26.64-.29,1-.29,1.18.43.25.92.87,1.11,1.8,1.23a25.08,25.08,0,0,1,7.81,2.7,2.81,2.81,0,0,1,1.16,1.65c.49,1.18.89,2.4,1.44,3.55.36.78,0,1.09-.63,1.11-1,0-2.06-.11-2.55-1.27-.35-.82-.69-1.65-1.1-2.44-.22-.44-.63-.85-1.14-.59s0,.75.07,1.08a11.89,11.89,0,0,0,1.44,3c2,3.7,3.51,7.62,5.3,11.41.91,1.92.86,2.86-.14,3.27s-1.78,0-2.69-2.06c-1.09-2.43-2.18-4.85-3.3-7.27-.15-.31-.23-1-.69-.75-.62.27,0,.74.09,1.07.37.92.81,1.8,1.2,2.71.52,1.19.28,2.08-.65,2.54s-1.91.11-2.48-1.07c-.4-.81-.73-1.65-1.13-2.46-.2-.39-.23-.95-1-1.08.35,1.84,1.65,3.26,1.87,5,.15,1-.49,1.39-1.25,1.64a1.93,1.93,0,0,1-2.17-.69,5.85,5.85,0,0,1-.77-1.59c-.26-.67-.6-1.31-.91-1.95a22.12,22.12,0,0,1,.93,2.11c.14,2-1,3.07-2.57,2.47-.67-.25-1.21-.65-1-1.51l-3.6-8A1.24,1.24,0,0,1,283.06,168.51Z" transform="translate(-209.75 -71.62)"/><path class="cls-5" d="M371.93,187.58q2.46,3.82,4.93,7.65c.62,1,1.22,2,1.92,2.89.53.7.4,1.07-.32,1.52q-7.56,4.76-15.08,9.57c-.83.53-1.65,1.09-2.48,1.61-.2.12-.45.36-.69.13s0-.48.05-.71q2.6-6,5.18-11.92c.77-1.76,1.56-3.52,2.33-5.28.72-.84,1.86-1.17,2.61-2.12-.72-.16-1.15.6-1.78.32l.71-1.84c.31,0,.29-.29.31-.51l1.23-3.08C371.55,186.2,371.68,186.92,371.93,187.58Z" transform="translate(-209.75 -71.62)"/><path class="cls-8" d="M315.11,251.35l.73.3Q330.93,258,346,264.39c1,.41,1,.8.61,1.66-.88,1.87-.84,1.89-2.75,1.08q-14.67-6.21-29.34-12.39c-.92-.39-1.08-.76-.58-1.58a9.48,9.48,0,0,0,.64-1.41C314.69,251.5,314.78,251.27,315.11,251.35Z" transform="translate(-209.75 -71.62)"/><path class="cls-5" d="M335,186.08c-.53.86-.65,1.94-1.45,2.84-2-3-3.86-5.86-5.75-8.75-.43-.66.2-.8.55-1,4.29-2.73,8.59-5.45,13.13-8-.51,1.21-1,2.41-1.54,3.62-2.72,1.91-5.64,3.53-8.44,5.45.5.32.76,0,1-.14,1.59-.94,3.13-2,4.69-2.93.59-.37,1.11-1,1.93-.81-.57,2-1.59,3.75-2.31,5.66a19.56,19.56,0,0,0-3.05,1.89c.95.4,1.43-.81,2.23-.37l-.68,1.85C334.89,185.42,334.85,185.7,335,186.08Z" transform="translate(-209.75 -71.62)"/><path class="cls-9" d="M308.4,266.93c-.36-.22-.23-.51-.1-.79,1.16-2.67,2.33-5.33,3.48-8,.24-.57.48-.77,1.14-.48,2.27,1,4.55,2,6.86,2.91.62.25.79.49.51,1.11-1.16,2.63-2.28,5.27-3.42,7.9a.69.69,0,0,1-.71.45,12.91,12.91,0,0,0-1.7-1.92,2,2,0,0,1-.51-.73c-.07-.77.65-1,1-1.46a10.89,10.89,0,0,0,.93-1c1-1.35,1-1.89.22-2.69a1.85,1.85,0,0,0-3.28.57,5.58,5.58,0,0,0-.34,1c-.19.93.56,2-.52,2.81C310.82,267,309.58,266.58,308.4,266.93Z" transform="translate(-209.75 -71.62)"/><path class="cls-10" d="M350.35,262.75l-12.5-9.33c-2.17-1.62-4.36-3.21-6.53-4.84-.37-.27-1-.45-.44-1.17s.87-.19,1.25.09l27.39,20.25c.35.26,1,.41.47,1.14s-.85.26-1.26,0l-7.4-5.39Z" transform="translate(-209.75 -71.62)"/><path class="cls-11" d="M340.08,283.84c-.21.82-.43,1.19-1.34.8-6.07-2.63-12.16-5.18-18.25-7.75-4.39-1.86-8.78-3.71-13.16-5.6-.38-.16-1.25-.05-.86-1s.86-.43,1.32-.24q15.72,6.64,31.43,13.31C339.54,283.46,340,283.47,340.08,283.84Z" transform="translate(-209.75 -71.62)"/><path class="cls-5" d="M259.82,270.34c-1.48-3.1-2.37-6.43-3.57-9.64-.57-1.52-1.05-3.08-1.57-4.63a6.38,6.38,0,0,0,2.33-.39c.3-.08.56-.17.78.13s.29.69.5,1l.29.29c1,2.43,1.78,5,2.73,7.44a5.46,5.46,0,0,0,1.18,1.93c0,.38-.3.74-.11,1.14a4.12,4.12,0,0,1,.41.94.91.91,0,0,1-1.09.74C260.85,269.24,260.08,269.33,259.82,270.34Z" transform="translate(-209.75 -71.62)"/><path class="cls-11" d="M328.58,296.16a1.4,1.4,0,0,1,0,1.5l-27.86-11.79c-.46-.19-1-.21-.64-1s.79-.38,1.22-.2Z" transform="translate(-209.75 -71.62)"/><path class="cls-11" d="M329.3,287.85c-.25.36-.51.72-.76,1.09l-24.79-10.45c-.4-.17-.77-.28-.5-.9s.53-.6,1.07-.37Q316.8,282.56,329.3,287.85Z" transform="translate(-209.75 -71.62)"/><path class="cls-12" d="M339.1,286c-.11.65-.38.74-.91.51-3.28-1.4-6.56-2.78-9.84-4.17l-21.11-8.93c-.31-.14-.64-.26-.94-.42s-.84-.25-.59-.79.62-.31,1-.15l5.21,2.21,23,9.75c1.15.49,2.3.95,3.45,1.43C338.68,285.54,339,285.65,339.1,286Z" transform="translate(-209.75 -71.62)"/><path class="cls-12" d="M338.31,287.8c-.16.67-.58.6-1.08.38l-6.52-2.75-23-9.74c-.71-.3-1.43-.58-2.13-.9-.33-.15-.87-.24-.68-.76s.67-.36,1.08-.18c2.73,1.15,5.46,2.29,8.19,3.45l23.1,9.79C337.67,287.25,338.12,287.32,338.31,287.8Z" transform="translate(-209.75 -71.62)"/><path class="cls-12" d="M325.9,298.71l-.41-.14a31.76,31.76,0,0,0-5.8-2.68c-6.54-2.82-13.12-5.57-19.68-8.37-.29-.13-1,0-.72-.76s.83-.27,1.18-.13q9.55,4,19.1,8.09,4.26,1.81,8.54,3.61a2.59,2.59,0,0,0,.63.1c0,.44,0,.87,0,1.31C327.59,299.94,326.84,299.07,325.9,298.71Z" transform="translate(-209.75 -71.62)"/><path class="cls-9" d="M336,191.78l3,1.25q10.48,4.42,21,8.86c.35.15,1.14.1.77.86s-.82.28-1.22.11q-7.85-3.27-15.66-6.58c-2.69-1.13-5.38-2.25-8.07-3.39-.28-.13-.72-.19-.57-.69C335.29,191.87,335.51,191.69,336,191.78Z" transform="translate(-209.75 -71.62)"/><path class="cls-9" d="M351.75,196.13l9,3.82c.43.18,1,.25.76.92s-.79.23-1.18.06q-11.76-4.91-23.52-9.85c-.4-.17-1.14-.22-.77-1s.82-.19,1.18,0q6.42,2.64,12.83,5.32c.29-.23.53,0,.78.08A3.08,3.08,0,0,1,351.75,196.13Z" transform="translate(-209.75 -71.62)"/><path class="cls-9" d="M335,193.66c1.27.52,2.55,1,3.82,1.55,6.6,2.78,13.21,5.55,19.79,8.38.48.21,1.68.17,1.22,1.17s-1.13.05-1.63-.16q-11.06-4.6-22.07-9.26c-.51-.22-1-.47-1.52-.71a.38.38,0,0,1-.19-.62C334.52,193.77,334.64,193.54,335,193.66Z" transform="translate(-209.75 -71.62)"/><path class="cls-12" d="M328.55,293.05c-4.28-1.77-8.57-3.53-12.84-5.33-4.47-1.88-8.92-3.81-13.37-5.73-.31-.13-.89-.07-.68-.69s.64-.37,1-.2l23,9.71,2.85,1.19A.72.72,0,0,1,328.55,293.05Z" transform="translate(-209.75 -71.62)"/><path class="cls-12" d="M328.55,291l-15.66-6.57c-3.21-1.35-6.41-2.7-9.6-4.08-.37-.16-1.1-.14-.83-.86s.79-.24,1.17-.08l24.91,10.51A.73.73,0,0,1,328.55,291Z" transform="translate(-209.75 -71.62)"/><path class="cls-5" d="M349.9,165.51c1.56-1,3-1.91,4.5-2.88.45-.29.84-.5,1.2.05l4.6,7.13Z" transform="translate(-209.75 -71.62)"/><path class="cls-12" d="M322.82,300.24c.09.43.19.87.28,1.3l-24.3-10.25a2.77,2.77,0,0,1-.46-.22c-.3-.18-.83-.21-.56-.79s.61-.3,1-.15c2.37,1,4.73,2,7.11,3C311.52,295.49,317.09,298.05,322.82,300.24Z" transform="translate(-209.75 -71.62)"/><path class="cls-12" d="M323.66,298.66l-.75.81c-3-1.28-5.88-2.58-8.84-3.84-4.89-2.09-9.79-4.14-14.67-6.24-.34-.15-1.15-.05-.89-.79.32-.91,1-.24,1.38-.07,3.92,1.61,7.82,3.29,11.73,4.94s7.59,3.19,11.38,4.8A6.34,6.34,0,0,1,323.66,298.66Z" transform="translate(-209.75 -71.62)"/><path class="cls-11" d="M323.72,262.25l.84.33q7.28,3.09,14.55,6.18c.42.18,1.18.13.8,1.07s-.83.55-1.38.31q-7.39-3.13-14.78-6.27c-.31-.14-1-.08-.68-.78C323.21,262.76,323.21,262.3,323.72,262.25Z" transform="translate(-209.75 -71.62)"/><path class="cls-9" d="M320.49,270.21c1.33.56,2.76,1.15,4.18,1.76l11,4.69c.48.21,1,.28.76,1s-.85.52-1.35.31l-14.93-6.34c-.36-.16-.81-.24-.53-.79C319.79,270.57,319.82,270.07,320.49,270.21Z" transform="translate(-209.75 -71.62)"/><path class="cls-9" d="M321.43,267.52l2.3.94c4.38,1.86,8.76,3.74,13.15,5.58.78.32,1,.7.46,1.39-.4.5-.82.06-1.15-.08-2.86-1.17-5.7-2.38-8.54-3.59-2.1-.88-4.2-1.75-6.29-2.65-.31-.14-.84-.2-.58-.78C320.92,268,321,267.55,321.43,267.52Z" transform="translate(-209.75 -71.62)"/><path class="cls-9" d="M338.83,272.13c-.22.58-.35,1.14-1.25.74-4.6-2-9.22-3.94-13.84-5.9-.43-.18-.86-.37-1.31-.53-.62-.23-.54-.63-.35-1.13s.52-.43.91-.27l15,6.37C338.36,271.55,338.81,271.62,338.83,272.13Z" transform="translate(-209.75 -71.62)"/><path class="cls-13" d="M266.27,301.11c-.82-1.39-.62-2.32.74-3.07q3-1.65,6-3.22c1.42-.74,2.37-.4,3.12,1-.06.34-.59.39-.49.82-1.5,1.32-3.41,1.93-5.09,2.94-1.1.66-2.27,1.19-3.32,1.94C266.7,301.81,266.66,301.09,266.27,301.11Z" transform="translate(-209.75 -71.62)"/><path class="cls-13" d="M285,311.8c1.19,1.8,1,2.69-.84,3.69s-3.52,1.91-5.3,2.84S276,319,275.1,317a.71.71,0,0,1,.29-.46,17.28,17.28,0,0,1,3.77-1.7c.37.13.42.45.48.78s.24.71.73.62.82-.18.76-.68c-.08-.69-.71-.41-1.11-.53a.58.58,0,0,1-.35-.4c.13-.6.69-.71,1.12-.93a17.26,17.26,0,0,0,3.46-2.12C284.57,311.33,284.69,311.86,285,311.8Z" transform="translate(-209.75 -71.62)"/><path class="cls-12" d="M326.73,285.08c-.1.72-.49.56-.93.37-2.13-.91-4.26-1.8-6.4-2.7q-7.23-3-14.46-6.11c-.37-.16-1.07-.2-.79-.91s.79-.18,1.15,0l20.61,8.72C326.26,284.57,326.68,284.6,326.73,285.08Z" transform="translate(-209.75 -71.62)"/><path class="cls-9" d="M365.47,174.85c-.17.81-.72.44-1.1.29-1.71-.69-3.4-1.43-5.1-2.14l-12.58-5.3c-.32-.13-.83-.15-.57-.76s.61-.44,1.05-.25L364.62,174C365,174.18,365.48,174.27,365.47,174.85Z" transform="translate(-209.75 -71.62)"/><path class="cls-14" d="M246.48,226.37h.46c1.25.74,2.69,1.15,3.78,2.19.83.87,2.08,1.49,1.75,3a1,1,0,0,1-1.38.28c-2.65-1.2-5.31-2.38-7.92-3.65a.77.77,0,0,1-.49-.56c.2-.93.88-1.21,1.71-1.29Z" transform="translate(-209.75 -71.62)"/><path class="cls-8" d="M361.6,194.85l.08.77c.32.63-.07,1-.51,1.31l-.57.53c-1.17.91-2.17.55-3-1.09-.55-1.09-1.69-1.53-2.56-2.26-.33-.27-.76-.39-1-.73-.42-1.18.23-1.81,1.17-2.3a10.4,10.4,0,0,1,2.27,1.39,4.66,4.66,0,0,0,2.68.95A1.45,1.45,0,0,1,361.6,194.85Z" transform="translate(-209.75 -71.62)"/><path class="cls-12" d="M352.63,185.26a19.32,19.32,0,0,1,4.08,1.6c.06.07.09.13.06.2s0,.1-.06.1c-.5.28-1.33-.3-1.58.61-.47.6-.61,1.51-1.56,1.67a.32.32,0,0,1,0-.35c-3.05-1.55-6.28-2.7-9.41-4.06-1.37-.6-2.76-1.16-4.13-1.77-.33-.14-.94-.16-.63-.84s.75-.3,1.09-.16c3,1.23,5.9,2.5,8.86,3.74.43.17.86.68,1.37.14a.39.39,0,0,1,0-.35c.42-.11.47.23.6.48.11.49.57.38.89.51a3.59,3.59,0,0,0,1.85.6c-.49-.47-1.1-.45-1.41-.85S352.17,185.68,352.63,185.26Z" transform="translate(-209.75 -71.62)"/><path class="cls-15" d="M342.82,259.65c-2.8-2.41-5.91-4.42-8.84-6.67-1.32-1-2.7-2-4.05-3-.31-.23-.67-.45-.3-.92s.59-.19.88,0l16.77,12.42a.67.67,0,0,1,.13.22A27.61,27.61,0,0,1,342.82,259.65Z" transform="translate(-209.75 -71.62)"/><path class="cls-2" d="M267.38,202.34,250,205.25c-.5.08-1,.13-1.52.2,0-1.07.83-1.46,1.67-1.79,4.16-.41,8.25-1.32,12.37-2,1.33-.23,2.73-.14,4-.8.19-.19.35-.46.69-.26A1.35,1.35,0,0,1,267.38,202.34Z" transform="translate(-209.75 -71.62)"/><path class="cls-9" d="M353.58,189.09l0,.36a2,2,0,0,1-1.2,1.91.46.46,0,0,1-.33-.13c.31-.63-.19-.67-.59-.83-4-1.66-7.92-3.32-11.85-5-.4-.17-1.37-.07-1.09-.89.36-1,1.12-.26,1.6-.06q6,2.45,11.86,5A1.12,1.12,0,0,0,353.58,189.09Z" transform="translate(-209.75 -71.62)"/><path class="cls-9" d="M352.09,191.23l.32,0c.13.85-.45,1.24-1,1.64a.44.44,0,0,1-.34-.12c-1.32-1.25-3.1-1.56-4.68-2.27-2.65-1.19-5.36-2.28-8.05-3.39-.42-.17-.83-.29-.54-.89s.62-.27,1-.13c3.79,1.59,7.57,3.21,11.37,4.77C350.71,191.12,351.31,191.77,352.09,191.23Z" transform="translate(-209.75 -71.62)"/><path class="cls-16" d="M244.36,226.59a2.79,2.79,0,0,0-1.56,1.06c-.12.42-.1.86-.19,1.29-.35,1.08-.4,2.22-.72,3.3a.26.26,0,0,1-.35.07.16.16,0,0,1,0-.2,5.26,5.26,0,0,1,0-2.2,2.54,2.54,0,0,0,0-.39c-.1-.55.68-1.12.19-1.54a7.82,7.82,0,0,0-2-.94c-.53-.25-.79.19-1.1.44a5.12,5.12,0,0,1-2.8,1.42.49.49,0,0,1-.14-.32.67.67,0,0,1,.15-.33c.73-.61,1.65-.94,2.36-1.58a2.74,2.74,0,0,0,1.05-1.11,4.68,4.68,0,0,0,.18-.48c.28-1.67-.7-2.75-1.77-3.79-.39-.38-1-.58-1.13-1.18.05-.2.13-.36.37-.22a8.16,8.16,0,0,1,3.37,3.56,1.73,1.73,0,0,0,1.32,1.05c1.11.1,1.41,1.48,2.52,1.59.09.12.24.16.33.27A.18.18,0,0,1,244.36,226.59Z" transform="translate(-209.75 -71.62)"/><path class="cls-9" d="M353.62,183a29.16,29.16,0,0,0,5.11,2.35c2.4,1.06,4.83,2,7.24,3,.35.15.94.17.62.85s-.67.33-1.07.17l-11.75-5c-.47-.2-1-.33-1.46-.49s-.13-.45-.05-.68C352.67,183,353.05,182.57,353.62,183Z" transform="translate(-209.75 -71.62)"/><path class="cls-9" d="M351,192.78l.31,0c.18.91-.55,1.31-1,1.85a.37.37,0,0,1-.35-.06c-1.19-1.11-2.78-1.42-4.2-2-2.75-1.2-5.53-2.32-8.3-3.48-.41-.17-.81-.34-.53-.93s.61-.26.95-.12c3.83,1.61,7.65,3.23,11.49,4.82C349.9,193.05,350.52,193.68,351,192.78Z" transform="translate(-209.75 -71.62)"/><path class="cls-17" d="M353.62,183c-.51,0-.89.28-1.34.43-.77-.22-.69-.87-.65-1.43s.59-.61,1-.73.75-.11,1.12-.2a4.61,4.61,0,0,0,2.43-1.28,1,1,0,0,1,1.28-.22c1.59.9,1.8,1.9.7,3.36a1.4,1.4,0,0,1-1.63.13,3.07,3.07,0,0,0-2-.17Z" transform="translate(-209.75 -71.62)"/><path class="cls-18" d="M315.44,248.3c.21-.32.53-.23.82-.23l11.44,0-1,1.32c-2.84.12-5.67.11-8.51,0Z" transform="translate(-209.75 -71.62)"/><path class="cls-19" d="M248.45,202.06c0-.07,0-.14.05-.21.44-1.07,1.57-1.58,2.1-2.57a2.06,2.06,0,0,1,.26-.25c1.59-1.23,2.79-2.89,4.38-4.12a8.82,8.82,0,0,0,1.61-1.5c.19-.21.35-.5.71-.43a.66.66,0,0,1,.38.58c-.09.66-.62,1-1,1.43l-13.74,13.75a4.28,4.28,0,0,0-1,1.17.51.51,0,0,1-.4.31.94.94,0,0,1-.81-.57c-.29-.58.37-.57.54-.87a5,5,0,0,0,2-1.73C245.06,205.28,247,203.94,248.45,202.06Z" transform="translate(-209.75 -71.62)"/><path class="cls-20" d="M355,187.56c.29-1.3,1.08-.49,1.7-.4.44.18.89.35.53,1l-.56.76a1.25,1.25,0,0,1-.7,1.06l-.55.77c-.12.14,0,.38-.21.49-.56.59-1.32,1.08-1.07,2.08-.2.4-.62.59-.86.95a3.31,3.31,0,0,1-1,1.09,1.54,1.54,0,0,0-.53.81,1.21,1.21,0,0,1-1-.5.69.69,0,0,1-.14-.52c1.28-2.11,2.71-4.13,4.11-6.17C355,188.56,355.7,188.16,355,187.56Z" transform="translate(-209.75 -71.62)"/><path class="cls-9" d="M354.61,182.91a2.63,2.63,0,0,1,2.21,0,2.94,2.94,0,0,0,1.38.07l8.68,3.56c.42.17.8.36.5,1s-.64.22-1,.09c-3.39-1.43-6.79-2.86-10.18-4.33A5.73,5.73,0,0,0,354.61,182.91Z" transform="translate(-209.75 -71.62)"/><path class="cls-9" d="M343.37,202.54c-.24,1-.8.67-1.25.48-1.86-.77-3.71-1.57-5.57-2.36-1.14-.49-2.29-1-3.43-1.46-.33-.15-.82-.26-.63-.8s.69-.36,1.07-.2l9.13,3.85C343,202.17,343.41,202.19,343.37,202.54Z" transform="translate(-209.75 -71.62)"/><path class="cls-21" d="M347.65,226.1h-.23a57.85,57.85,0,0,1-.1-7.33c0-1.08-.3-1.36-1.36-1.36q-18.72.06-37.44,0a2.75,2.75,0,0,1-1.39-.12c.38-.43.89-.25,1.34-.25,12.6,0,25.2,0,37.8,0,1.15,0,1.46.32,1.43,1.45C347.61,221,347.66,223.56,347.65,226.1Z" transform="translate(-209.75 -71.62)"/><path class="cls-9" d="M350.79,185.76l-.06.38A1.94,1.94,0,0,0,349.5,185c-2.79-1.11-5.56-2.29-8.32-3.48-.4-.17-1.22-.21-.9-1s1-.22,1.42,0q4,1.65,8,3.33a.45.45,0,0,0,.58,0C351.22,184.23,351,185,350.79,185.76Z" transform="translate(-209.75 -71.62)"/><path class="cls-22" d="M307.13,217.32h38.52c1.76,0,1.76,0,1.77,1.83v7c-.52-.61-.23-1.32-.25-2,0-1.68-.08-3.36,0-5,.05-1.13-.22-1.54-1.47-1.54-12.86,0-25.72,0-38.58,0Z" transform="translate(-209.75 -71.62)"/><path class="cls-15" d="M335,256.32c-2-1.53-4-3-6-4.59-.32-.25-1-.41-.58-1s.85,0,1.16.24c3,2.18,6,4.4,9,6.62.19.13.65.24.26.65A24,24,0,0,1,335,256.32Z" transform="translate(-209.75 -71.62)"/><path class="cls-23" d="M250.09,203.91l-1.6,1.54-2.83,2.6c-.42-.21-.38-.52-.17-.85a3.58,3.58,0,0,1,.68-.77c4-3.63,7.48-7.67,11.36-11.37.34-.32.62-.73,1.13-.82.39.16.79.31.37.83l-6.75,6.59c-.24.24-.51.46-.49.85s-.57.45-.81.73A3.65,3.65,0,0,1,250.09,203.91Z" transform="translate(-209.75 -71.62)"/><path class="cls-24" d="M348.46,269.79c1.44.52,2.45,1.67,3.68,2.49,1,.67,1.93,1.44,2.91,2.13.4.28.35.52.07.82s-.35.68-.8.34c-2-1.51-4.05-3-6.07-4.55-.1-.08-.07-.32-.11-.48Z" transform="translate(-209.75 -71.62)"/><path class="cls-25" d="M258.58,194.29a43.66,43.66,0,0,1-4,4.15c-2.83,2.8-5.48,5.78-8.43,8.46-.31.29-.84.55-.48,1.15a24.07,24.07,0,0,1-3.1,3,.65.65,0,0,1-.58-.8c.3-.35.55-.75.89-1.08l14.55-14.55a2.46,2.46,0,0,1,.8-.63C258.43,194,258.57,194.05,258.58,194.29Z" transform="translate(-209.75 -71.62)"/><path class="cls-26" d="M339.16,176.28l-6.75,4.22c-.38.23-.82.65-1.21.05s.34-.76.63-1c2.51-1.64,5.05-3.22,7.59-4.82.17-.11.33-.32.54-.07Z" transform="translate(-209.75 -71.62)"/><path class="cls-9" d="M350,183l-7.9-3.36-.47-.19c-.4-.18-.81-.34-.51-.94s.63-.24,1-.11c2.2.93,4.42,1.83,6.6,2.81.74.33.77-.06.82-.57A1.65,1.65,0,0,1,350,183Z" transform="translate(-209.75 -71.62)"/><path class="cls-9" d="M352.28,195.32l.8-1.24c1.57.69,3.16,1.3,4.72,2,.78,1.66,1.16,1.85,2.8,1.37.3.36.75.39,1.13.57s1,.24.65,1-.71.24-1.07.09Z" transform="translate(-209.75 -71.62)"/><path class="cls-2" d="M250.83,203.12a1.24,1.24,0,0,1,1-.61,8.14,8.14,0,0,0,2.89-.46,11.43,11.43,0,0,1,2.86-.77c2.17-.41,4.33-.87,6.52-1.1a15.54,15.54,0,0,0,2.71-.48l.08.05c.27.21.53.41.22.78a.54.54,0,0,0-.25.51c-3.31.43-6.59,1-9.87,1.65-1.68.31-3.38.52-5,.9A.82.82,0,0,1,250.83,203.12Z" transform="translate(-209.75 -71.62)"/><path class="cls-9" d="M357.21,188.12c0-.44-.34-.65-.52-1,0-.1,0-.2,0-.3l8.53,3.55c.36.15.77.18.53.77s-.51.44-.92.26Z" transform="translate(-209.75 -71.62)"/><path class="cls-9" d="M356,189.94l.7-1.06c2,1.27,4.31,1.87,6.43,2.88l1.41.64c.34.15.6.36.39.78s-.53.3-.87.16Z" transform="translate(-209.75 -71.62)"/><path class="cls-27" d="M349.46,226.88c-1.78,0-1.79,0-1.78,1.81v1.55c-.58-1.08-.11-2.24-.26-3.35l.25-.27" transform="translate(-209.75 -71.62)"/><path class="cls-28" d="M275.4,316.69l-.3.35c-3-5.26-6-10.56-8.83-15.93.64-.52.42.42.75.44.52.05.67.5.87.86,2.45,4.3,4.82,8.64,7.23,12.95C275.34,315.76,275.65,316.18,275.4,316.69Z" transform="translate(-209.75 -71.62)"/><path class="cls-29" d="M285,311.8c-.34.41-.34-.25-.57-.18-.46.06-.58-.31-.74-.59-2.58-4.52-5.07-9.1-7.61-13.64a2.56,2.56,0,0,1-.34-1c-.34-.55.31-.35.42-.56C279.14,301.13,282.11,306.43,285,311.8Z" transform="translate(-209.75 -71.62)"/><path class="cls-30" d="M353.84,181.18a2.13,2.13,0,0,1-.67.31c-1.56.1-1.49.9-.89,2,0,.18-.21.37,0,.54.11.42.21.84.32,1.27l.21,1.31a.49.49,0,0,1-.77.31c-.37.08-.81.37-1-.29.29-.28.22-.61.14-1-.45-1.81-.85-3.64-1.23-5.47a3.38,3.38,0,0,0-.63-1.22c.12-.69.6-.77,1.17-.69.82.36.47,1.25.83,1.82C351.83,181.26,353,180.83,353.84,181.18Z" transform="translate(-209.75 -71.62)"/><path class="cls-15" d="M350.81,264.4c1,.12,1.52.9,2.25,1.4,1.69,1.17,3.33,2.41,5,3.67.31.24,1,.47.58,1.06s-.85,0-1.19-.23c-2.3-1.65-4.58-3.32-6.87-5C350.64,265,350.72,264.7,350.81,264.4Z" transform="translate(-209.75 -71.62)"/><path class="cls-31" d="M228.87,226.38a.89.89,0,0,1-1.06.2c-.35-.11-.84-.25-.83-.67s.49-.47.81-.5c.71-.06.94-.35.82-1.07a5.68,5.68,0,0,1,.73-3.34c.31-.65.89-1.17.62-2.11-.12-.42.44-1,1.24-.94a11.57,11.57,0,0,1,3.84,1c0,.24-.13.34-.32.41-.91.09-1.83-.36-2.73,0a2.08,2.08,0,0,0-.71.5,9.57,9.57,0,0,0-1.76,2.65,3.14,3.14,0,0,0-.05,2.37c.06.41.36.77.22,1.22C229.46,226.35,229.08,226.1,228.87,226.38Z" transform="translate(-209.75 -71.62)"/><path class="cls-14" d="M325.94,154.11a1.81,1.81,0,0,1,1.8,1.8,1.69,1.69,0,0,1-1.71,1.73,1.77,1.77,0,0,1-1.86-1.7A1.83,1.83,0,0,1,325.94,154.11Z" transform="translate(-209.75 -71.62)"/><path class="cls-14" d="M378.68,281.41a1.72,1.72,0,0,1-1.83-1.72,1.63,1.63,0,0,1,1.66-1.74,1.75,1.75,0,0,1,1.93,1.63A1.83,1.83,0,0,1,378.68,281.41Z" transform="translate(-209.75 -71.62)"/><path class="cls-26" d="M350,266.2c2,1,3.66,2.62,5.54,3.87.57.38,1.09.84,1.65,1.23.36.25.62.46.24.91s-.56.14-.85-.07l-6.85-5Z" transform="translate(-209.75 -71.62)"/><path class="cls-32" d="M355.19,191.2c0-.19,0-.38.21-.49,2.29,1.21,4.76,2,7.12,3.1l1.28.58a.49.49,0,0,1,.26.73c-.17.38-.39.32-.71.23-.59-.17-1.07-.68-1.75-.5a2.51,2.51,0,0,0-2.18-1.16C357.76,193.55,356.44,192.32,355.19,191.2Z" transform="translate(-209.75 -71.62)"/><path class="cls-12" d="M350.54,178.26c-.42.19-1,.16-1.1.8a1,1,0,0,1,0,1.33c-2.28-.95-4.57-1.9-6.84-2.87-.34-.15-1-.13-.7-.81s.71-.38,1.15-.2l4.72,2c.58.24,1.09.68,1.64-.13A.73.73,0,0,1,350.54,178.26Z" transform="translate(-209.75 -71.62)"/><path class="cls-14" d="M350.33,308.51a1.74,1.74,0,0,1,1.69,1.74,1.75,1.75,0,1,1-1.69-1.74Z" transform="translate(-209.75 -71.62)"/><path class="cls-33" d="M345.13,277.34c2,.83,3.46,2.41,5.2,3.59.44.3-.09.58-.23.84-.24.44-.51.29-.82.07q-2.22-1.62-4.46-3.21C344.49,278.09,345.31,277.83,345.13,277.34Z" transform="translate(-209.75 -71.62)"/><path class="cls-9" d="M332.19,199.92l4.55,1.87c.51.21,1,.44,1.54.64a.53.53,0,0,1,.36.79c-.18.47-.46.41-.82.26L332,201c-.29-.12-.59-.21-.41-.63C331.72,200.14,331.81,199.82,332.19,199.92Z" transform="translate(-209.75 -71.62)"/><path class="cls-9" d="M350.64,175.42c-.14.45-.15.91-.83.6-1.84-.82-3.7-1.58-5.54-2.38-.36-.16-.92-.27-.63-.89s.75-.24,1.1-.1c1.79.72,3.56,1.48,5.33,2.23C350.33,175,350.67,175.06,350.64,175.42Z" transform="translate(-209.75 -71.62)"/><path class="cls-9" d="M345,170.47l2,.86c1.3.55,2.61,1.08,3.91,1.64.35.15.77.32.5.84s-.52.39-.88.24l-5.67-2.43c-.33-.14-.65-.32-.44-.77C344.54,170.63,344.63,170.33,345,170.47Z" transform="translate(-209.75 -71.62)"/><path class="cls-9" d="M337.83,204.92c-.14.38-.23.75-.8.5-2-.84-3.95-1.65-5.92-2.47-.31-.13-.52-.3-.32-.68s.34-.53.7-.38l6,2.54A.44.44,0,0,1,337.83,204.92Z" transform="translate(-209.75 -71.62)"/><path class="cls-15" d="M347.67,271.82l5.93,4.28c.28.2.58.43.21.83s-.45.34-.77.1c-1.81-1.38-3.63-2.73-5.43-4.12-.14-.1-.16-.37-.23-.57Z" transform="translate(-209.75 -71.62)"/><path class="cls-27" d="M383.32,194.85h.25" transform="translate(-209.75 -71.62)"/><path class="cls-34" d="M299.62,280.59c-.35.1-.76,0-1.06.26a.55.55,0,0,1-.72,0l-4,.39c-.38,0-.77.08-1.15.08s-.45-.22-.5-.49,0-.46.3-.47c2.37-.16,4.69-.84,7.1-.53Z" transform="translate(-209.75 -71.62)"/><path class="cls-15" d="M346.9,273.64c1.73,1.26,3.48,2.51,5.19,3.8.31.23,1,.39.51,1.05s-.77,0-1.05-.21c-1.4-1-2.78-2-4.16-3-.37-.28-.8-.54-.79-1.1Z" transform="translate(-209.75 -71.62)"/><path class="cls-35" d="M252.34,231.51c0-1.29-1-2-1.77-2.86,0-.22,0-.36.26-.22a10.73,10.73,0,0,1,2.72,2.86,1.06,1.06,0,0,1-.24,1.66c-1.14.43-1.47,1.5-2.22,2.22a4.15,4.15,0,0,1-1.31,1c-.26.1-.31-.06-.33-.26a20.52,20.52,0,0,0,2.21-3.18C251.86,232.32,252.15,231.94,252.34,231.51Z" transform="translate(-209.75 -71.62)"/><path class="cls-36" d="M349.79,213.15l4.2,1.75c-.49.89-1.44,1-2.1,1.55-.16.13-.39-.08-.51-.27l-1.81-2.78Z" transform="translate(-209.75 -71.62)"/><path class="cls-8" d="M336,292.14a6.71,6.71,0,0,0-2-.9,1.21,1.21,0,0,1-1.54-.64,1.52,1.52,0,0,1-.23-1.52c1.35.55,2.69,1.09,4,1.66.24.11.71.15.58.53S336.78,292.32,336,292.14Z" transform="translate(-209.75 -71.62)"/><path class="cls-14" d="M243.9,206.29c-1.25-.21-2.57.12-4-.58a12.52,12.52,0,0,1,4.2-1.78,3.27,3.27,0,0,1,.42,2C244.43,206.24,244.25,206.41,243.9,206.29Z" transform="translate(-209.75 -71.62)"/><path class="cls-14" d="M242,210.38l.58.71a11,11,0,0,1-2.9,1.85c-.18.09-.39.27-.58.09a.54.54,0,0,1-.05-.71c.63-.9.94-2,1.94-2.67l.74.48C241.84,210.16,242,210.16,242,210.38Z" transform="translate(-209.75 -71.62)"/><path class="cls-26" d="M344.32,279.34c1.7.82,3,2.2,4.59,3.21.33.22.28.47,0,.75s-.54.17-.85,0a35.84,35.84,0,0,0-4.06-2.87C343.72,279.94,344.42,279.74,344.32,279.34Z" transform="translate(-209.75 -71.62)"/><path class="cls-37" d="M249.53,236l.25.21c-.57.54-2,.48-1.33,1.92.19.42-.22.47-.54.35s-.5-.18-.53-.33c-.41-1.68-2.09-1.63-3.18-2.37a5.49,5.49,0,0,1-2.66-3.44l.28,0c.49,0,.61.41.79.72a6.76,6.76,0,0,0,3.68,3,4.17,4.17,0,0,0,1.79.11C248.56,236,249,235.66,249.53,236Z" transform="translate(-209.75 -71.62)"/><path class="cls-38" d="M329.85,317c.35,1.38,1.24,1.7,2.6,1.61a49.36,49.36,0,0,1,6.32,0c1.33.08,2.21-.19,2.44-1.62-.18,1.1,0,1.88,1.4,1.57a.6.6,0,0,1,.67.25l-.17.16a3.46,3.46,0,0,1-1.65.2c-3.82,0-7.65,0-11.47,0-1.76,0-1.78,0-1.85,1.8a2.7,2.7,0,0,1-.12.89c-.3.58-.77.49-1.26.32l-.13,0-.12.05c1.28-.43,1-1.5,1-2.45,0-.69,0-1.37,1-1.2C329.83,318.83,330.19,318.26,329.85,317Z" transform="translate(-209.75 -71.62)"/><path class="cls-39" d="M349.44,180.39c.09-.44-.29-.89,0-1.33.42-.2.61,0,.71.4.49,2.17,1,4.34,1.5,6.5.13.56,0,.71-.56.63l-.3-.83a8,8,0,0,0-.55-2c-.32-.21-.16-.55-.23-.83a5.62,5.62,0,0,0-.5-2.36A.18.18,0,0,0,349.44,180.39Z" transform="translate(-209.75 -71.62)"/><path class="cls-40" d="M266.77,199.7a3,3,0,0,1-2.48.76,23.63,23.63,0,0,0-5.8.78,4.22,4.22,0,0,1-.87.19c-.22,0-.4-.08-.34-.37,1.87-1,4-.85,6-1.32,1.43-.34,3-.23,4.28-1C267.39,199.34,267.39,199.34,266.77,199.7Z" transform="translate(-209.75 -71.62)"/><path class="cls-41" d="M313.33,249.4c-1.11,0-2.23,0-3.35,0-.52,0-.8-.13-.78-.72s.33-.65.76-.61c1.3.13,2.63-.3,3.91.25Z" transform="translate(-209.75 -71.62)"/><path class="cls-15" d="M343.55,281.15a43.65,43.65,0,0,1,4,2.81c.24.16.52.37.3.74s-.56.3-.87.08l-3.67-2.56C342.93,281.76,343.52,281.52,343.55,281.15Z" transform="translate(-209.75 -71.62)"/><path class="cls-42" d="M257,193.58a4.76,4.76,0,0,1-1.55,1.51c-.72,0-1,.65-1.37,1-1.12,1-2.08,2.18-3.25,3.12l0,0c-.23,0-.37,0-.27-.31,1.12-1.75,2.84-2.91,4.23-4.4.82-.88,1.9-1.55,2.39-2.83.4.34.15.7.13,1S257,193.26,257,193.58Z" transform="translate(-209.75 -71.62)"/><path class="cls-14" d="M372.73,187a1.45,1.45,0,0,0-.71-2.13c1,0,1.64-.2,1.81-1.28a1.49,1.49,0,0,0,1.88,1.25c-.75.56-1.29,1.13-.67,2.13C374.24,186.43,373.51,186.24,372.73,187Z" transform="translate(-209.75 -71.62)"/><path class="cls-26" d="M342.77,283c1.18.85,2.35,1.7,3.55,2.52.38.26.57.47.27.91s-.55.17-.83,0c-.86-.63-1.73-1.24-2.59-1.88-.33-.25-.71-.5-.67-1Z" transform="translate(-209.75 -71.62)"/><path class="cls-43" d="M210.37,269.32c0,1.79-.09,3.59-.1,5.39,0,3.78,0,7.56,0,11.34a2.5,2.5,0,0,0,.25,1.5.27.27,0,0,1-.21.06c-.45-.3-.29-.77-.29-1.18,0-5.34,0-10.68,0-16C210,270,209.77,269.53,210.37,269.32Z" transform="translate(-209.75 -71.62)"/><path class="cls-26" d="M327.26,253c-.27-.62,0-1.3.57-.91,1.41,1,3,1.78,4.09,3.21A32,32,0,0,1,327.26,253Z" transform="translate(-209.75 -71.62)"/><path class="cls-44" d="M243.9,206.29l.43-.34a6.51,6.51,0,0,1,2.45-2.38l1.67-1.51c.29.2.08.36-.06.5q-3,3-6.07,6.07c-.21.21-.44.62-.81.15Z" transform="translate(-209.75 -71.62)"/><path class="cls-26" d="M326,250.39c-.59,1.34-1.8,1-2.85,1l-2.26-.81c-.05-.21,0-.34.24-.34A33,33,0,0,1,326,250.39Z" transform="translate(-209.75 -71.62)"/><path class="cls-26" d="M336,183.46c-.52.27-1,.53-1.55.83s-.71.24-1-.16.11-.56.37-.73l2.45-1.58a.33.33,0,0,1,.53.12C336.57,182.44,336.3,183,336,183.46Z" transform="translate(-209.75 -71.62)"/><path class="cls-26" d="M340.45,288.12a7.67,7.67,0,0,1,3.15,1.76c.12.25,0,.39-.16.55s-.36.32-.55.16c-.84-.74-2.07-1-2.5-2.23A.53.53,0,0,0,340.45,288.12Z" transform="translate(-209.75 -71.62)"/><path class="cls-45" d="M312.29,251.43l-2.42,0c-.32,0-.61-.05-.65-.45s.27-.62.65-.57c1,.13,2-.33,3,.28Z" transform="translate(-209.75 -71.62)"/><path class="cls-26" d="M368.6,191.24c.45-.24.9-.47,1.34-.73.26-.16.48-.39.74,0s.32.64-.09.86a13.53,13.53,0,0,1-2.81,1.67Z" transform="translate(-209.75 -71.62)"/><path class="cls-46" d="M308.4,266.93c.16-.67.72-.51,1.16-.52.81,0,1.63,0,2.44,0a.61.61,0,0,1-.27.8c-.36,0-.37-.56-.7-.46.25.43,1.24.55.5,1.4Z" transform="translate(-209.75 -71.62)"/><path class="cls-47" d="M353.84,181.18a2.05,2.05,0,0,0-.75,0c-1.19.51-1.67,0-1.72-1.15.47.18,1,.33,1.42.54a2.56,2.56,0,0,0,2.92-.68c.56-.49,1.07-.86,1.79-.35a2,2,0,0,0-1.45.68A3.63,3.63,0,0,1,353.84,181.18Z" transform="translate(-209.75 -71.62)"/><path class="cls-48" d="M314.62,267.94c.65.59,1.56,1,1.54,2.08a9.72,9.72,0,0,1-3.37-1.28A2.58,2.58,0,0,1,314.62,267.94Z" transform="translate(-209.75 -71.62)"/><path class="cls-2" d="M246.78,203.57,244.33,206a4.48,4.48,0,0,1-.2-2Z" transform="translate(-209.75 -71.62)"/><path class="cls-9" d="M324.5,306.47a3,3,0,0,1,.4,1.31c-.83-.06-1.47-.64-2.25-.85-.32-.08-.51-.28-.32-.66s.4-.37.73-.26Z" transform="translate(-209.75 -71.62)"/><path class="cls-49" d="M314.62,267.94c-.48.56-1.19.59-1.83.8-.52,0-.84-.38-1.26-.55.18-1-.46-1.31-1.7-1.3,1-.3,1.52-.31,1.89.3a2.71,2.71,0,0,0,2.37.17Z" transform="translate(-209.75 -71.62)"/><path class="cls-26" d="M311.74,253.19l-1.93,0c-.35,0-.59-.12-.59-.51s.27-.5.6-.51H312Z" transform="translate(-209.75 -71.62)"/><path class="cls-50" d="M335.84,298.18a12,12,0,0,1-.06-5.68A20.78,20.78,0,0,1,335.84,298.18Z" transform="translate(-209.75 -71.62)"/><path class="cls-14" d="M258.29,192.27c.45-.47,1.23-.25,1.64-.86.21-.3.63-.19.9.09s.38.65.07.9-.46,1-.76,1.41c-.26-.15-.35-.44-.52-.66C259.36,192.58,258.67,192.66,258.29,192.27Z" transform="translate(-209.75 -71.62)"/><path class="cls-2" d="M269.2,201.53l-.6.59c-1.16-.37-1.36-1.32-.48-2.31.41-.05.66.26,1,.45A.84.84,0,0,1,269.2,201.53Z" transform="translate(-209.75 -71.62)"/><path class="cls-14" d="M371.93,187.58a3.54,3.54,0,0,1-1.08-1.77c.21-.23.14-.92.72-.5.36.25,1.05.35.78,1.08Z" transform="translate(-209.75 -71.62)"/><path class="cls-51" d="M318.23,249.41h8.51c-1.15.48-2.35.14-3.53.2-1.4.07-2.81,0-4.22,0C318.72,249.61,318.43,249.67,318.23,249.41Z" transform="translate(-209.75 -71.62)"/><path class="cls-52" d="M361.17,196.93a3.29,3.29,0,0,0,.51-1.31l1.23.65c.26.13.55.25.37.65s-.35.51-.78.35A2.56,2.56,0,0,0,361.17,196.93Z" transform="translate(-209.75 -71.62)"/><path class="cls-14" d="M268.12,199.81c-.41.89-.46,1.7.48,2.31-.36.35-.8.21-1.22.22a4.86,4.86,0,0,0-.31-1.81l-.22-.78Z" transform="translate(-209.75 -71.62)"/><path class="cls-53" d="M383.84,211.18h.24" transform="translate(-209.75 -71.62)"/><path class="cls-14" d="M269.2,201.53l-.12-1.27a1.2,1.2,0,0,1,1.42-.08.58.58,0,0,1,.17.8C270.34,201.53,269.75,201.49,269.2,201.53Z" transform="translate(-209.75 -71.62)"/><path class="cls-14" d="M258.58,194.29l-.25-.26a.43.43,0,0,1-.36-.14,2.43,2.43,0,0,1-.16-.37l-.38-.4a.16.16,0,0,1,.07-.25l.53-.36c.54.12.82.59,1.2.92.21.26.52.48.37.89a.72.72,0,0,1-.57.75C259.14,194.66,258.88,194.46,258.58,194.29Z" transform="translate(-209.75 -71.62)"/><path class="cls-54" d="M250.54,198.94l.27.31c-.4,1.19-1.47,1.79-2.31,2.6-.27-.29-.13-.5.1-.75C249.26,200.39,249.9,199.66,250.54,198.94Z" transform="translate(-209.75 -71.62)"/><path class="cls-51" d="M326,250.39c-1.7.12-3.43-.33-5.11.23l-1.08-.49c.89-.38,1.77.12,2.68,0,1.17-.13,2.36-.09,3.54-.12a.16.16,0,0,1,.09.06Z" transform="translate(-209.75 -71.62)"/><path class="cls-55" d="M250.83,228.43l-.26.22a10.9,10.9,0,0,0-3.23-1.75c-.29-.08-.47-.21-.4-.53A7.53,7.53,0,0,1,250.83,228.43Z" transform="translate(-209.75 -71.62)"/><path class="cls-56" d="M328.55,291c0-.36,0-.72,0-1.08s0-.51,0-.77l.23,0a42.69,42.69,0,0,1,0,7l-.3,0c0-1,0-2,0-3,0-.35,0-.7,0-1.05Z" transform="translate(-209.75 -71.62)"/><path class="cls-57" d="M235.84,228.46c0,.08,0,.17,0,.25-.66.27-1.38-.06-2.05.2a4.72,4.72,0,0,1-2.58-1c0-.29.19-.34.41-.37a10.65,10.65,0,0,0,3.45.6A.87.87,0,0,1,235.84,228.46Z" transform="translate(-209.75 -71.62)"/><path class="cls-58" d="M259,193.59c-.39-.31-.84-.56-1-1.08l.27-.24A1.33,1.33,0,0,1,260,193C259.74,193.36,259.53,193.72,259,193.59Z" transform="translate(-209.75 -71.62)"/><path class="cls-59" d="M336.34,297.66c.47.88.19,1.79.14,2.93-.74-.87-.33-1.67-.43-2.39Z" transform="translate(-209.75 -71.62)"/><path class="cls-60" d="M309.93,257.32c-.74.23-.8-.26-.71-.76.13-.84.76-.39,1.2-.42C310.26,256.54,310.1,256.93,309.93,257.32Z" transform="translate(-209.75 -71.62)"/><path class="cls-61" d="M257.28,201.06l.33.28a.31.31,0,0,1-.21.22l-2.72.49c-.14-.54.25-.47.57-.53C255.93,201.39,256.6,201.22,257.28,201.06Z" transform="translate(-209.75 -71.62)"/><path class="cls-62" d="M231.45,227.65l-.25.23c-.93-.26-1.22-1.51-2.33-1.5.16-.33.46-.27.74-.27a.34.34,0,0,1,.33-.1C230.52,226.49,231.26,226.82,231.45,227.65Z" transform="translate(-209.75 -71.62)"/><path class="cls-38" d="M343.28,318.85c.49.54.26,1.21.23,1.8,0,.75.13,1.29.88,1.54h-.07a1.22,1.22,0,0,1-1.1,0,1,1,0,0,1-.22-.41c0-1-.33-2,.28-3Z" transform="translate(-209.75 -71.62)"/><path class="cls-63" d="M259,193.59c.32-.18.49-.62.94-.58l.18.8a.86.86,0,0,1-.54.51C259.41,194.08,259.21,193.84,259,193.59Z" transform="translate(-209.75 -71.62)"/><path class="cls-64" d="M234.73,219.18l.31-.25a5.24,5.24,0,0,1,1.86,1l-.28.22A1.73,1.73,0,0,1,234.73,219.18Z" transform="translate(-209.75 -71.62)"/><path class="cls-14" d="M374.69,184.28h2.45v.21h-2.43Z" transform="translate(-209.75 -71.62)"/><path class="cls-55" d="M244.36,226.59c0-.07,0-.14,0-.21.38-.32.88,0,1.27-.25.31,0,.63-.07.84.24C245.82,226.9,245.06,226.43,244.36,226.59Z" transform="translate(-209.75 -71.62)"/><path class="cls-65" d="M296.54,284c.54-.49,1.2-.15,1.8-.25C297.83,284.46,297.12,283.74,296.54,284Z" transform="translate(-209.75 -71.62)"/><path class="cls-66" d="M233.78,228.91c.66-.38,1.37-.11,2.05-.2v.19A4.58,4.58,0,0,1,233.78,228.91Z" transform="translate(-209.75 -71.62)"/><path class="cls-67" d="M350.78,195.15c0,.16,0,.32,0,.48l-.69-.28c0-.26-.28-.47-.1-.76a.37.37,0,0,0,.25,0A.55.55,0,0,1,350.78,195.15Z" transform="translate(-209.75 -71.62)"/><path class="cls-45" d="M335,186.08c-.27-.13-.58-.29-.38-.63s.4-.46.71-.14Z" transform="translate(-209.75 -71.62)"/><path class="cls-68" d="M241.49,229.91v2.2A2.89,2.89,0,0,1,241.49,229.91Z" transform="translate(-209.75 -71.62)"/><path class="cls-69" d="M260.12,273.14c.49.54.15,1.19.25,1.78C259.87,274.39,260.21,273.73,260.12,273.14Z" transform="translate(-209.75 -71.62)"/><path class="cls-70" d="M372.73,184.3c-.44.17-.85.38-1.26-.11Z" transform="translate(-209.75 -71.62)"/><path class="cls-71" d="M275.11,286.29c.53-.48,1.18-.15,1.77-.25C276.35,286.54,275.7,286.2,275.11,286.29Z" transform="translate(-209.75 -71.62)"/><path class="cls-72" d="M287,285c.54-.48,1.19-.15,1.78-.25C288.23,285.24,287.59,284.91,287,285Z" transform="translate(-209.75 -71.62)"/><path class="cls-73" d="M260.64,277.79c.48.53.15,1.18.25,1.77C260.39,279,260.73,278.38,260.64,277.79Z" transform="translate(-209.75 -71.62)"/><path class="cls-74" d="M261.15,282.43a1.17,1.17,0,0,1,0,1.54C261.15,283.45,261.15,282.94,261.15,282.43Z" transform="translate(-209.75 -71.62)"/><path class="cls-75" d="M277.68,286a1.17,1.17,0,0,1,1.54,0Z" transform="translate(-209.75 -71.62)"/><path class="cls-76" d="M291.89,284.49a1.17,1.17,0,0,1,1.54,0Z" transform="translate(-209.75 -71.62)"/><path class="cls-77" d="M282.34,285.52a1.16,1.16,0,0,1,1.53,0Z" transform="translate(-209.75 -71.62)"/><path class="cls-27" d="M349.77,312.18H351A1,1,0,0,1,349.77,312.18Z" transform="translate(-209.75 -71.62)"/><path class="cls-78" d="M245.64,226.13c-.37.38-.85.16-1.27.24l-.26-.28A3.94,3.94,0,0,1,245.64,226.13Z" transform="translate(-209.75 -71.62)"/><path class="cls-14" d="M257.5,192.87l-.07.25-.42.46c-.57-.5.12-.58.28-.84Z" transform="translate(-209.75 -71.62)"/><path class="cls-5" d="M281.57,164.61a1.45,1.45,0,0,1,.46,1.29A1.55,1.55,0,0,1,281.57,164.61Z" transform="translate(-209.75 -71.62)"/><path class="cls-79" d="M323.81,156.52a2,2,0,0,1-.06-1.36A2,2,0,0,1,323.81,156.52Z" transform="translate(-209.75 -71.62)"/><path class="cls-80" d="M263.49,287.58a1.17,1.17,0,0,1,1.53,0Z" transform="translate(-209.75 -71.62)"/><path class="cls-81" d="M265.8,287.33a1.17,1.17,0,0,1,1.54,0Z" transform="translate(-209.75 -71.62)"/><path class="cls-71" d="M261.67,287.08c.29.27.54.62,1,.51C262,288.1,261.68,287.89,261.67,287.08Z" transform="translate(-209.75 -71.62)"/><path class="cls-82" d="M258.29,256.82a1.43,1.43,0,0,1-.5-1l.51.05C258.29,256.18,258.29,256.5,258.29,256.82Z" transform="translate(-209.75 -71.62)"/><path class="cls-83" d="M270.46,286.81a1.17,1.17,0,0,1,1.53,0Z" transform="translate(-209.75 -71.62)"/><path class="cls-84" d="M273,286.55c.45-.46,1-.16,1.54-.25C274.12,286.77,273.55,286.48,273,286.55Z" transform="translate(-209.75 -71.62)"/><path class="cls-76" d="M268.38,287.07a.87.87,0,0,1,1.29,0Z" transform="translate(-209.75 -71.62)"/><path class="cls-85" d="M328.18,155.53a.86.86,0,0,1,0,.89A.77.77,0,0,1,328.18,155.53Z" transform="translate(-209.75 -71.62)"/><path class="cls-86" d="M369.62,188.89c.18.12.28.28.15.48s-.29.25-.46,0Z" transform="translate(-209.75 -71.62)"/><path class="cls-87" d="M380.86,279.21a.86.86,0,0,1,0,.93C380.67,279.87,380.7,279.61,380.86,279.21Z" transform="translate(-209.75 -71.62)"/><path class="cls-88" d="M352.36,309.65c.32.39.18.66.2,1C352.18,310.32,352.38,310.05,352.36,309.65Z" transform="translate(-209.75 -71.62)"/><path class="cls-89" d="M343.31,322.16l1,0q0,39,0,78c0,.51,0,1-.06,1.54-.35-.46-.19-1-.19-1.5q0-38.13,0-76.27c0-.57.46-1.51-.76-1.53A.19.19,0,0,1,343.31,322.16Z" transform="translate(-209.75 -71.62)"/><path class="cls-90" d="M343.31,322.16l0,.3c-5.06,0-10.12,0-15.18,0-.45,0-1,.16-1.34-.24.31-.2.75.07,1-.26a1.17,1.17,0,0,1,.42-.27c3.72-.23,7.45-.06,11.17-.1a18.2,18.2,0,0,1,3.46.1,1.71,1.71,0,0,1,.42.28C343.28,322,343.3,322.09,343.31,322.16Z" transform="translate(-209.75 -71.62)"/><path class="cls-7" d="M262.5,266.65a1.62,1.62,0,0,1-1.25-1.23c-.8-2.42-1.69-4.82-2.55-7.23-.12-.35-.4-.68-.12-1.08,2-.49,2.91-2.07,3.71-3.75-.16-.51.24-.84.4-1.25s.38-.55.55-.84.24-.38.37-.57a14.16,14.16,0,0,1,1.79-2.35,1.94,1.94,0,0,0,1.06-.71c.7-.56.92-1.61,1.93-1.84a12,12,0,0,0,3.09-2.29c0-.5.48-.63.76-.92l.27-.21A2.28,2.28,0,0,1,274,242a1,1,0,0,1,.43.53,1.27,1.27,0,0,1,.05.34.65.65,0,0,1-.17.3c-.14.64-.66,1-1.05,1.49-.34.75-1.08,1.07-1.63,1.59-.36.23-.64.56-.84.66a16.23,16.23,0,0,1,2.29-1,13.64,13.64,0,0,1,5.41-.8c.5,0,1-.05,1.43.38.54.26,1.21.41,1.11,1.24-.09,1-.86,1.12-1.59,1.14A21.52,21.52,0,0,0,273,249l-1,.36a.61.61,0,0,1-.38.25,1,1,0,0,0,.61,0,11.93,11.93,0,0,1,6.16.25c.71.2,1.46.33,1.56,1.28a2.08,2.08,0,0,0,.91,1.18c.74.61,1.07,1.24.35,2.07-.2.39-.56.36-.91.36a2.23,2.23,0,0,1-.39-.09,4,4,0,0,1-1.25-.9,4.4,4.4,0,0,0-5.35-1,10.4,10.4,0,0,1-2,.73c1.85-.12,3.78-.37,5.42,1a5,5,0,0,1,.65.81l.33.36.33.34a5.55,5.55,0,0,1,.61.75,9.57,9.57,0,0,1,.79,1.1,1.61,1.61,0,0,1,.18.89,2.28,2.28,0,0,1-.45,1l-.26,1c.19.46-.22.88-.07,1.33a1.81,1.81,0,0,1,0,.52,6.07,6.07,0,0,1-1,1.62,9.58,9.58,0,0,0-.62,1.07,8.26,8.26,0,0,1-.94,1.26,2.72,2.72,0,0,1-2.11.74,35.87,35.87,0,0,0-5.94.65,6.13,6.13,0,0,1-2.89-.19C264.52,267.13,263.38,267.22,262.5,266.65Z" transform="translate(-209.75 -71.62)"/><path class="cls-91" d="M276.2,238l-10.5,1.23c-2.09.24-4.19.42-6.28.72-.82.11-1-.13-1.1-.91-.21-2.25-.24-2.29,2-2.54q13.45-1.47,26.93-2.89a17,17,0,0,0,4.33-.31c.81-.09,1.16,0,1.3.94.26,1.81.34,1.74-1.43,1.94-4.29.47-8.59.89-12.87,1.43a21.84,21.84,0,0,0-2.3.22,1.23,1.23,0,0,1-.57,0C275.84,238,276.09,237.82,276.2,238Z" transform="translate(-209.75 -71.62)"/><path class="cls-92" d="M263.44,251.43l-.51.79a6.82,6.82,0,0,1-2.28,1.23c-.59.15-.73-.16-.78-.68-.31-2.86-.64-5.71-1-8.56-.07-.51,0-.8.61-.87,2.64-.29,5.28-.61,7.91-.92.55-.07.64.26.68.69.08.9.19,1.79.29,2.69-.66.62-1.06,1.49-1.83,2a2.43,2.43,0,0,0-2.52-1.52c-2.14.15-2.85,1.14-2,3.1C261.93,250.46,262.91,250.79,263.44,251.43Z" transform="translate(-209.75 -71.62)"/><path class="cls-93" d="M262.45,275.63c-.21-.74.23-1,.83-1.18.69-.7,1.64-.45,2.44-.55,3.48-.42,7-.75,10.46-1.15,4.42-.51,8.83-1,13.25-1.45,2.21-.24,4.41-.57,6.64-.68a1,1,0,0,1,.72.18c.56.24,1.64-.52,1.69.43s-1.1.41-1.68.64a5.8,5.8,0,0,1-.59.19c-.8.66-1.8.5-2.71.6-9.52,1-19,2.11-28.56,3.13A4.33,4.33,0,0,1,262.45,275.63Z" transform="translate(-209.75 -71.62)"/><path class="cls-93" d="M298.59,272.61c.77,1.39-.68.88-1.08,1.26-.84.67-1.89.51-2.84.61L269,277.31a17.64,17.64,0,0,1-5.23.22c-.76.07-1.28-.09-1-1,1.5-.77,3.17-.7,4.78-.87q14-1.49,27.9-3.06A9.43,9.43,0,0,1,298.59,272.61Z" transform="translate(-209.75 -71.62)"/><path class="cls-92" d="M297.84,274.63c.41.1,1.08-.22,1.1.53s-.67.49-1.08.53q-10.23,1.15-20.47,2.27l-13.7,1.45c-.35,0-.67.18-.79-.34s.34-.57.67-.66c.83-.24,1.73,0,2.53-.36.85-.66,1.89-.5,2.85-.6l27.41-3C296.87,274.38,297.39,274.24,297.84,274.63Z" transform="translate(-209.75 -71.62)"/><path class="cls-94" d="M261.7,269.3l1.05-.79a4.38,4.38,0,0,1,3-.59,46.05,46.05,0,0,0,5.88-.54c4.44-.45,8.83-1.23,13.28-1.62,2.74-.24,5.47-.58,8.2-.91a16.58,16.58,0,0,1,3.45,0c.22,0,.43,0,.65,0,.4,0,.68.08.66.55s-.33.44-.64.47l-7.28.79-18.16,2c-3.11.34-6.22.66-9.33,1C262.06,269.69,261.84,269.63,261.7,269.3Z" transform="translate(-209.75 -71.62)"/><path class="cls-95" d="M298.59,272.61q-14.85,1.65-29.71,3.3c-2.05.23-4.1.39-6.15.59.36-.43-.08-.61-.28-.87,6.61-.72,13.21-1.45,19.81-2.15,4.65-.5,9.3-1,13.95-1.42l2.38.34s.06.06.06.09S298.61,272.57,298.59,272.61Z" transform="translate(-209.75 -71.62)"/><path class="cls-95" d="M297.84,274.63l-28.92,3.17c-.94.11-1.88.17-2.82.25a4.72,4.72,0,0,1-2.36-.52L277.42,276q9-1,18-2c.68-.08,1.37-.08,2.06-.12a2,2,0,0,1,1.4.4C298.6,274.56,298.07,274.26,297.84,274.63Z" transform="translate(-209.75 -71.62)"/><path class="cls-96" d="M283.53,270.24c3.5-.41,7-.83,10.49-1.23,1-.12,2.07-.13,3.07-.34,1.26-.26,1.41.31,1.17,1.3a4.66,4.66,0,0,1-2.44.56c-2.53.34-5.08.6-7.62.86a2,2,0,0,1-.64-.05,5,5,0,0,0-2.29-.15c-4.11.6-8.25,1-12.37,1.43-3,.35-6.13.6-9.18,1-1,.14-1-.74-1.47-1a43.81,43.81,0,0,1,6.14-.75,6.44,6.44,0,0,0,2.66-.09c4-.53,8-.8,11.93-1.34a4.49,4.49,0,0,1,1.27,0C284.07,270.3,283.72,270.53,283.53,270.24Z" transform="translate(-209.75 -71.62)"/><path class="cls-97" d="M287.49,271,298.26,270c.38.31.27.48-.15.56s-.95-.16-1.32.27c-3.62.42-7.24.86-10.86,1.27q-9.15,1-18.29,2c-1.45.15-2.91.25-4.36.37-.42-.11-.89-.14-1-.66a2.17,2.17,0,0,1,.86-.27,2.81,2.81,0,0,0,.91-.12,5.36,5.36,0,0,0,1.33-.12,5.1,5.1,0,0,0,.78-.14,6.38,6.38,0,0,0,1.63-.14c1.06-.09,2.11-.21,3.15-.38a6.81,6.81,0,0,0,1.69-.12c1-.1,2-.19,2.93-.37a11.33,11.33,0,0,0,1.64-.13,5.48,5.48,0,0,0,1-.13,9.07,9.07,0,0,0,1.37-.13,6.92,6.92,0,0,0,.77-.14,8.14,8.14,0,0,0,1.56-.12,4.45,4.45,0,0,0,1-.13,7,7,0,0,0,1.37-.14c.33,0,.64-.14,1-.15a6.9,6.9,0,0,0,1.57-.09A1.08,1.08,0,0,1,287.49,271Z" transform="translate(-209.75 -71.62)"/><path class="cls-98" d="M296.52,264.83l-13.94,1.58-17.65,1.94c-.73.08-1.46.11-2.18.16a.82.82,0,0,1-.56-.78c.94-.8,2-.57,3.08-.38,1.65.73,3.29.12,4.92-.07a22.45,22.45,0,0,1,3.83-.35,3,3,0,0,0,2.35-.81c1.28-.77,2.75-.66,4.14-.8,3.9-.4,7.78-.86,11.67-1.29a2.39,2.39,0,0,1,2,.29A4.82,4.82,0,0,1,296.52,264.83Z" transform="translate(-209.75 -71.62)"/><path class="cls-99" d="M271.48,246a9.55,9.55,0,0,1,1.79-1.37l15.09-1.61c.46-.05,1-.44,1.18.44s-.4.92-1.05,1c-2.85.31-5.7.66-8.56,1a20.28,20.28,0,0,0-7.14.78C272.33,246.32,271.8,246.75,271.48,246Z" transform="translate(-209.75 -71.62)"/><path class="cls-92" d="M294.16,264.32l-11.65,1.19-6.14.61.72-1.05c1.05-.91,2.39-.62,3.59-.77,4.77-.57,9.56-1.05,14.33-1.61a7.52,7.52,0,0,0,1.71-.09.78.78,0,0,1,.59.17c.79.89,0,1-.59,1.27a.85.85,0,0,1-1,.07A2.86,2.86,0,0,0,294.16,264.32Z" transform="translate(-209.75 -71.62)"/><path class="cls-92" d="M273,249c1.71-1.27,3.72-1.35,5.72-1.43.88,0,1.73,0,2.28-.87l8-.93c.47-.05.72.06.76.58s0,.87-.71.93c-3.06.31-6.12.68-9.19,1C277.64,248.57,275.34,248.79,273,249Z" transform="translate(-209.75 -71.62)"/><path class="cls-92" d="M279.32,257.93l-.82-1c.32-.44.82-.42,1.28-.48,4.42-.55,8.86-1,13.29-1.48a6.79,6.79,0,0,1,2.42.07c.21,0,.42,0,.63,0,.41,0,.66.12.64.56s-.31.43-.61.47c-.58.09-1.19-.07-1.73.26a4,4,0,0,1-2.46.59c-3.76.34-7.51.86-11.27,1.22A2,2,0,0,1,279.32,257.93Z" transform="translate(-209.75 -71.62)"/><path class="cls-92" d="M279.25,259.78a1.39,1.39,0,0,1,.22-1c.3-.47.8-.43,1.26-.49,4.46-.55,8.93-1,13.39-1.48a6.12,6.12,0,0,1,2.41.06c.59.49.94,1-.21,1.1-2.67.32-5.34.64-8,.93C285.29,259.2,282.27,259.48,279.25,259.78Z" transform="translate(-209.75 -71.62)"/><path class="cls-100" d="M297.31,262.77l-.46,0c-.51.26-1.09-.06-1.6.21l-16.75,1.86c-.47.05-.94.13-1.4.19a1.63,1.63,0,0,1,.56-1,6.41,6.41,0,0,1,2.47-.6,4.52,4.52,0,0,0,1.42-.15,4.88,4.88,0,0,1,1-.11,4.61,4.61,0,0,0,1.57-.15,4.78,4.78,0,0,1,1-.1,3.91,3.91,0,0,0,1.36-.16,4.24,4.24,0,0,1,1-.1,4.48,4.48,0,0,0,1.41-.18c1.06,0,2.09-.32,3.15-.35a4.06,4.06,0,0,0,1.43-.16,9.32,9.32,0,0,1,1.83-.09,5.49,5.49,0,0,0,1.85-.13l.18,0c.34-.27.15-.71.35-1.2A2.12,2.12,0,0,1,297.31,262.77Z" transform="translate(-209.75 -71.62)"/><path class="cls-99" d="M280,251.19a6.62,6.62,0,0,0-1.56-1.28c3.61-.41,7.23-.82,10.84-1.26.64-.08.8.16.89.74s-.23.71-.72.76C286.29,250.48,283.14,250.84,280,251.19Z" transform="translate(-209.75 -71.62)"/><path class="cls-95" d="M295.49,255l-17,1.89-.58-.8c.34-.46.92-.36,1.37-.55,1.08-.05,2.13-.31,3.21-.36A4,4,0,0,0,284,255c1.08,0,2.13-.32,3.2-.35a4.82,4.82,0,0,0,1.69-.17c1.08,0,2.14-.32,3.23-.35a1.79,1.79,0,0,1,1.27.31A3.59,3.59,0,0,1,295.49,255Z" transform="translate(-209.75 -71.62)"/><path class="cls-101" d="M296.53,256.84c-2.75.34-5.51.69-8.26,1-2.93.33-5.87.61-8.8.91l-.15-.82c5-.61,10.05-1.23,15.1-1.62C295.15,256.39,296,256.15,296.53,256.84Z" transform="translate(-209.75 -71.62)"/><path class="cls-102" d="M282.59,263.54l-.91.06c-.45.2-1,0-1.41.19l-2.61.29,1-1.45c.92-.82,2.12-.41,3.17-.71a5,5,0,0,1,1.28,0,4.53,4.53,0,0,0,1.68-.1,2.19,2.19,0,0,1,.81-.06,2.17,2.17,0,0,0,1.35-.17,3.51,3.51,0,0,1,.79-.06c.6-.13,1.18.24,1.77,0l.93-.06c.45-.2.95,0,1.4-.19l.92-.07c.45-.2.95,0,1.4-.19l.95-.07c.44-.21.94,0,1.37-.19,1-.28.9.39.82,1h0c-.46.7-1.27.11-1.81.5l-1.95,0c-.45.2-1,0-1.41.2a14.84,14.84,0,0,1-3.26.32c-.44.2-.94,0-1.39.19l-.95.07c-.44.21-.94,0-1.37.19l-.94.07a3.85,3.85,0,0,1-1.55.05c-.29-.58.26-.54.5-.56,4.16-.39,8.31-.9,12.46-1.36-5.19.57-10.38,1.19-15.59,1.68a5.31,5.31,0,0,1,2.38,0A.29.29,0,0,1,282.59,263.54Z" transform="translate(-209.75 -71.62)"/><path class="cls-103" d="M274.3,242.9a.42.42,0,0,1-.05-.24,7.13,7.13,0,0,1,3.7-.46c.64.13,0-.5.33-.39,1.56.22,3.09-.38,4.38-.18.45,0,.19-.17.27,0s0,.06-.11,0a27,27,0,0,0-4.76.32c-1.37,0-2.71.69-4.09.17-.58-.11-1,.28-1.43.5a1,1,0,0,1-.17-.14s0,0,0,0,.17,0,.21.11c-.2.48-.75.51-1.06.85-.29-.7-1-1.54.66-1.43.5,0,1-.36,1.59-.24.43-.22.92,0,1.35-.18l5.85-.6c.44-.21.95,0,1.39-.19l.93-.07c.45-.2.95,0,1.39-.19l1-.06c.43-.22.93,0,1.37-.19a4,4,0,0,1,2.1.08c.2.55.14,1-.54,1.13-2.62.36-5.25.73-7.9.84-.44.2-.95,0-1.39.19a13.93,13.93,0,0,1-3.28.32A2.69,2.69,0,0,1,274.3,242.9Z" transform="translate(-209.75 -71.62)"/><path class="cls-103" d="M287.24,255a14.08,14.08,0,0,1-3.24.32c-.45.2-1,0-1.4.19a13.85,13.85,0,0,1-3.27.32,3,3,0,0,1-1.69,0l-.24-.27a4.06,4.06,0,0,1,2.61-.51c4.12-.15,8.18-.86,12.28-1.25a11.71,11.71,0,0,0,2.42-.26c-4.09.55-8.47.86-12.81,1.46-.52.07-1.31.43-1.64-.47l1-.09,4.32-.46c.45-.21.95,0,1.4-.2l.92-.06c.45-.2,1,0,1.4-.2l.95-.06c.44-.21.94,0,1.38-.19l.94-.07c.44-.21.94,0,1.38-.18.62-.07,1.25-.09,1.86-.22.79-.18.53.56.65.81.26.53-.26.43-.58.42-.45.21-.95,0-1.39.19l-1,.08c-.44.21-.94,0-1.38.18a19,19,0,0,1-3.29.33C288.35,255.05,287.76,254.76,287.24,255Z" transform="translate(-209.75 -71.62)"/><path class="cls-104" d="M276.2,238c-.45-.11-.93.1-1.47-.21,3.57-.38,7-.74,10.49-1.12,2.33-.25,4.65-.53,7-.76.68-.06.94-.56.65-.91s.5-1.61-1-1.51-3.09.78-4.66.12l.94-.06c.52-.24,1.11.06,1.63-.21l.69-.05c.44-.21.94,0,1.37-.18.7-.17,1.27-.27,1.09.82-.08.46.22,1,.28,1.47s.13.83-.5.79c-.43.22-.93,0-1.36.19l-1,.06c-.51.25-1.1,0-1.62.21a15.28,15.28,0,0,1-3.24.31c-.45.2-1,0-1.41.2a14.26,14.26,0,0,1-3.26.32c-.44.21-.94,0-1.38.19l-1,.07c-.44.21-.93,0-1.37.19Z" transform="translate(-209.75 -71.62)"/><path class="cls-102" d="M271,272.84a13.05,13.05,0,0,1-3.24.31c-.54.23-1.14-.06-1.67.22l-.65,0c-.46.2-1,0-1.41.2l-.94.06c-.85.33-.66-.44-.85-.8l0-.26h1.15c0,.44-.7.13-.52.58.11.29.44.15.68.13,3.68-.41,7.36-.81,11-1.24,3.46-.4,6.92-.86,10.39-1.23a3.92,3.92,0,0,1,2.5.18l-.69.05c-.52.24-1.11-.05-1.62.2l-.91.06c-.45.2-1,0-1.42.2l-.92.06c-.54.23-1.14-.06-1.66.21l-.67.05c-.44.2-1,0-1.4.19l-.94.07c-.53.23-1.12-.06-1.64.21a14,14,0,0,1-3,.3C272.07,272.88,271.49,272.58,271,272.84Z" transform="translate(-209.75 -71.62)"/><path class="cls-92" d="M278.62,262c-.26-.53.25-.84.37-1.26l5.59-.54c.78-.07,1.19.15.78,1-.6.67-1.45.42-2.18.5C281.67,261.86,280.17,262.34,278.62,262Z" transform="translate(-209.75 -71.62)"/><path class="cls-105" d="M278.62,262a44.9,44.9,0,0,1,6.74-.79c.6.45,1.21.13,1.83.08s1.28-.26,1.85.19c-.37.36-.91-.05-1.28.29l-.79,0c-.44.19-.93,0-1.37.19l-.7.05c-.52.24-1.11,0-1.64.2l-4.56.39C278.67,262.42,278.64,262.21,278.62,262Z" transform="translate(-209.75 -71.62)"/><path class="cls-106" d="M283.53,270.24l1.38.1v.12L274,271.58c-1.48.15-3,.36-4.43.5-.41,0-.87.14-1.22-.22l.92-.06c.53-.23,1.12.06,1.65-.2l.68-.06c.44-.2.94,0,1.38-.18l1-.07c.52-.24,1.11,0,1.63-.2a14.73,14.73,0,0,1,3-.32c.51-.24,1.09.05,1.6-.19Z" transform="translate(-209.75 -71.62)"/><path class="cls-107" d="M260.65,253.45a4.24,4.24,0,0,1,2.28-1.23,2.47,2.47,0,0,1-.65,1.14Z" transform="translate(-209.75 -71.62)"/><path class="cls-98" d="M295.77,264.11l1-.07c.32.1.78-.09.92.5A3.34,3.34,0,0,1,295.77,264.11Z" transform="translate(-209.75 -71.62)"/><path class="cls-108" d="M287.76,261.76c.38-.31.87-.12,1.28-.29l.51.06C289,262,288.36,261.67,287.76,261.76Z" transform="translate(-209.75 -71.62)"/><path class="cls-91" d="M288.79,236.67c.5-.42,1.08-.17,1.62-.21A3.43,3.43,0,0,1,288.79,236.67Z" transform="translate(-209.75 -71.62)"/><path class="cls-96" d="M262.21,272.87c.29.25.26.86.85.8a.91.91,0,0,1-.83.12Z" transform="translate(-209.75 -71.62)"/><path class="cls-96" d="M271,271.6c-.5.43-1.09.17-1.65.2A3.44,3.44,0,0,1,271,271.6Z" transform="translate(-209.75 -71.62)"/><path class="cls-96" d="M275.61,271.09c-.5.41-1.08.17-1.63.2A3.23,3.23,0,0,1,275.61,271.09Z" transform="translate(-209.75 -71.62)"/><path class="cls-91" d="M289.81,233.36c-.5.43-1.08.17-1.63.21A3.49,3.49,0,0,1,289.81,233.36Z" transform="translate(-209.75 -71.62)"/><path class="cls-109" d="M288.53,241.57a1.16,1.16,0,0,0,.54-1.13C289.22,241,289.7,241.66,288.53,241.57Z" transform="translate(-209.75 -71.62)"/><path class="cls-96" d="M280.25,270.58c-.49.4-1.06.17-1.6.19A3.13,3.13,0,0,1,280.25,270.58Z" transform="translate(-209.75 -71.62)"/><path class="cls-109" d="M274.3,242.9l1.66,0a4.81,4.81,0,0,1-1.64.26Z" transform="translate(-209.75 -71.62)"/><path class="cls-109" d="M287,253.78c-.42.39-.93.17-1.4.2A2.58,2.58,0,0,1,287,253.78Z" transform="translate(-209.75 -71.62)"/><path class="cls-109" d="M289.29,253.52c-.42.4-.93.17-1.4.2A2.79,2.79,0,0,1,289.29,253.52Z" transform="translate(-209.75 -71.62)"/><path class="cls-109" d="M291.62,253.27c-.42.38-.92.17-1.38.19A2.5,2.5,0,0,1,291.62,253.27Z" transform="translate(-209.75 -71.62)"/><path class="cls-109" d="M293.94,253c-.42.37-.91.16-1.38.18A2.83,2.83,0,0,1,293.94,253Z" transform="translate(-209.75 -71.62)"/><path class="cls-91" d="M291.38,236.4c.41-.37.9-.17,1.36-.19A2.75,2.75,0,0,1,291.38,236.4Z" transform="translate(-209.75 -71.62)"/><path class="cls-109" d="M275.08,241.66c-.41.36-.9.16-1.35.18A2.5,2.5,0,0,1,275.08,241.66Z" transform="translate(-209.75 -71.62)"/><path class="cls-109" d="M284.64,240.61c-.42.38-.92.17-1.39.19A2.87,2.87,0,0,1,284.64,240.61Z" transform="translate(-209.75 -71.62)"/><path class="cls-109" d="M279.24,242.6c.42-.38.92-.17,1.39-.19A2.56,2.56,0,0,1,279.24,242.6Z" transform="translate(-209.75 -71.62)"/><path class="cls-96" d="M273,271.36c-.42.37-.91.17-1.38.18A2.71,2.71,0,0,1,273,271.36Z" transform="translate(-209.75 -71.62)"/><path class="cls-108" d="M294.2,261c-.42.38-.93.17-1.4.19A2.58,2.58,0,0,1,294.2,261Z" transform="translate(-209.75 -71.62)"/><path class="cls-110" d="M272.27,249.66a.43.43,0,1,1-.23-.27Z" transform="translate(-209.75 -71.62)"/><path class="cls-109" d="M282.32,240.87c-.42.38-.92.17-1.39.19A2.54,2.54,0,0,1,282.32,240.87Z" transform="translate(-209.75 -71.62)"/><path class="cls-108" d="M296.52,260.76c-.41.38-.91.18-1.37.19A2.57,2.57,0,0,1,296.52,260.76Z" transform="translate(-209.75 -71.62)"/><path class="cls-108" d="M291.88,261.28c-.42.38-.93.17-1.4.19A2.41,2.41,0,0,1,291.88,261.28Z" transform="translate(-209.75 -71.62)"/><path class="cls-91" d="M291.87,233.13c-.41.37-.9.16-1.37.18A2.79,2.79,0,0,1,291.87,233.13Z" transform="translate(-209.75 -71.62)"/><path class="cls-91" d="M284.14,237.18c.43-.39.94-.17,1.41-.19A2.61,2.61,0,0,1,284.14,237.18Z" transform="translate(-209.75 -71.62)"/><path class="cls-109" d="M292.15,254.48c.42-.37.91-.17,1.38-.18l-.18.18Z" transform="translate(-209.75 -71.62)"/><path class="cls-111" d="M297.84,280.89l.72,0a.56.56,0,0,1,.23.07c.12.1.08.19-.07.2C298.41,281.13,298.07,281.21,297.84,280.89Z" transform="translate(-209.75 -71.62)"/><path class="cls-91" d="M279.5,237.69c.42-.38.91-.17,1.38-.19A2.62,2.62,0,0,1,279.5,237.69Z" transform="translate(-209.75 -71.62)"/><path class="cls-91" d="M277.17,238c.41-.38.91-.17,1.37-.19A2.68,2.68,0,0,1,277.17,238Z" transform="translate(-209.75 -71.62)"/><path class="cls-109" d="M294.48,254.22c.42-.38.92-.16,1.39-.19A2.89,2.89,0,0,1,294.48,254.22Z" transform="translate(-209.75 -71.62)"/><path class="cls-109" d="M287,240.36c-.42.37-.91.16-1.37.19A2.47,2.47,0,0,1,287,240.36Z" transform="translate(-209.75 -71.62)"/><path class="cls-2" d="M288.62,190.92c-2.33-1.2-4.09-2.86-4.53-5.58-.19-1.84,0-2.09,1.77-2l5.24.31a1.57,1.57,0,0,1,.43.15,1.8,1.8,0,0,1,.67,1c.51,1.62,1,3.26,1.47,4.88a1.49,1.49,0,0,1,0,1.24.61.61,0,0,0-.09.18A5.22,5.22,0,0,1,288.62,190.92Z" transform="translate(-209.75 -71.62)"/><path class="cls-112" d="M293.69,191l-2.05-7,.17-.16a30,30,0,0,1,6.19-.72,1.32,1.32,0,0,1,1.07.32A7.19,7.19,0,0,1,293.69,191Z" transform="translate(-209.75 -71.62)"/><path class="cls-26" d="M313.23,184.68a9.85,9.85,0,0,1-.7.74q-4,3.51-8.08,7-5.18,4.46-10.37,8.89c-.65.56-1.31,1.11-1.94,1.69-.34.31-.61.42-1,0s-.05-.64.24-.89l8.84-7.7c3.45-3,6.91-5.92,10.37-8.89.52-.44,1-.89,1.58-1.32S312.93,184.32,313.23,184.68Z" transform="translate(-209.75 -71.62)"/><path class="cls-26" d="M311.68,182.83a1.39,1.39,0,0,1-.66,1q-4.06,3.56-8.17,7.07c-3.41,2.94-6.84,5.87-10.25,8.8l-1.85,1.59c-.29.25-.52.62-.94.15s-.13-.69.18-1c1.7-1.51,3.4-3,5.12-4.5l10.35-8.89,5-4.25c.22-.18.41-.47.77-.27Z" transform="translate(-209.75 -71.62)"/><path class="cls-2" d="M291.64,184l-.27,0a4.59,4.59,0,0,1-1.85-1.55c-.78-1-1.66-1.85-2.52-2.75-.33-.35-.86-.65-.57-1.29l.78-.62a1.71,1.71,0,0,0,2.2,1.28c1.3-.34,1.23-1.46,1.17-2.52a.2.2,0,0,1,.28,0,1.05,1.05,0,0,1,.51.69,1.9,1.9,0,0,0,1.77,1.57,1.87,1.87,0,0,0,1.85-1.46l.79.51a.66.66,0,0,1-.08.61,47.8,47.8,0,0,1-4.08,5.61Z" transform="translate(-209.75 -71.62)"/><path class="cls-2" d="M291.62,184c1.14-2.23,2.84-4.1,4.16-6.22a6.81,6.81,0,0,1,3.29,5.66Z" transform="translate(-209.75 -71.62)"/><path class="cls-2" d="M286.43,178.37c.95,1.63,2.57,2.66,3.65,4.18a15.62,15.62,0,0,0,1.29,1.41,28.18,28.18,0,0,1-5.51-.22c-1.25-.16-2,.15-1.77,1.6A7,7,0,0,1,286.43,178.37Z" transform="translate(-209.75 -71.62)"/><path class="cls-113" d="M283.06,168.51l.55,1.25c-2.41,1.71-4.52,3.8-6.79,5.69-1.75,1.44-3.46,2.94-5.19,4.42-.29.26-.54.58-.94.11s-.08-.7.21-1l6.12-5.31Z" transform="translate(-209.75 -71.62)"/><path class="cls-15" d="M295.07,206.93a.7.7,0,0,1-.67-.42c-.22-.37.15-.54.35-.72q2.5-2.22,5-4.41c1-.87,2-1.72,3-2.6.31-.27.56-.33.87,0s.3.52-.06.82c-2.74,2.34-5.46,4.71-8.19,7.07A4.4,4.4,0,0,1,295.07,206.93Z" transform="translate(-209.75 -71.62)"/><path class="cls-26" d="M303.7,205.28a6.41,6.41,0,0,1-.53.59c-1.6,1.36-3.21,2.71-4.8,4.08-.32.27-.58.48-1,.08s-.16-.62.17-.9c1.59-1.37,3.17-2.76,4.74-4.15.27-.23.55-.46.91-.19A4.5,4.5,0,0,1,303.7,205.28Z" transform="translate(-209.75 -71.62)"/><path class="cls-26" d="M280,178.79a3.42,3.42,0,0,0-.47.27c-1.65,1.42-3.31,2.84-4.94,4.28-.35.3-.58.42-.92,0s-.19-.6.18-.9c1.61-1.35,3.17-2.74,4.76-4.1.21-.18.38-.57.73-.34A4.09,4.09,0,0,1,280,178.79Z" transform="translate(-209.75 -71.62)"/><path class="cls-26" d="M296.43,208.73c-.4-.33-.94-.6-.44-1.06,1.69-1.56,3.44-3.08,5.17-4.6.38-.34.62,0,.84.25s0,.63-.23.85c-1.44,1.21-2.89,2.41-4.32,3.62C297.1,208.09,296.77,208.42,296.43,208.73Z" transform="translate(-209.75 -71.62)"/><path class="cls-26" d="M281.25,180.06c.06.43-.21.54-.4.7q-2.37,2.07-4.73,4.15c-.33.29-.59.45-1,.05s-.12-.62.2-.89c1.59-1.37,3.16-2.76,4.74-4.15.23-.2.47-.42.79-.24A2.13,2.13,0,0,1,281.25,180.06Z" transform="translate(-209.75 -71.62)"/><path class="cls-114" d="M288.62,190.92a8.8,8.8,0,0,0,5,.26c.13,0,.44.13.32.23-.77.64-4.59.41-5.43-.29,0,0,0-.08,0-.12S288.59,191,288.62,190.92Z" transform="translate(-209.75 -71.62)"/><path class="cls-115" d="M371.49,251.86c-.62.77-1.21,1.56-1.88,2.28-.18.19-.44-.17-.63-.31q-13.43-9.92-26.85-19.83c-.51-.38-.52-.6-.16-1.1,1.49-2.06,1.47-2.07,3.47-.59l25.18,18.63C370.94,251.18,371.39,251.33,371.49,251.86Z" transform="translate(-209.75 -71.62)"/><path class="cls-26" d="M333.73,244.71c-.3-.14-.54-.29-.25-.67q2.82-3.67,5.61-7.38c.26-.33.47-.38.84-.1q3.13,2.37,6.31,4.68c.48.35.44.63.11,1q-2.72,3.53-5.39,7.07c-.31.41-.54.57-.8,0s-.05-1.36-.34-2a22.13,22.13,0,0,1,1.43-2.14,5,5,0,0,0,.26-.64,3.91,3.91,0,0,1,.38-.8c.49-.63,1.17-1.16,1-2.12a2.29,2.29,0,0,0-3.54-1.39,5.77,5.77,0,0,0-1.53,1.73c-.63.76-.62,1.88-1.43,2.53A6.59,6.59,0,0,0,333.73,244.71Z" transform="translate(-209.75 -71.62)"/><path class="cls-26" d="M360.19,259a4.35,4.35,0,0,1-.59.74c-.37.29-.64-.07-.89-.26-3-2.21-6-4.43-9-6.65-1.38-1-2.74-2.06-4.14-3.05-.51-.36-.53-.63-.18-1.14s.65-.42,1.1-.08c4.33,3.24,8.68,6.44,13,9.66C359.75,258.39,360.16,258.45,360.19,259Z" transform="translate(-209.75 -71.62)"/><path class="cls-26" d="M358.42,261.24a4.18,4.18,0,0,1-.57.76c-.44.39-.71-.14-1-.32-2.81-2.05-5.59-4.13-8.38-6.19l-4.56-3.36c-.35-.27-.87-.48-.39-1.1s.7-.57,1.24-.16q6.56,4.88,13.14,9.71A.94.94,0,0,1,358.42,261.24Z" transform="translate(-209.75 -71.62)"/><path class="cls-26" d="M347.6,245.93a9.33,9.33,0,0,1,.84.5l12.84,9.48c.47.35.73.66.32,1.26s-.88.2-1.25-.07q-6.54-4.8-13.05-9.63c-.22-.17-.64-.31-.46-.67A4.6,4.6,0,0,1,347.6,245.93Z" transform="translate(-209.75 -71.62)"/><path class="cls-26" d="M349.45,243.66c.25.16.5.32.74.5q6.46,4.78,12.94,9.55c.49.36.6.63.26,1.14s-.77.37-1.18.07L349,245.12c-.22-.16-.62-.29-.35-.68S349,243.74,349.45,243.66Z" transform="translate(-209.75 -71.62)"/><path class="cls-116" d="M333,241.37c-7.62,0-15.23,0-22.84,0-.89,0-1-.37-.86-1.1a1.44,1.44,0,0,1,1.1-.26q11,0,21.94,0c.41,0,1-.25,1.15.47Z" transform="translate(-209.75 -71.62)"/><path class="cls-15" d="M331.15,243.45l-20.24,0h-1c-.38,0-.69-.09-.65-.57s.33-.45.65-.45h20.75c.45,0,1-.17,1.33.26Z" transform="translate(-209.75 -71.62)"/><path class="cls-15" d="M338.34,234.05a13.23,13.23,0,0,0-1.53-.16H322.49c-.44,0-1,.24-.93-.59s.38-.76.92-.76l17.15.06A6.13,6.13,0,0,1,338.34,234.05Z" transform="translate(-209.75 -71.62)"/><path class="cls-26" d="M328.31,247.31l-17.52,0h-1a.48.48,0,0,1-.53-.57c0-.32.24-.43.52-.44h19.33A2.11,2.11,0,0,1,328.31,247.31Z" transform="translate(-209.75 -71.62)"/><path class="cls-45" d="M336.05,236.94c-.36-.34-.81-.21-1.23-.21H322.46c-.37,0-.88.3-.9-.48s.32-.86.94-.86c2.41,0,4.81,0,7.22,0,2.14,0,4.29,0,6.43,0,.41,0,.88-.17,1.19.26C336.89,236.07,336.67,236.7,336.05,236.94Z" transform="translate(-209.75 -71.62)"/><path class="cls-117" d="M329.86,245.27l-19,0h-1c-.31,0-.65,0-.6-.46s.33-.34.59-.35.43,0,.65,0c6.19,0,12.38,0,18.57,0,.45,0,1-.19,1.32.27Z" transform="translate(-209.75 -71.62)"/><path class="cls-118" d="M339.93,247.29c.73.61.36,1.35.23,2.06a47.28,47.28,0,0,1-6.43-4.64c.78-1.07,1.69-.62,2.6-.23a.94.94,0,0,1,1,.35,1.48,1.48,0,0,1,.31,1.42,1.38,1.38,0,0,1,1.27-.23,1.26,1.26,0,0,1,.6.35A1.91,1.91,0,0,1,339.93,247.29Z" transform="translate(-209.75 -71.62)"/><path class="cls-119" d="M333.45,240.54c-.35-.36-.81-.22-1.22-.22h-23l-.06-.19c.21-.32.54-.19.82-.19h23c.25,0,.52-.05.73.16a.91.91,0,0,0,0,.23Z" transform="translate(-209.75 -71.62)"/><path class="cls-120" d="M332.43,241.86H309.51v-.23h23.18Z" transform="translate(-209.75 -71.62)"/><path class="cls-121" d="M344.3,220.19v3.05a.72.72,0,0,1-.47.14q-17.07,0-34.13,0a.71.71,0,0,1-.47-.14l0-3c.18-.1.3-.06.36.13a3.91,3.91,0,0,1,0,1.07c0,.12.28,0,.11,0s0,0,0-.08c-.12-.81.23-1.21,1.05-1.23.51,0,1,0,1.54,0,10.56,0,21.12,0,31.68,0A.71.71,0,0,1,344.3,220.19Z" transform="translate(-209.75 -71.62)"/><path class="cls-26" d="M309.61,237c-.55-.22-.4-.7-.41-1.11,0-2.66,0-5.32,0-8,0-.87.3-1.1,1.12-1.08,2.36,0,4.72,0,7.08,0,.51,0,1.11-.1,1.08.71-.1,3.08.26,6.17-.24,9.24a.7.7,0,0,1-.14.21.31.31,0,0,1-.28-.18,2.74,2.74,0,0,1-.16-.7,1.4,1.4,0,0,0-1.06-1.15c-.39-.15-.89-.24-.64-.87a5,5,0,0,0,0-2.51,4.6,4.6,0,0,0-.52-1.3,1.5,1.5,0,0,0-2.63,0,4,4,0,0,0-.77,3.49c.22.66-.13,1-.68,1.14s-1,.29-1.23.82c-.11.35-.08.72-.22,1.06A.4.4,0,0,1,309.61,237Z" transform="translate(-209.75 -71.62)"/><path class="cls-121" d="M330.63,226.84h8c.49,0,1.07-.15,1.05.7s-.61.67-1.08.67h-16c-.49,0-1.07.15-1.06-.7s.62-.67,1.09-.67Z" transform="translate(-209.75 -71.62)"/><path class="cls-122" d="M339.64,230c.17,1-.24,1.29-1.2,1.29-5.24,0-10.47,0-15.71,0-1,0-1.29-.39-1.14-1.29C327.61,229.77,333.62,229.78,339.64,230Z" transform="translate(-209.75 -71.62)"/><path class="cls-123" d="M344,223.24h.25l0,.27a1.81,1.81,0,0,1-1.12.13q-16.44,0-32.88,0a1.74,1.74,0,0,1-1.12-.14l0-.26h.24a2.09,2.09,0,0,1,1-.1H343A2,2,0,0,1,344,223.24Z" transform="translate(-209.75 -71.62)"/><path class="cls-124" d="M309.45,220.2l-.12,0-.13,0v-.29a2.08,2.08,0,0,1,1.13-.13h32.86a2.07,2.07,0,0,1,1.13.13v.28H344a2.07,2.07,0,0,1-.89.09H310.21A1.51,1.51,0,0,1,309.45,220.2Z" transform="translate(-209.75 -71.62)"/><path class="cls-125" d="M344.31,219.91H309.19c.38-.43.88-.25,1.33-.26H343C343.43,219.66,343.93,219.48,344.31,219.91Z" transform="translate(-209.75 -71.62)"/><path class="cls-126" d="M309.19,223.5h35.12c-.36.44-.87.26-1.32.26H310.51C310.07,223.77,309.56,224,309.19,223.5Z" transform="translate(-209.75 -71.62)"/><path class="cls-126" d="M333.72,240.09l-24.52,0c.23-.45.66-.33,1-.33h22.57C333.13,239.8,333.49,239.73,333.72,240.09Z" transform="translate(-209.75 -71.62)"/><ellipse class="cls-127" cx="120.9" cy="154.88" rx="12.35" ry="0.07"/><path class="cls-128" d="M339.32,228.65H321.93v-.12h17.44Z" transform="translate(-209.75 -71.62)"/><path class="cls-129" d="M339.64,230H321.59c.27-.41.69-.26,1.06-.26h15.93C339,229.72,339.37,229.57,339.64,230Z" transform="translate(-209.75 -71.62)"/><path class="cls-130" d="M318,237.22c.07.16,0,.25-.15.25h-7.57c-.18,0-.37-.16-.55-.25a1.08,1.08,0,0,1,.56-.29,68.21,68.21,0,0,1,7.15,0A1,1,0,0,1,318,237.22Z" transform="translate(-209.75 -71.62)"/><path class="cls-131" d="M318,237.22h-8.27a.44.44,0,0,0-.1-.19l.1-.07a1.32,1.32,0,0,1,.94-.34c2.13,0,4.25,0,6.38,0a1.36,1.36,0,0,1,.94.34.41.41,0,0,0,.11.07A.54.54,0,0,0,318,237.22Z" transform="translate(-209.75 -71.62)"/><path class="cls-111" d="M325.9,298.71c1.07,0,1.88.71,2.83,1,0,.26,0,.52,0,.78-.91.7-1.39-.15-2-.55Z" transform="translate(-209.75 -71.62)"/><path class="cls-132" d="M326.76,300c.71,0,1.22.74,2,.55,0,.43,0,.86,0,1.29a1.5,1.5,0,0,1-1.48-.53A2.79,2.79,0,0,1,326.76,300Z" transform="translate(-209.75 -71.62)"/><path class="cls-133" d="M332.43,290.6l1.54.64c-.53.45-1.29.63-1.61,1.39C332.2,291.93,331.86,291.26,332.43,290.6Z" transform="translate(-209.75 -71.62)"/><path class="cls-134" d="M328.84,296.11l0-7a3.51,3.51,0,0,1,.23,2.34C329,293,329.38,294.59,328.84,296.11Z" transform="translate(-209.75 -71.62)"/><path class="cls-135" d="M327.25,301.28l1.48.53,0,.78c-.34.62-.66.24-1,0Z" transform="translate(-209.75 -71.62)"/><path class="cls-136" d="M327.78,302.56c.33,0,.65.3,1,0,0,.43,0,.86,0,1.29-.16.09-.34,0-.51,0Z" transform="translate(-209.75 -71.62)"/><path class="cls-137" d="M332.2,297.49v-2.72h.17v2.72Z" transform="translate(-209.75 -71.62)"/><path class="cls-138" d="M332.42,299.23a2,2,0,0,1-.13,1.42,2.32,2.32,0,0,1-.1-1.46C332.28,299.1,332.36,299.11,332.42,299.23Z" transform="translate(-209.75 -71.62)"/><path class="cls-139" d="M328.24,303.9c.16-.27.34-.11.51,0s0,.38-.15.42S328.31,304.09,328.24,303.9Z" transform="translate(-209.75 -71.62)"/><path class="cls-140" d="M332.42,299.23l-.23,0a1.71,1.71,0,0,1,.12-1.16A1.8,1.8,0,0,1,332.42,299.23Z" transform="translate(-209.75 -71.62)"/><path class="cls-141" d="M290.86,176.47l-.28,0a4.62,4.62,0,0,1-1-2.74A5.1,5.1,0,0,1,290.86,176.47Z" transform="translate(-209.75 -71.62)"/><path class="cls-142" d="M314.09,267.36c-.72,1-1.31.94-2.37-.17l.28-.74a2.27,2.27,0,0,0,.17-1.87c-.12-.38-.21-.75.15-1.06,1.78-.86,2.48-.58,3.83,1.52C315.72,266.05,314.49,266.34,314.09,267.36Z" transform="translate(-209.75 -71.62)"/><path class="cls-143" d="M316.15,265c-.22,0-.48.25-.64-.15-.65-1.64-1.12-1.82-2.89-1.18-.07,0-.2-.12-.3-.19.65-2.57,2.14-3.1,4-1.6C317.37,262.79,317.35,263.82,316.15,265Z" transform="translate(-209.75 -71.62)"/><path class="cls-144" d="M265.27,267.35l-3.08.38c-.35-.49-.56-.94.31-1.08A4.37,4.37,0,0,1,265.27,267.35Z" transform="translate(-209.75 -71.62)"/><path class="cls-145" d="M275.69,296.42c.44.26.57.73.79,1.14q4,7,7.9,14.06c.19.61-.33.69-.67.88l-4,2.21a.54.54,0,0,1-.5.27c-.93.48-1.86,1-2.8,1.43-.32.15-.6.51-1,.28L267,301.55c0-.6.5-.63.84-.81C270.46,299.29,273.08,297.86,275.69,296.42Z" transform="translate(-209.75 -71.62)"/><path class="cls-146" d="M272.55,296.94l-3.69,2A4.59,4.59,0,0,1,272.55,296.94Z" transform="translate(-209.75 -71.62)"/><path class="cls-147" d="M280,315a1,1,0,0,1,1.37,0,.9.9,0,0,1,.18,1c-.24.59-.77.55-1.29.5C279.28,316.16,279.33,315.61,280,315Z" transform="translate(-209.75 -71.62)"/><path class="cls-148" d="M280,315c-.36.6-.42,1.15.26,1.57-.63.49-.71-.15-.85-.47a4.69,4.69,0,0,1-.18-1.08l.5-.27Z" transform="translate(-209.75 -71.62)"/><path class="cls-149" d="M248.28,236.38c-.71,0-1.44.28-2.12-.16a4.65,4.65,0,0,0-.87-4.73c-.91-1-2.07-1.75-3-2.78a1.31,1.31,0,0,1,.48-1.06l8.38,3.94c.42.19.8.35,1.16-.08a1.48,1.48,0,0,1-.48,1.32c-2.11-.64-4-1.86-5.87-2.56C247.79,231.79,248.09,234.07,248.28,236.38Z" transform="translate(-209.75 -71.62)"/><path class="cls-150" d="M357.8,196.09a9,9,0,0,1-4.72-2,1.16,1.16,0,0,1,1-.8A10.89,10.89,0,0,1,357.8,196.09Z" transform="translate(-209.75 -71.62)"/><path class="cls-151" d="M350.78,195.15l-.56-.51,1.13-1.84c.35-.51.7-1,1.06-1.54l1.21-1.81,1.36-1.89c.27-.1.56-.33.82-.07s-.07.54-.21.75C354,190.55,352.39,192.85,350.78,195.15Z" transform="translate(-209.75 -71.62)"/><path class="cls-152" d="M352.07,186.88l.77-.31a2.28,2.28,0,0,1,1.7.68c.06.07,0,.36-.15.43-.72.44-1.26-.18-1.88-.37C352.34,187.25,352.22,187,352.07,186.88Z" transform="translate(-209.75 -71.62)"/><path class="cls-2" d="M250.83,203.12c.57.41,1.13.13,1.71,0,2.72-.51,5.43-1.07,8.16-1.44,1.6-.22,3.17-.62,4.76-.86a2,2,0,0,1,1.36.2c-.82.8-1.93.55-2.9.74-3.75.73-7.53,1.35-11.31,2a23.51,23.51,0,0,1-2.52.16C250.32,203.63,250.46,203.27,250.83,203.12Z" transform="translate(-209.75 -71.62)"/><path class="cls-14" d="M242.32,228.71a7.55,7.55,0,0,1,4.58,6.92c0,.59-.32.61-.74.59-2.1-.59-3.32-2.14-4.34-3.93A11.15,11.15,0,0,1,242.32,228.71Z" transform="translate(-209.75 -71.62)"/><path class="cls-14" d="M231.45,227.65a7.26,7.26,0,0,1-1.6-1.53,4.2,4.2,0,0,1,3.79-1.56,12.05,12.05,0,0,1,4.26,1.35c.37.17.82.39.53,1a10.32,10.32,0,0,1-2.59,1.59A7.05,7.05,0,0,1,231.45,227.65Z" transform="translate(-209.75 -71.62)"/><path class="cls-14" d="M234.73,219.18l1.89.93a8.37,8.37,0,0,1,2.67,2.66,2.94,2.94,0,0,1,.41,2.54.93.93,0,0,1-.94-.26c-2.24-1.69-4.47-3.4-6.64-5.18-.21-.18-.52-.34-.38-.72C232.74,218.51,233.74,219,234.73,219.18Z" transform="translate(-209.75 -71.62)"/><path class="cls-153" d="M238.43,226.87c-.21-.83-1-.74-1.6-1a6.45,6.45,0,0,0-7,.28h-.24c-.14-.37-.29-.73-.44-1.1a8,8,0,0,1,6.64-.73c1.05.35,2,1.07,3.13,1.08a.75.75,0,0,1,.54.24A2.08,2.08,0,0,1,238.43,226.87Z" transform="translate(-209.75 -71.62)"/><path class="cls-149" d="M239.48,225.6h-.55a1.55,1.55,0,0,1-1.17-.43c-2.07-1.6-4.13-3.23-6.18-4.86a1,1,0,0,1-.4-.64.8.8,0,0,1,.56-.51c2.59,2.13,5.21,4.22,8,6.16Z" transform="translate(-209.75 -71.62)"/><path class="cls-14" d="M242.32,226.5c0,.23,0,.53-.3.61a3.46,3.46,0,0,1-1.5-1.22c0-.32.32-.38.56-.41A1.21,1.21,0,0,1,242.32,226.5Z" transform="translate(-209.75 -71.62)"/><path class="cls-154" d="M258.07,193.77l.26.26c-.31.36-.59.73-.92,1.06q-7.17,7.2-14.36,14.37c-.34.33-.71.61-1.07.92l-.27-.25.33-.3a7.62,7.62,0,0,1,1.3-1.42q6.82-6.85,13.68-13.69A5.28,5.28,0,0,1,258.07,193.77Z" transform="translate(-209.75 -71.62)"/><path class="cls-155" d="M258.07,193.77c-.28.33-.53.68-.83,1L243,209c-.3.3-.64.56-1,.84-.16-.59.4-.76.68-1.05,4.71-4.74,9.45-9.47,14.17-14.2.33-.33.62-.71.92-1.06Z" transform="translate(-209.75 -71.62)"/><path class="cls-14" d="M250.84,199.23A43.2,43.2,0,0,1,255,195c.18-.18.36-.22.49.07-1.2,1.16-2.38,2.34-3.59,3.48C251.58,198.85,251.37,199.3,250.84,199.23Z" transform="translate(-209.75 -71.62)"/><path class="cls-2" d="M257.4,201.56l.21-.22c2-.75,4.22-.81,6.32-1.25.32-.07.33.16.36.37Z" transform="translate(-209.75 -71.62)"/><path class="cls-14" d="M231.18,219.66l7.75,5.93c-.22.47-.53.17-.74,0a10.3,10.3,0,0,0-9-.62C228.49,222.72,229.7,221.14,231.18,219.66Z" transform="translate(-209.75 -71.62)"/><path class="cls-14" d="M248.28,236.38a3.59,3.59,0,0,1-.52-1.7,7.31,7.31,0,0,0-2.78-5.1c2.32,1.08,4.78,1.78,6.88,3.25a6.88,6.88,0,0,1-2.33,3.14Z" transform="translate(-209.75 -71.62)"/><path class="cls-156" d="M328,321.93l-.12,0h-.12c0-3.11,0-3.11,3-3.11h12.45c0,1,0,2.08,0,3.12h-.13l-.12,0a18,18,0,0,0-3.59-.11c-3.27,0-6.54,0-9.81,0a2,2,0,0,1-1.29-.19c.46-.69,1.14-.58,1.74-.58,3.53,0,7.06,0,10.59,0,.67,0,1.82.42,1.8-.78s-1.12-.68-1.76-.69c-3.31,0-6.62,0-9.94,0-2,0-2,0-2.5,1.82A1.55,1.55,0,0,1,328,321.93Z" transform="translate(-209.75 -71.62)"/><path class="cls-157" d="M328,321.93c0-2.82,0-2.82,2.84-2.82,3.65,0,7.3,0,10.95,0,.85,0,1.22.18,1.22,1.13s-.31,1.24-1.26,1.23c-4,0-8,0-12,0a2.27,2.27,0,0,0-1.47.25h7.54c2,0,3.95,0,5.93,0,.41,0,.87-.14,1.21.23Z" transform="translate(-209.75 -71.62)"/><path class="cls-158" d="M276.82,254.84c-1.63-1.07-2.43-1.22-6.07-1.11,2.11-1.34,4.19-2.25,6.67-1.54a1.55,1.55,0,0,1,.87.68,6.48,6.48,0,0,0,1.67,1.59A3.1,3.1,0,0,1,276.82,254.84Z" transform="translate(-209.75 -71.62)"/><path class="cls-109" d="M276.82,254.84l3.14-.38.3.07c1.48.72,2.94,0,4.4-.09,1.91-.09,3.8-.52,5.71-.67,1.4-.11,2.8-.26,4.19-.5a1.35,1.35,0,0,1,1.3.27c-6.16.69-12.27,1.66-18.46,2A1.16,1.16,0,0,1,276.82,254.84Z" transform="translate(-209.75 -71.62)"/><path class="cls-159" d="M261.93,249.61c-.6-.79-1-1.61-.42-2.58s2.36-1.39,3.92-1c.9.22,1.11,1,1.13,1.77-.27.27-.41.82-1,.48a2.5,2.5,0,0,0-3,.42c-.1.33-.08.73-.45.94Z" transform="translate(-209.75 -71.62)"/><path class="cls-93" d="M269.23,261a1.85,1.85,0,0,1-.49-1.09c1.52-.84,3.23-.67,4.87-.83,1-.1,2-.62,3,.05l0,1s0,.09-.07.1A19.26,19.26,0,0,1,269.23,261Z" transform="translate(-209.75 -71.62)"/><path class="cls-160" d="M262.22,248.57c.08-.86.86-.63,1.34-.84s1,0,1.58-.19.23.53.44.75a14,14,0,0,1-1.88,2.63,1.27,1.27,0,0,1-1.45-1A2.68,2.68,0,0,0,262.22,248.57Z" transform="translate(-209.75 -71.62)"/><path class="cls-161" d="M276.91,261c.6,1.07-.65.81-.91,1.26a13,13,0,0,1-5.72.56l-.39-1a.87.87,0,0,1,.62-.4,42.43,42.43,0,0,1,5.95-.63A.74.74,0,0,1,276.91,261Z" transform="translate(-209.75 -71.62)"/><path class="cls-105" d="M276.6,259.13l-7.86.78c.15-.32.31-.65.47-1a14.24,14.24,0,0,1,6.47-.77C276,258.44,276.68,258.44,276.6,259.13Z" transform="translate(-209.75 -71.62)"/><path class="cls-4" d="M276.91,261l-7,.81-.66-.81,7.42-.87C276.74,260.42,276.82,260.71,276.91,261Z" transform="translate(-209.75 -71.62)"/><path class="cls-162" d="M275.68,258.17a58.55,58.55,0,0,1-6.47.77c.22-.44.38-.92.91-1.09a10.48,10.48,0,0,1,4.68-.52Z" transform="translate(-209.75 -71.62)"/><path class="cls-163" d="M270.28,262.82a36.58,36.58,0,0,1,5.72-.56l-.93.83a2.08,2.08,0,0,1-1.83.23c-.73,0-1.45-.05-2.18,0C270.68,263.3,270.38,263.25,270.28,262.82Z" transform="translate(-209.75 -71.62)"/><path class="cls-109" d="M274,242.16a33.16,33.16,0,0,1,4.23-.3c0,.18.66.45-.05.51-1.3.12-2.6.2-3.9.29Z" transform="translate(-209.75 -71.62)"/><path class="cls-164" d="M274.8,257.33l-4.68.52c1.24-1.14,2.87-.56,4.27-1C274.48,256.87,274.66,257.18,274.8,257.33Z" transform="translate(-209.75 -71.62)"/><path class="cls-165" d="M262.45,249.86a2.87,2.87,0,0,0,1.25,1.06c-.08.17-.17.34-.26.51-1.27-.31-1.63-.75-1.51-1.82h0C262.06,249.76,262.32,249.68,262.45,249.86Z" transform="translate(-209.75 -71.62)"/><path class="cls-166" d="M271.48,246c.37.42.87.15,1.31.23l-2.67,1.32A3.06,3.06,0,0,1,271.48,246Z" transform="translate(-209.75 -71.62)"/><path class="cls-167" d="M273.24,263.32l1.83-.23C274.58,264.18,273.9,263.66,273.24,263.32Z" transform="translate(-209.75 -71.62)"/><path class="cls-109" d="M277.64,255.83h1.69l-1.41.27Z" transform="translate(-209.75 -71.62)"/><path class="cls-96" d="M266.06,273.37c.51-.45,1.11-.18,1.67-.22A3.29,3.29,0,0,1,266.06,273.37Z" transform="translate(-209.75 -71.62)"/><path class="cls-96" d="M271,272.84c.5-.43,1.08-.17,1.62-.21A3.21,3.21,0,0,1,271,272.84Z" transform="translate(-209.75 -71.62)"/><path class="cls-96" d="M275.62,272.33c.5-.44,1.09-.18,1.64-.21A3.28,3.28,0,0,1,275.62,272.33Z" transform="translate(-209.75 -71.62)"/><path class="cls-96" d="M280.27,271.81c.5-.44,1.1-.17,1.66-.21A3.26,3.26,0,0,1,280.27,271.81Z" transform="translate(-209.75 -71.62)"/><path class="cls-96" d="M285.18,271.28c.49-.41,1.07-.17,1.62-.2A3.21,3.21,0,0,1,285.18,271.28Z" transform="translate(-209.75 -71.62)"/><path class="cls-96" d="M282.85,271.54c.43-.4.94-.17,1.42-.2A2.48,2.48,0,0,1,282.85,271.54Z" transform="translate(-209.75 -71.62)"/><path class="cls-96" d="M278.2,272.05c.42-.38.93-.17,1.4-.19A2.58,2.58,0,0,1,278.2,272.05Z" transform="translate(-209.75 -71.62)"/><path class="cls-96" d="M264,273.61c.42-.4.93-.18,1.4-.2A2.68,2.68,0,0,1,264,273.61Z" transform="translate(-209.75 -71.62)"/><path class="cls-4" d="M295.25,263c.48-.43,1.06-.17,1.6-.21A2.84,2.84,0,0,1,295.25,263Z" transform="translate(-209.75 -71.62)"/><path class="cls-4" d="M295.51,262.28c.55-.37,1.28-.07,1.81-.5C296.92,262.7,296.11,262.1,295.51,262.28Z" transform="translate(-209.75 -71.62)"/><path class="cls-108" d="M282.59,263.54v-.23h0l1.65,0A3.7,3.7,0,0,1,282.59,263.54Z" transform="translate(-209.75 -71.62)"/><path class="cls-108" d="M280.27,263.79c.42-.39.93-.17,1.41-.19A2.45,2.45,0,0,1,280.27,263.79Z" transform="translate(-209.75 -71.62)"/><path class="cls-108" d="M285.18,263.27c.41-.38.9-.18,1.37-.19A2.68,2.68,0,0,1,285.18,263.27Z" transform="translate(-209.75 -71.62)"/><path class="cls-108" d="M287.5,263c.42-.38.92-.17,1.39-.19A2.54,2.54,0,0,1,287.5,263Z" transform="translate(-209.75 -71.62)"/><path class="cls-108" d="M292.15,262.5c.42-.39.93-.18,1.41-.2A2.53,2.53,0,0,1,292.15,262.5Z" transform="translate(-209.75 -71.62)"/><path class="cls-109" d="M287.24,255c.5-.42,1.08-.16,1.62-.2A3.43,3.43,0,0,1,287.24,255Z" transform="translate(-209.75 -71.62)"/><path class="cls-109" d="M282.6,255.52c.42-.39.92-.17,1.4-.19A2.59,2.59,0,0,1,282.6,255.52Z" transform="translate(-209.75 -71.62)"/><path class="cls-108" d="M282.59,263.31a16.63,16.63,0,0,0-3.92.28l0-.46,18.11-2,.05.35a14.71,14.71,0,0,1-3.74.49c-3.38.45-6.77.75-10.16,1.11-.11,0-.2.14-.3.22Z" transform="translate(-209.75 -71.62)"/><path class="cls-108" d="M283.26,262.24a3.54,3.54,0,0,1,1.64-.2C284.4,262.47,283.81,262.21,283.26,262.24Z" transform="translate(-209.75 -71.62)"/><path class="cls-108" d="M285.6,262a2.68,2.68,0,0,1,1.37-.19C286.55,262.17,286.07,262,285.6,262Z" transform="translate(-209.75 -71.62)"/><path class="cls-109" d="M283,241.33c2.08-.64,3.86-.33,5.62-.46C286.93,241.32,285.21,241.9,283,241.33Z" transform="translate(-209.75 -71.62)"/><path class="cls-109" d="M277.92,241.62c2,.16,3.57-.75,5.18.11C281.46,241.71,279.85,242.59,277.92,241.62Z" transform="translate(-209.75 -71.62)"/><path class="cls-109" d="M272.54,242.66c-.28-.1-.57.27-.88,0,.33-.43.61-.23.88,0Z" transform="translate(-209.75 -71.62)"/><path class="cls-168" d="M337.61,241.87a4.2,4.2,0,0,1,2.06-2.21,2.71,2.71,0,0,1,3.26,1.12c.67,1.14.37,2.16-.91,3.21a.36.36,0,0,1-.35,0c-.39-.57-.19-1.23-.28-1.85-.14-1-.45-1.15-1.32-.65-.66.37-1.06,1.12-1.86,1.27A.8.8,0,0,1,337.61,241.87Z" transform="translate(-209.75 -71.62)"/><path class="cls-169" d="M337.61,241.87l.51.78a4.81,4.81,0,0,1,.09,1.56c-.26.41-.49.88-1.12.71-.25-.15-.5-.3-.76-.44A11.3,11.3,0,0,1,337.61,241.87Z" transform="translate(-209.75 -71.62)"/><path class="cls-170" d="M339.93,247.29a1.1,1.1,0,0,1-.55-.68c.05-1.06.5-1.46,1.81-1.6a.65.65,0,0,1,.32.24A5.73,5.73,0,0,1,339.93,247.29Z" transform="translate(-209.75 -71.62)"/><path class="cls-171" d="M341.76,243.88l.25.11c-.08.2-.17.4-.26.61-.23.43-.58.36-.95.23C340.53,243.92,341.2,244,341.76,243.88Z" transform="translate(-209.75 -71.62)"/><path class="cls-170" d="M340.7,244.7c.35,0,.72.13,1.05-.1a.59.59,0,0,1-.24.65l-.09-.06c-.3-.23-.71,0-1-.21C340.38,244.76,340.46,244.64,340.7,244.7Z" transform="translate(-209.75 -71.62)"/><path class="cls-172" d="M337.09,244.92a2.18,2.18,0,0,0,1-.76,1.71,1.71,0,0,1,1.12.77,2.17,2.17,0,0,1-.34,1.31C337.77,246.49,337.24,246,337.09,244.92Z" transform="translate(-209.75 -71.62)"/><path class="cls-173" d="M338.88,246.24a1.18,1.18,0,0,1,.32-1.25.82.82,0,0,1,1.23,0c.33.07.73-.13,1,.23a2.09,2.09,0,0,0-2,1.42C339.21,246.49,339,246.37,338.88,246.24Z" transform="translate(-209.75 -71.62)"/><path class="cls-174" d="M309.45,220.2H344c-.45.4-1,.21-1.48.21q-15.22,0-30.45,0c-2.22,0-2.22,0-2.66,2.07Z" transform="translate(-209.75 -71.62)"/><path class="cls-175" d="M344,223.24H309.46c.4-.4.9-.23,1.35-.23h31.88C343.15,223,343.65,222.84,344,223.24Z" transform="translate(-209.75 -71.62)"/><path class="cls-176" d="M316.15,234.37c-.08.54.38.3.58.34.8.19,1.29.59,1.21,1.48-.11.52-.43.65-.93.64-2.11,0-4.22-.06-6.32,0-1,0-.79-.65-.93-1.17.09-1,.89-.9,1.53-1.06.4-.11.72-.1.42-.72-.49-1,.36-3.78,1.23-4.46a2,2,0,0,1,2.79.65,8.72,8.72,0,0,1,.49,1.44A8,8,0,0,1,316.15,234.37Z" transform="translate(-209.75 -71.62)"/><path class="cls-177" d="M309.76,235.68c.19.82.67,1.08,1.54,1,1.76-.08,3.52,0,5.28,0a1.43,1.43,0,0,0,1.36-.52l0,.76h-8.26A2.6,2.6,0,0,1,309.76,235.68Z" transform="translate(-209.75 -71.62)"/><path class="cls-178" d="M316.15,234.37l.07-2.84A3.64,3.64,0,0,1,316.15,234.37Z" transform="translate(-209.75 -71.62)"/><path class="cls-179" d="M277.1,307.81c-.05.3-.32.37-.53.49-.91.5-1.85.93-2.7,1.51s-1.32.46-1.82-.51c-1-1.95-1.05-1.92.91-3a4.09,4.09,0,0,1,.46-.25c.68-.34,1.77-1.13,2-.93a9.78,9.78,0,0,1,1.6,2.45A1.6,1.6,0,0,1,277.1,307.81Z" transform="translate(-209.75 -71.62)"/><path class="cls-180" d="M274.71,303.23c0,.47-.33.51-.57.64-1,.6-2.11,1.15-3.14,1.76-.48.27-.7.18-1-.29-1.49-2.34-1.51-2.33.88-3.62a3.48,3.48,0,0,1,.68-.37c.59-.17,1.16-1.08,1.65-.59A10.86,10.86,0,0,1,274.71,303.23Z" transform="translate(-209.75 -71.62)"/><path class="cls-181" d="M280.78,307.8c.24-.05.37.1.46.31s-.07.4-.26.51l-6.64,3.62a.41.41,0,0,1-.64-.17c-.14-.25,0-.4.19-.51l6.75-3.7Z" transform="translate(-209.75 -71.62)"/><path class="cls-182" d="M282.05,309.8c-.07.34-.34.41-.55.53l-6.12,3.33c-.28.15-.61.47-.87,0s.22-.57.48-.71q3-1.68,6.11-3.33c.23-.12.49-.45.8-.12A.94.94,0,0,1,282.05,309.8Z" transform="translate(-209.75 -71.62)"/><path class="cls-182" d="M282.83,311.36c-.06.34-.34.42-.55.53l-6.12,3.33c-.28.16-.61.47-.88,0s.23-.57.48-.71q3-1.69,6.12-3.33c.23-.13.48-.45.79-.13A1.26,1.26,0,0,1,282.83,311.36Z" transform="translate(-209.75 -71.62)"/><path class="cls-183" d="M269.41,301.52a1.86,1.86,0,0,1-1.37.72.49.49,0,0,1-.38-.69,1.24,1.24,0,0,1,1.24-.7C269.1,300.88,269.24,301.28,269.41,301.52Z" transform="translate(-209.75 -71.62)"/><path class="cls-184" d="M262.45,249.86c-.21,0-.46,0-.54-.25.47-.24.19-.7.31-1A1.94,1.94,0,0,1,262.45,249.86Z" transform="translate(-209.75 -71.62)"/><path class="cls-185" d="M340.43,245l-1.23,0c-.41-.22-.9-.34-1.1-.83s-.38-1,0-1.51c.65-.53,1.27-1.12,2-1.59.92-.63,1.4-.41,1.56.67a19.1,19.1,0,0,1,.12,2.15c-.22.44-.91.27-1.06.82Z" transform="translate(-209.75 -71.62)"/><path class="cls-186" d="M313.36,234.62c-.33-.76-.51-1.58-.78-2.35-.15-.41.51-1.28,1-1.7s1.09.26,1.56.5a1.23,1.23,0,0,1,.5,1.56c-.22.6-.53,1.16-.79,1.74a.61.61,0,0,1-.37.08A1.37,1.37,0,0,0,313.36,234.62Z" transform="translate(-209.75 -71.62)"/><path class="cls-187" d="M313.36,234.62c.36-.92.94-.5,1.5-.25C314.37,235.68,314.36,235.68,313.36,234.62Z" transform="translate(-209.75 -71.62)"/></svg>