<?xml version="1.0" encoding="utf-8"?>
<!-- Generator: Adobe Illustrator 24.2.1, SVG Export Plug-In . SVG Version: 6.00 Build 0)  -->
<svg version="1.1" id="Calque_1" xmlns="http://www.w3.org/2000/svg" xmlns:xlink="http://www.w3.org/1999/xlink" x="0px" y="0px"
	 viewBox="0 0 1920 1300" style="enable-background:new 0 0 1920 1300;" xml:space="preserve">
<style type="text/css">
	.st0{fill:#E1E1E1;fill-opacity:0.298;}
	.st1{fill:#FFFFFF;fill-opacity:0.9961;}
	.st2{fill:#D9E2E7;}
	.st3{fill:#FFFFFF;}
	.st4{fill:#848C93;}
	.st5{fill:#E1E1E1;}
	.st6{fill:#E1E1E1;fill-opacity:0.4471;}
	.st7{fill:#E1E1E1;fill-opacity:0.9961;}
	.st8{fill:#BFC9D2;fill-opacity:0.7843;}
	.st9{fill:#BFC9D2;fill-opacity:0.9961;}
	.st10{fill:#BFC9D2;fill-opacity:0.6118;}
	.st11{fill:#828C96;}
	.st12{fill:#E1E1E1;fill-opacity:0.5137;}
	.st13{fill:#8795A2;}
</style>
<g id="layer1">
	<g>
		<path class="st0" d="M1735.6,1210l-6.8,1c-32.5,2-127.5,3.6-285,4.9c-158.6,1.2-345.4,1.7-560.3,1.5
			c-205.1-0.3-369.2-1.3-492.2-2.8c-122.9-1.6-172.7-3.4-149.5-5.5c32.5-2,127.5-3.6,285-4.9c158.6-1.2,345.4-1.7,560.3-1.5
			c205.1,0.3,369.2,1.3,492.2,2.8c39.4,0.5,71.9,1.1,97.4,1.6l32.2,0.9C1726.5,1208.7,1735.4,1209.3,1735.6,1210"/>
	</g>
	<g>
		<path class="st1" d="M473.2,1146.4h383.2l383.2,0c0,3,0,6,0,9c-255.5,0-511,0-766.5,0C473.2,1152.4,473.2,1149.4,473.2,1146.4"/>
	</g>
	<g>
		<path class="st2" d="M475.6,1153.9h383.2l383.2,0v9l-766.5,0V1153.9"/>
	</g>
	<g>
		<path class="st1" d="M474.1,1162.2l383.2,0l383.2,0v9l-766.5,0V1162.2"/>
	</g>
	<g>
		<path class="st2" d="M474.1,1167.4l383.2,0l383.2,0v9l-766.5,0V1167.4"/>
	</g>
	<g>
		<path class="st1" d="M474.1,1175.7l383.2,0l383.2,0v9l-766.5,0V1175.7"/>
	</g>
	<g>
		<path class="st2" d="M476.5,1183.9l383.2,0l383.2,0v9l-766.5,0V1183.9"/>
	</g>
	<g>
		<path class="st1" d="M475.8,1190.7H859l383.2,0v9l-766.5,0V1190.7"/>
	</g>
	<g>
		<path class="st2" d="M473.7,1197.6l383.2,0l383.2,0v9l-766.5,0V1197.6"/>
	</g>
	<g>
		<path class="st1" d="M444.6,1086h383.2l383.2,0c0,3,0,6,0,9c-255.5,0-511,0-766.5,0C444.6,1091.9,444.6,1089,444.6,1086"/>
	</g>
	<g>
		<path class="st2" d="M447,1093.5h383.2l383.2,0v9l-766.5,0V1093.5"/>
	</g>
	<g>
		<path class="st1" d="M445.5,1101.7l383.2,0l383.2,0v9l-766.5,0V1101.7"/>
	</g>
	<g>
		<path class="st2" d="M445.5,1107l383.2,0l383.2,0v9l-766.5,0V1107"/>
	</g>
	<g>
		<path class="st1" d="M445.5,1115.3l383.2,0l383.2,0v9l-766.5,0V1115.3"/>
	</g>
	<g>
		<path class="st2" d="M448,1123.5l383.2,0l383.2,0v9l-766.5,0V1123.5"/>
	</g>
	<g>
		<path class="st1" d="M447.2,1130.3h383.2l383.2,0l0,9l-766.5,0L447.2,1130.3"/>
	</g>
	<g>
		<path class="st2" d="M445.1,1137.2l383.2,0l383.2,0v9l-766.5,0V1137.2"/>
	</g>
	<g>
		<path class="st1" d="M452.4,1031.8h383.2l383.2,0c0,3,0,6,0,9c-255.5,0-511,0-766.5,0C452.4,1037.8,452.4,1034.8,452.4,1031.8"/>
	</g>
	<g>
		<path class="st2" d="M454.8,1039.3H838l383.2,0v9l-766.5,0V1039.3"/>
	</g>
	<g>
		<path class="st1" d="M453.3,1047.6l383.2,0l383.2,0v9l-766.5,0V1047.6"/>
	</g>
	<g>
		<path class="st2" d="M453.3,1052.8l383.2,0l383.2,0v9l-766.5,0V1052.8"/>
	</g>
	<g>
		<path class="st1" d="M453.3,1061.1l383.2,0l383.2,0v9l-766.5,0V1061.1"/>
	</g>
	<g>
		<path class="st2" d="M455.7,1069.3l383.2,0l383.2,0v9l-766.5,0V1069.3"/>
	</g>
	<g>
		<path class="st1" d="M455,1076.1h383.2l383.2,0v9l-766.5,0V1076.1"/>
	</g>
	<g>
		<path class="st2" d="M452.9,1083l383.2,0l383.2,0v9l-766.5,0V1083"/>
	</g>
	<g>
		<path class="st1" d="M423.8,971.4h383.2l383.2,0c0,3,0,6,0,9c-255.5,0-511,0-766.5,0C423.8,977.4,423.8,974.4,423.8,971.4"/>
	</g>
	<g>
		<path class="st2" d="M426.2,978.9h383.2l383.2,0v9l-766.5,0L426.2,978.9"/>
	</g>
	<g>
		<path class="st1" d="M424.7,987.1l383.2,0l383.2,0v9l-766.5,0V987.1"/>
	</g>
	<g>
		<path class="st2" d="M424.7,992.4l383.2,0l383.2,0v9l-766.5,0V992.4"/>
	</g>
	<g>
		<path class="st1" d="M424.7,1000.7l383.2,0l383.2,0v9l-766.5,0V1000.7"/>
	</g>
	<g>
		<path class="st2" d="M427.2,1008.9l383.2,0l383.2,0v9l-766.5,0V1008.9"/>
	</g>
	<g>
		<path class="st1" d="M426.4,1015.7h383.2l383.2,0v9l-766.5,0V1015.7"/>
	</g>
	<g>
		<path class="st2" d="M424.3,1022.6l383.2,0l383.2,0v9l-766.5,0V1022.6"/>
	</g>
	<g>
		<path class="st3" d="M756.7,221.9l358.2,0l358.2,0c0,328.3,0,656.6,0,984.8c-238.8,0-477.6,0-716.3,0
			C756.7,878.4,756.7,550.1,756.7,221.9"/>
	</g>
	<g>
		<path class="st4" d="M802,922.9l12.1,0l12.1,0c0,7.4,0,14.8,0,22.2c-8.1,0-16.2,0-24.3,0C802,937.7,802,930.3,802,922.9z"/>
	</g>
	<g>
		<path class="st4" d="M802,968.8l24.3,0l0,22.2l-24.3,0L802,968.8z"/>
	</g>
	<g>
		<path class="st4" d="M802,1014.6l12.1,0l12.1,0c0,7.4,0,14.8,0,22.2c-8.1,0-16.2,0-24.3,0C802,1029.5,802,1022.1,802,1014.6z"/>
	</g>
	<g>
		<path class="st4" d="M802,1060.5l24.3,0l0,22.2l-24.3,0V1060.5z"/>
	</g>
	<g>
		<path class="st5" d="M850.6,918.9l188,0l188,0c0,10.2,0,20.5,0,30.7c-125.3,0-250.7,0-376,0C850.6,939.4,850.6,929.2,850.6,918.9z
			"/>
	</g>
	<g>
		<path class="st5" d="M850.6,965.3l148.2,0l148.2,0c0,10.2,0,20.5,0,30.7c-98.8,0-197.6,0-296.5,0
			C850.6,985.8,850.6,975.5,850.6,965.3z"/>
	</g>
	<g>
		<path class="st5" d="M850.6,1011.7l191.7,0l191.7,0c0,10.2,0,20.5,0,30.7c-127.8,0-255.5,0-383.3,0
			C850.6,1032.2,850.6,1021.9,850.6,1011.7z"/>
	</g>
	<g>
		<path class="st5" d="M850.6,1058.1l247.4,0v30.7l-247.4,0V1058.1z"/>
	</g>
	<g>
		<path class="st4" d="M802,741.4l12.1,0l12.1,0c0,7.4,0,14.8,0,22.2c-8.1,0-16.2,0-24.3,0C802,756.2,802,748.8,802,741.4z"/>
	</g>
	<g>
		<path class="st4" d="M802,787.3l24.3,0v22.2l-24.3,0V787.3z"/>
	</g>
	<g>
		<path class="st4" d="M802,833.2l12.1,0l12.1,0c0,7.4,0,14.8,0,22.2c-8.1,0-16.2,0-24.3,0C802,848,802,840.6,802,833.2z"/>
	</g>
	<g>
		<path class="st4" d="M802,879.1l24.3,0l0,22.2l-24.3,0V879.1z"/>
	</g>
	<g>
		<path class="st5" d="M847.4,737.4l188,0l188,0c0,10.2,0,20.5,0,30.7c-125.3,0-250.7,0-376,0C847.4,757.9,847.4,747.7,847.4,737.4z
			"/>
	</g>
	<g>
		<path class="st5" d="M847.4,783.8l148.2,0l148.2,0c0,10.2,0,20.5,0,30.7c-98.8,0-197.6,0-296.5,0
			C847.4,804.3,847.4,794.1,847.4,783.8z"/>
	</g>
	<g>
		<path class="st5" d="M847.4,830.2l191.7,0l191.7,0c0,10.2,0,20.5,0,30.7c-127.8,0-255.5,0-383.3,0
			C847.4,850.7,847.4,840.5,847.4,830.2z"/>
	</g>
	<g>
		<path class="st5" d="M847.4,876.6l247.4,0v30.7l-247.4,0V876.6z"/>
	</g>
	<g>
		<path class="st6" d="M808.7,514.7l283.7,0l283.7,0c0,60,0,119.9,0,179.9c-189.1,0-378.3,0-567.4,0
			C808.7,634.6,808.7,574.7,808.7,514.7"/>
	</g>
	<g>
		<path class="st7" d="M997.3,391.1l162.9,0l162.9,0c0,25.9,0,51.8,0,77.7c-108.6,0-217.2,0-325.7,0
			C997.3,442.9,997.3,417,997.3,391.1"/>
	</g>
	<g>
		<path class="st8" d="M1323.5,246.2l126.7,0v24.1l-126.7,0V246.2"/>
	</g>
	<g>
		<path class="st8" d="M1363.9,278.5l86.2,0v24.1l-86.2,0V278.5"/>
	</g>
	<g>
		<path class="st9" d="M819.9,1109.4l288.5,0l288.5,0c0,20.8,0,41.6,0,62.4c-192.3,0-384.6,0-576.9,0
			C819.9,1151,819.9,1130.2,819.9,1109.4"/>
	</g>
	<g>
		<path class="st10" d="M1272.7,738.2l176.6,0l0,343l-176.6,0V738.2"/>
	</g>
	<g>
		<g>
			<path class="st11" d="M1050.1,407.6h6.7c3.9,0,6.8,0.7,8.7,2.2c1.9,1.5,2.9,3.8,2.9,6.7c0,1.5-0.2,2.9-0.7,4
				c-0.5,1.1-1.3,2.2-2.3,3.1c-1.1,1-2.4,1.7-3.7,2.1c-1.2,0.4-2.6,0.6-4.2,0.7c-0.3,0-0.6,0-0.9,0l0,0l-6.4,0V407.6z M1100.1,420.9
				c0.2,0,0.4,0,0.6,0l-0.1,0.1c1.5,0,2.7,0.2,3.8,0.7c1.1,0.5,2.1,1.1,2.9,2c0.6,0.7,1.2,1.7,1.7,3.2c0.4,1.2,0.6,2.5,0.6,3.9
				h-19.2c0.4-3,1.5-5.4,3.2-7.2C1095.2,421.8,1097.4,421,1100.1,420.9z M1267,420.9c0.2,0,0.4,0,0.6,0l-0.1,0.1
				c1.5,0,2.7,0.2,3.8,0.7c1.1,0.5,2.1,1.1,2.9,2c0.6,0.7,1.2,1.7,1.7,3.2c0.4,1.2,0.6,2.5,0.6,3.9h-19.2c0.4-3,1.5-5.4,3.2-7.2
				C1262.1,421.8,1264.3,421,1267,420.9z M1038.4,402.2v3.1c0,0.7,0.3,1.1,1,1.3c0.4,0.1,1.8,0.4,4,0.8V447l-4,0.8
				c-0.7,0.2-1,0.6-1,1.3v3l5,0h6.8l5,0v-3c0-0.3-0.1-0.6-0.3-0.8c-0.2-0.2-0.5-0.4-0.8-0.4c-0.4-0.1-1.7-0.4-3.9-0.8l0-15.7h4.5
				c1,0,1.7,0.1,2.1,0.4c0.5,0.3,0.9,0.7,1.3,1.2l13,17.8c0.5,1,1.4,1.5,2.7,1.5h2.2h3.8l1.3,0v-3.1c0-0.7-0.4-1.1-1.1-1.3l0,0h0.1
				c-0.2-0.1-1.5-0.3-3.9-0.7l-10.8-14.8c-0.6-0.9-1.4-1.6-2.2-2.1c1.7-0.4,3.4-1,5.2-2c1.5-0.8,2.8-1.9,3.8-3.2
				c1.1-1.3,1.9-2.7,2.4-4.2c0.6-1.6,0.8-3.2,0.8-4.9c0-2.1-0.4-4.1-1.1-5.8c-0.7-1.7-1.8-3.1-3.3-4.4c-1.5-1.2-3.4-2.2-5.7-2.8
				c-2.4-0.6-5.1-1-8.2-1h-13.4L1038.4,402.2z M1099.8,416.3c-2.2,0.1-4.2,0.5-6,1.3c-2.1,0.9-3.8,2.2-5.2,3.7
				c-1.3,1.5-2.4,3.3-3.3,5.6c-0.8,2.1-1.2,4.4-1.2,6.8c0,3,0.4,5.7,1.3,8.1c0.9,2.4,2,4.4,3.5,5.9c1.6,1.7,3.4,2.9,5.4,3.7
				c2,0.8,4.2,1.2,6.8,1.2c0.2,0,0.5,0,0.7,0c0.9,0,2-0.1,3.1-0.3c1-0.2,2.2-0.5,3.8-1c0.8-0.2,1.9-0.8,3.4-1.7
				c1.2-0.7,2.1-1.5,2.8-2.3l-1.7-2.3c-0.3-0.4-0.7-0.6-1.2-0.6c0,0,0,0,0,0c-0.3,0-0.8,0.2-1.4,0.5c-0.6,0.4-1.3,0.7-2.1,1.1
				c-1.2,0.5-2.1,0.9-2.9,1.2c-0.8,0.3-1.9,0.4-3.1,0.5c-0.3,0-0.6,0-0.9,0c-1.5,0-3-0.3-4.5-0.8c-1.3-0.5-2.5-1.3-3.5-2.5
				c-1.1-1.2-1.9-2.6-2.3-4c-0.6-1.7-0.8-3.7-0.8-5.8l0,0l23.4,0c0,0,0.1,0,0.1,0c0.5,0,0.9-0.2,1.1-0.5c0.2-0.2,0.3-0.9,0.3-1.9
				c0-2.4-0.4-4.6-1.1-6.7c-0.6-1.8-1.7-3.4-3.1-5c-1.2-1.3-2.8-2.3-4.6-3c-1.8-0.7-3.8-1-5.8-1.1l0,0c0,0,0,0,0.1,0h-0.1l0,0
				C1100.3,416.3,1100,416.3,1099.8,416.3z M1132.1,416.3c-3.8,0.1-6.8,1.2-8.9,3c-2.2,1.9-3.3,4.3-3.3,7.1c0,2.8,1,5,2.9,6.6
				c1.1,0.8,2.1,1.5,3.1,1.9c0.9,0.4,3.1,1.1,6.5,2.2c0.9,0.2,1.9,0.6,2.9,1.1c0.7,0.3,1.3,0.9,2.1,1.7c0.6,0.6,0.8,1.6,0.8,2.9
				c0,1.3-0.6,2.4-1.8,3.5c-1.3,1.1-2.9,1.6-4.9,1.7c-0.2,0-0.3,0-0.5,0c-2.9,0-5.3-0.5-7.2-1.4c-0.1-0.7-0.1-1.5-0.2-2.3
				c-0.1-0.8-0.1-1.3-0.2-1.6c0-0.3,0-0.5,0-0.5c-0.1-0.5-0.5-0.8-1-0.8h-2.5v9.2c3.7,1.2,7.5,1.9,11.4,1.9c0.2,0,0.5,0,0.7,0
				c3.4-0.1,6.3-1.2,8.6-3.2c2.3-2,3.4-4.7,3.4-8.1c0-2.6-1-4.7-2.9-6.2c-1.1-0.9-2.1-1.5-2.9-1.8l-3.4-1.3
				c-0.4-0.2-1.2-0.4-2.2-0.7c-1-0.3-1.7-0.5-2.1-0.6c-1.7-0.5-3.1-1.3-4-2.4c-0.6-0.6-0.8-1.5-0.8-2.7c0-1.2,0.6-2.2,1.9-3.2
				c1.2-1,2.7-1.5,4.4-1.6c0.1,0,0.3,0,0.4,0h0.1c1.3,0,3.1,0.3,5.4,0.8c0.1,0.8,0.1,1.6,0.2,2.4c0.1,0.8,0.1,1.3,0.2,1.6
				c0,0.3,0,0.5,0,0.5c0.1,0.7,0.5,1,1.2,1h2.7v-6.6v-2.4c-3.7-1.3-6.7-1.9-9.1-1.9l0,0c0,0,0,0,0,0h0l0,0
				C1132.7,416.3,1132.4,416.3,1132.1,416.3z M1146.4,416.9v2.9c0,0.7,0.4,1.2,1.1,1.3c0.5,0.2,1.8,0.4,3.9,0.8v17.4
				c0,3.9,1,7.2,3.1,9.7c2.1,2.4,5,3.7,8.8,3.7c0.2,0,0.4,0,0.6,0c4.2-0.2,7.9-2,11.1-5.6l0.5,3.7c0.3,0.9,0.8,1.3,1.7,1.3h8.7v-3
				c0-0.7-0.4-1.1-1.1-1.3c-0.4-0.1-1.7-0.4-4-0.8v-30.2l-6.2,0l-5,0v3c0,0.7,0.3,1.2,1,1.3c2.2,0.4,3.6,0.7,4,0.8V443
				c-2.8,3.1-5.8,4.7-9.1,4.9c-0.1,0-0.3,0-0.4,0v-0.1c-2.5,0-4.3-0.7-5.6-2.2c-1.2-1.4-1.8-3.5-1.8-6.3v-22.4H1146.4z M1190,416.9
				v2.9c0,0.7,0.3,1.2,1,1.3c0.4,0.1,1.7,0.4,4,0.8v25.2l-4,0.7c-0.6,0.1-1,0.6-1,1.3v2.9l16.2,0v-2.9c0-0.7-0.4-1.2-1.1-1.3
				c-0.1,0-0.8-0.1-2.1-0.4l-1.9-0.3l0-21.2c2.3-2.9,4.8-4.5,7.6-4.6c0.1,0,0.2,0,0.3,0c4.4,0,6.7,2.8,6.7,8.4v22.5h11.2v-3
				c0-0.7-0.4-1.1-1.1-1.3c-0.7-0.1-1.3-0.2-1.9-0.4c-0.6-0.1-1.1-0.2-1.4-0.3c-0.3-0.1-0.6-0.1-0.6-0.1v-17.4
				c0-2.7,0.8-4.8,2.3-6.3c1.3-1.3,2.9-2,4.9-2.1c0.1,0,0.3,0,0.4,0c2.2,0,4,0.7,5.3,2.1c1.2,1.3,1.8,3.4,1.8,6.3v22.5l11.2,0v-3.1
				c0-0.7-0.4-1.1-1.1-1.3c-0.4-0.1-1.7-0.4-4-0.8v-17.4c0-4.3-1-7.6-3.1-9.9c-1-1.2-2.3-2-3.8-2.6c-1.7-0.6-3.5-0.9-5.4-0.9
				c-0.1,0-0.3,0-0.4,0c-1.9,0.1-3.8,0.7-5.8,1.8c-2.1,1.2-3.6,3-4.6,5.5c-0.7-2.2-1.7-4-3.2-5.3c-1.5-1.4-3.4-2-5.8-2
				c-0.1,0-0.3,0-0.4,0c-3.5,0.1-6.7,2-9.5,5.5v-0.1l-0.5-3.6c-0.3-0.8-0.8-1.3-1.7-1.3h-3.6L1190,416.9z M1266.7,416.3
				c-2.2,0.1-4.2,0.5-6,1.3c-2.1,0.9-3.8,2.2-5.2,3.7c-1.3,1.5-2.4,3.3-3.3,5.6c-0.8,2.1-1.2,4.4-1.2,6.8c0,3,0.4,5.7,1.3,8.1
				c0.9,2.4,2,4.4,3.5,5.9c1.6,1.7,3.4,2.9,5.4,3.7s4.2,1.2,6.8,1.2c0.2,0,0.5,0,0.7,0c0.9,0,2-0.1,3.1-0.3c1-0.2,2.2-0.5,3.8-1
				c0.8-0.2,1.9-0.8,3.4-1.7c1.2-0.7,2.1-1.5,2.8-2.3l-1.7-2.3c-0.3-0.4-0.7-0.6-1.2-0.6c0,0,0,0,0,0c-0.3,0-0.8,0.2-1.4,0.5
				c-0.6,0.4-1.3,0.7-2.1,1.1c-1.2,0.5-2.1,0.9-2.9,1.2c-0.8,0.3-1.9,0.4-3.1,0.5c-0.3,0-0.6,0-0.9,0c-1.5,0-3-0.3-4.5-0.8
				c-1.3-0.5-2.5-1.3-3.5-2.5c-1.1-1.2-1.9-2.6-2.3-4c-0.6-1.7-0.8-3.7-0.8-5.8l0,0l23.4,0c0,0,0.1,0,0.1,0c0.5,0,0.9-0.2,1.1-0.5
				c0.2-0.2,0.3-0.9,0.3-1.9c0-2.4-0.4-4.6-1.1-6.7c-0.6-1.8-1.7-3.4-3.1-5c-1.2-1.3-2.8-2.3-4.6-3c-1.8-0.7-3.8-1-5.8-1.1l0,0
				c0,0,0,0,0,0l-0.1,0l0,0C1267.2,416.3,1266.9,416.3,1266.7,416.3z"/>
		</g>
	</g>
	<g>
		<path class="st12" d="M787.1,247.8l74.2,0l74.2,0c0,58,0,115.9,0,173.9c-49.5,0-98.9,0-148.4,0
			C787.1,363.8,787.1,305.8,787.1,247.8"/>
	</g>
	<g>
		<g>
			<path class="st13" d="M861.3,339.4c21.1,0,28.7-21.1,30.7-38.5c2.4-21.4-7.7-37.5-30.7-37.5c-23,0-33.1,16.1-30.7,37.5
				C832.6,318.3,840.2,339.4,861.3,339.4z"/>
		</g>
		<g>
			<path class="st13" d="M918.4,389.8c-0.2-6.7-1-13.5-2.2-20.1c-1.4-8-3.2-19.8-10.2-25c-4.1-3-9.3-4-14-5.8
				c-2.3-0.9-4.3-1.8-6.2-2.8c-6.4,7-14.8,10.7-24.5,10.7c-9.7,0-18.1-3.7-24.5-10.7c-1.9,1-3.9,1.9-6.2,2.8
				c-4.6,1.8-9.9,2.8-14,5.8c-7,5.2-8.8,17-10.3,25c-1.2,6.6-2,13.4-2.2,20.1c-0.2,5.2,2.4,5.9,6.8,7.5c5.5,2,11.1,3.4,16.8,4.6
				c11,2.3,22.3,4.1,33.5,4.2c11.3-0.1,22.6-1.9,33.5-4.2c5.7-1.2,11.3-2.7,16.8-4.6C916,395.7,918.6,395,918.4,389.8L918.4,389.8z"
				/>
		</g>
	</g>
	<g>
		<path class="st7" d="M1302.3,748.1l58.7,0l58.7,0c0,11.8,0,23.7,0,35.5c-39.1,0-78.3,0-117.4,0
			C1302.3,771.8,1302.3,760,1302.3,748.1"/>
	</g>
</g>
</svg>
