<svg xmlns="http://www.w3.org/2000/svg" viewBox="0 0 658.95 443.27"><defs><style>.cls-1{fill:#f5f5f5;}.cls-2{fill:#e0e0e0;}.cls-3{opacity:0.3;}</style></defs><g id="Calque_2" data-name="Calque 2"><g id="Background_Complete" data-name="Background Complete"><path class="cls-1" d="M659,285.91l-5.1-9a24,24,0,1,0-5.76,6.41h0Z"/><path class="cls-1" d="M133.23,19a9.86,9.86,0,0,0,5.88-9.12C139.13,4.46,135,0,129.9,0s-9.27,4.37-9.29,9.82A9.84,9.84,0,0,0,126.5,19c-14.23,2.15-13.59,17.62-13.59,17.62l33.66.15S147.34,21.16,133.23,19Z"/><path class="cls-2" d="M27.73,345.21a35.13,35.13,0,0,0-15-5.16c-2.45-.25-5.12-.18-7.09,1.31a1.47,1.47,0,0,0-.73,1.29,1.55,1.55,0,0,0,.7.88c6.09,4.65,15.3,5.24,22.09,1.68"/><path class="cls-2" d="M27.34,344.78a73.1,73.1,0,0,1-9.67-8.5,24.48,24.48,0,0,1-6.06-11.22,4.51,4.51,0,0,1,.48-3.75c7.71,6,13.76,13.81,15.25,23.47"/><path class="cls-2" d="M27.65,345.15a35,35,0,0,1,.18-12.7A17.15,17.15,0,0,1,34.59,322c1.33,3.11.76,6.7-.18,9.95a48.35,48.35,0,0,1-6.7,14.12"/><path class="cls-2" d="M35.21,358.69c-4.59.56-8.59,3-12,6.08a22.69,22.69,0,0,0-6.87,11.79c4.5-.28,8.32-3.45,11.08-7s4.69-7.46,7.73-10.79"/><path class="cls-2" d="M36.85,360.86a29.6,29.6,0,0,1,3.42-28c2.61,9.3,1.65,19.8-3.42,28"/><path class="cls-2" d="M46.83,372.75a21.39,21.39,0,0,0-20.47,11.78,1.58,1.58,0,0,0-.14,1.61,1.53,1.53,0,0,0,1.36.4c4-.26,7.61-2.69,10.56-5.46s5.52-6,8.78-8.35"/><path class="cls-2" d="M46.51,372.1a38.23,38.23,0,0,1-.38-21.31c.75-2.74,2-5.62,4.55-6.91a.86.86,0,0,1,.69-.12.89.89,0,0,1,.44.51,12.76,12.76,0,0,1,1.08,6.11,39.43,39.43,0,0,1-1,6.19c-.8,3.78-1.23,7.84-3.3,11.1a23,23,0,0,0-1.32,2.44c-.39.83-.39,1.12-.75,1.78"/><path class="cls-2" d="M72.94,376c-2-7.45.12-16.48,4.82-22.59.34-.45.8-.93,1.37-.88.86.08,1.08,1.23,1.05,2.1A40.81,40.81,0,0,1,72.94,376"/><path class="cls-2" d="M75.33,377.66c9,2.36,19.43.07,27-5.48a21.85,21.85,0,0,0-14.59-1.79c-4.87,1.12-9.33,3.3-12.36,7.27"/><path class="cls-2" d="M77.34,372.71c5.06-8.27,14.78-13.66,24.46-14.15-1.11,3.94-4.35,7-8,8.85s-7.73,2.65-11.75,3.43c-1.56.3-3.7.64-4.71,1.87"/><path class="cls-2" d="M73.45,348.64a71.35,71.35,0,0,0,3.13-14.33c.37-4.88-.32-10-2.86-14.17-4.73,9.16-5.21,19.86-.42,29"/><path class="cls-2" d="M89.39,340.58c5.53-10.06,16.83-18.1,28.26-19.22-4.41,11-16.44,19.46-28.26,19.22"/><path class="cls-2" d="M85.9,342.56c8.26,1.25,15.29,6.53,23,9.72a10.27,10.27,0,0,0,5.2,1,4.07,4.07,0,0,0,2.55-7.2,11.14,11.14,0,0,0-3.78-2.29c-8.4-3.5-17.41-3.59-26.27-1.47"/><path class="cls-2" d="M81.12,348.35c1.87.53,2.51,1.5,4,2.76a43,43,0,0,0,17.45,9c.67.17,1.54.23,1.87-.37s-.08-1.16-.45-1.63a24,24,0,0,0-10.54-7.15c-4-1.5-7.51-3.31-12.32-2.92"/><path class="cls-2" d="M75.73,313.37A33,33,0,0,0,101.05,322a1.72,1.72,0,0,0,1.15-.41c.64-.69-.13-1.76-.87-2.34-7.44-5.8-16.46-8.21-25.6-5.86"/><path class="cls-2" d="M82.13,311a35.28,35.28,0,0,1,31.58-5.21,25.08,25.08,0,0,1-15,6.61A47.53,47.53,0,0,1,82.13,311"/><path class="cls-2" d="M79.58,295c-.73-7.43-.25-13.29-.77-20.76,0-.59-.17-1.31-.72-1.52-.78-.3-1.43.65-1.68,1.44a23.78,23.78,0,0,0,3.16,20.68"/><path class="cls-2" d="M79.05,295.78a43.8,43.8,0,0,0,12.31-12c2.43-3.32,4.47-7.31,3.92-11.39a11.75,11.75,0,0,0-8.87,4.41,24.79,24.79,0,0,0-4.53,9.1c-1,3.27-1.67,6.63-2.83,9.84"/><path class="cls-2" d="M91.14,292.42a99,99,0,0,0,30.28-17.85c-3.62-1.46-7.76-.59-11.37.87-8.27,3.34-15,9-19.07,16.9"/><path class="cls-2" d="M82.45,299.84c5.59.62,11.27,1,16.81.09s10.61-3.08,15.7-5.22a1.88,1.88,0,0,0,1.07-.81,1.22,1.22,0,0,0-.38-1.34,3.13,3.13,0,0,0-1.34-.63c-5.54-1.55-11.52-.82-17,1a78.88,78.88,0,0,0-14.89,6.9"/><path class="cls-2" d="M50.53,313.63c-3.81-7.7-3.57-16.69-.27-24.62,2.32,3.53,2.6,8,2.18,12.24s-1.71,8.53-1.79,12.76"/><path class="cls-2" d="M35.29,305.94A34.36,34.36,0,0,0,9.78,316.81c4.75.75,9.65-.48,14-2.59a71.22,71.22,0,0,0,12-8"/><path class="cls-2" d="M25.05,302.52c-4.66-.38-9.14-1-13.62.41s-8.56,4.49-10.38,8.81a24.64,24.64,0,0,0,12.77-2.42,73.94,73.94,0,0,0,11.23-6.8"/><path class="cls-2" d="M40.22,302.67c-4.19-2.74-8.5-5.54-13.38-6.68s-10.53-.29-13.93,3.38c3.95,2.32,8.74,2.59,13.32,2.59s10.19,0,14.51,1.47"/><path class="cls-2" d="M40.24,302.89c-7.16-7-9.88-19.67-7-29.29a44.61,44.61,0,0,1,7,29.29"/><path class="cls-2" d="M59.94,283c1.35-3.14,2.3-6.44,3.52-9.64a27.71,27.71,0,0,1,5-8.88,13.22,13.22,0,0,1,8.88-4.6A35.77,35.77,0,0,1,60.12,283"/><path class="cls-2" d="M56.38,287.11c-2.24-3.07-4.82-7.25-7.86-9.55s-7-3.69-10.68-2.8a24.89,24.89,0,0,0,18.54,12.35"/><path class="cls-2" d="M57.09,283.22a52.83,52.83,0,0,1-3.53-11.45,17.77,17.77,0,0,1,1.79-11.64c3.93,7.44,5.2,15.42,1.94,23.17"/><path class="cls-2" d="M60,260.13c2.23-7.37,9-12.79,16.26-15.28a6,6,0,0,1,2.85-.43,2.47,2.47,0,0,1,2.1,1.75c.27,1.26-.77,2.38-1.74,3.21A55.31,55.31,0,0,1,60,260.13"/><path class="cls-2" d="M60.06,254.11c.28-4.76.58-9.58,2.12-14.08s4.53-8.72,8.86-10.7c.74,4.8-1.38,9.58-3.93,13.71s-5.63,8-7.17,12.63"/><path class="cls-2" d="M59.94,257.38c-1.84-5.37-2-12.2-5.25-16.88-2.24-3.27-5.84-5.49-7.78-9a13.66,13.66,0,0,0,.45,10.18,29.5,29.5,0,0,0,6,8.51c2.38,2.55,4.42,4.46,6.63,7.15"/><path class="cls-2" d="M60,415.54c-.15,0-.27-35.83-.28-80s.1-80,.24-80,.27,35.83.28,80S60.12,415.54,60,415.54Z"/><path class="cls-2" d="M91.29,308.22a8.14,8.14,0,0,1-1.35.5L86.23,310c-3.12,1.06-7.42,2.6-12.08,4.51s-9,3.59-11.44,5.74a8.34,8.34,0,0,0-2.3,3c-.36.84-.42,1.35-.47,1.35a1,1,0,0,1,0-.38,5.52,5.52,0,0,1,.26-1A8.07,8.07,0,0,1,62.46,320a20.37,20.37,0,0,1,5-3.08c2-.93,4.19-1.9,6.53-2.86,4.67-1.91,9-3.4,12.16-4.38,1.58-.5,2.87-.86,3.76-1.1A7.37,7.37,0,0,1,91.29,308.22Z"/><path class="cls-2" d="M101.55,283a2.54,2.54,0,0,1-.38.4c-.3.29-.68.65-1.15,1.08l-4.29,3.9L81.45,301.11c-5.58,5-10.4,9.71-13.74,13.28-1.67,1.78-3,3.26-3.89,4.29l-1,1.19a2.44,2.44,0,0,1-.38.39,1.93,1.93,0,0,1,.3-.46c.22-.29.54-.72,1-1.25.85-1.07,2.13-2.59,3.77-4.41A180.79,180.79,0,0,1,81.1,300.73c5.6-5,10.69-9.41,14.39-12.61l4.4-3.78,1.21-1A3.07,3.07,0,0,1,101.55,283Z"/><path class="cls-2" d="M75.43,306.16c-.15-.07,1-2.76,2.18-6.16s1.72-6.27,1.87-6.24a21.43,21.43,0,0,1-1.38,6.41,41.87,41.87,0,0,1-1.74,4.3A7,7,0,0,1,75.43,306.16Z"/><path class="cls-2" d="M60,327.85a7,7,0,0,1-.86-1L57,324c-1.85-2.39-4.41-5.68-7.27-9.3s-5.5-6.85-7.41-9.19c-.9-1.11-1.65-2-2.25-2.78a7.66,7.66,0,0,1-.78-1.07,6.16,6.16,0,0,1,.93.94c.58.62,1.39,1.53,2.38,2.68,2,2.28,4.66,5.49,7.53,9.1s5.39,7,7.16,9.4c.89,1.23,1.6,2.23,2.07,2.93A5.83,5.83,0,0,1,60,327.85Z"/><path class="cls-2" d="M53.15,319a12.52,12.52,0,0,1-2.88-5.38,15.27,15.27,0,0,1-.65-5.43l.23,0c-.11.41-.18.63-.22.62s-.05-.23,0-.66l.23,0a24.47,24.47,0,0,0,.92,5.28A38.09,38.09,0,0,0,53.15,319Z"/><path class="cls-2" d="M44.28,307.88a8.69,8.69,0,0,0-2-1.16,13.37,13.37,0,0,0-5.57-.45,34.72,34.72,0,0,0-5.61.91,15.37,15.37,0,0,1-2.32.55,8.2,8.2,0,0,1,2.22-.9,24.9,24.9,0,0,1,5.67-1.07,12.1,12.1,0,0,1,5.75.62A3.51,3.51,0,0,1,44.28,307.88Z"/><path class="cls-2" d="M42.18,305.18c0,.08-1.17-.47-3.08-1.12a32,32,0,0,0-7.67-1.58,31.6,31.6,0,0,0-7.83.4c-2,.35-3.18.73-3.21.64a3,3,0,0,1,.82-.35,18.12,18.12,0,0,1,2.32-.65,27.22,27.22,0,0,1,15.7,1.2,20.36,20.36,0,0,1,2.2,1A2.78,2.78,0,0,1,42.18,305.18Z"/><path class="cls-2" d="M59.94,293.76A64.32,64.32,0,0,1,57.7,286,63.1,63.1,0,0,1,56,278a66,66,0,0,1,2.24,7.79A63,63,0,0,1,59.94,293.76Z"/><path class="cls-2" d="M60.08,293.76a36.84,36.84,0,0,0-2.48-4.67,20.44,20.44,0,0,0-3.66-3.78,3.57,3.57,0,0,1,1.41.73A11.33,11.33,0,0,1,58,288.79,10.27,10.27,0,0,1,60.08,293.76Z"/><path class="cls-2" d="M60,396.44c-.06,0-.16-.86-.57-2.38a34.11,34.11,0,0,0-2.39-6.2c-2.48-5.06-7-11.47-12.7-17.9-2.84-3.24-5.59-6.3-7.93-9.22a65,65,0,0,1-5.66-8.17,39,39,0,0,1-2.86-6.07c-.27-.75-.46-1.33-.57-1.73a2.64,2.64,0,0,1-.14-.62s.3.82.89,2.28a44.19,44.19,0,0,0,3,5.95,70.24,70.24,0,0,0,5.72,8.06c2.35,2.89,5.1,5.93,8,9.18,5.73,6.44,10.23,12.94,12.64,18.08A30.78,30.78,0,0,1,59.61,394c.16.78.28,1.38.32,1.8A2.71,2.71,0,0,1,60,396.44Z"/><path class="cls-2" d="M88.27,364.49a14.16,14.16,0,0,1-1.48.83,32.82,32.82,0,0,0-3.85,2.54,44.65,44.65,0,0,0-5,4.61c-1.77,1.87-3.6,4-5.46,6.38-3.73,4.67-7.21,8.81-9.3,12.11-1.06,1.64-1.83,3-2.34,4a12.27,12.27,0,0,1-.81,1.49,1.4,1.4,0,0,1,.13-.42c.12-.26.27-.66.5-1.16a36.87,36.87,0,0,1,2.21-4.09c2-3.39,5.48-7.58,9.2-12.25,1.87-2.33,3.72-4.51,5.53-6.38a41,41,0,0,1,5.17-4.57,27.12,27.12,0,0,1,4-2.43c.5-.25.9-.4,1.16-.51S88.26,364.47,88.27,364.49Z"/><path class="cls-2" d="M88.82,374.85a21,21,0,0,1-3.13.46,41.39,41.39,0,0,0-7.43,1.46,22.42,22.42,0,0,0-6.66,3.5c-1.53,1.18-2.26,2.16-2.33,2.1a2.86,2.86,0,0,1,.47-.72A11.59,11.59,0,0,1,71.37,380a20.11,20.11,0,0,1,6.73-3.7,33.88,33.88,0,0,1,7.55-1.34A18.26,18.26,0,0,1,88.82,374.85Z"/><path class="cls-2" d="M70.19,381.24c-.17-.1,1.25-2.25,2.34-5.16s1.27-5.49,1.46-5.46a5.23,5.23,0,0,1-.06,1.68,18,18,0,0,1-.91,4,19.31,19.31,0,0,1-1.82,3.63A5.22,5.22,0,0,1,70.19,381.24Z"/><path class="cls-2" d="M97.43,336.65a1.9,1.9,0,0,1-.5.27l-1.47.67c-.65.28-1.43.63-2.31,1.09s-1.92.93-3,1.58l-1.71,1c-.59.34-1.18.74-1.8,1.13-1.26.77-2.52,1.71-3.87,2.67a66.59,66.59,0,0,0-14.91,15.43c-.91,1.38-1.81,2.67-2.53,4-.37.64-.76,1.24-1.08,1.84L63.34,368c-.61,1.1-1,2.15-1.47,3.05s-.76,1.69-1,2.35l-.62,1.49a2.2,2.2,0,0,1-.25.51,1.83,1.83,0,0,1,.15-.54c.14-.41.31-.92.53-1.54s.52-1.47.93-2.39.82-2,1.41-3.09l.89-1.77c.32-.61.69-1.22,1.06-1.87.71-1.3,1.6-2.61,2.51-4a64,64,0,0,1,15-15.54c1.36-1,2.64-1.89,3.92-2.65.63-.38,1.23-.78,1.83-1.12l1.74-.95c1.09-.62,2.14-1.07,3-1.51s1.7-.77,2.36-1l1.51-.58Z"/><path class="cls-2" d="M75,351.66a3.72,3.72,0,0,1,1.23-1.84,7.79,7.79,0,0,1,5-1.9,13.47,13.47,0,0,1,5.22,1,7.66,7.66,0,0,1,2,1,12.32,12.32,0,0,1-2.1-.61,15.59,15.59,0,0,0-5.08-.85,8.1,8.1,0,0,0-4.74,1.66A15.18,15.18,0,0,0,75,351.66Z"/><path class="cls-2" d="M71.69,355.11a18.15,18.15,0,0,0,1.41-4.58,19.13,19.13,0,0,0-.31-4.79,3.18,3.18,0,0,1,.58,1.34,9.43,9.43,0,0,1-.8,6.86C72.13,354.74,71.74,355.15,71.69,355.11Z"/><path class="cls-1" d="M35.23,401.58c.77,13.69,4.9,27.61,11.25,41.69H74.07c6.06-13.94,9.9-27.84,10.58-41.69Z"/><path class="cls-1" d="M80.18,423.73c0,.15-9.09.26-20.3.26s-20.29-.11-20.29-.26,9.08-.26,20.29-.26S80.18,423.59,80.18,423.73Z"/><path class="cls-1" d="M79.56,428.69c0,.15-8.52.26-19,.26s-19-.11-19-.26,8.52-.26,19-.26S79.56,428.55,79.56,428.69Z"/><path class="cls-1" d="M46.92,410.57a39.46,39.46,0,0,1,.26,6.35,39.54,39.54,0,0,1-.26,6.36,77.8,77.8,0,0,1,0-12.71Z"/><path class="cls-1" d="M61.71,410.57a83.39,83.39,0,0,1,0,13.16,83.39,83.39,0,0,1,0-13.16Z"/><path class="cls-1" d="M75.59,410.46a86.71,86.71,0,0,1,0,13.42,86.71,86.71,0,0,1,0-13.42Z"/><path class="cls-1" d="M83.77,410.57c0,.14-10.65.26-23.8.26s-23.8-.12-23.8-.26,10.65-.26,23.8-.26S83.77,410.42,83.77,410.57Z"/><path class="cls-1" d="M618.44,28.09a25.82,25.82,0,1,0-48.08,13h0l.07.1c1,1.67,2.23,2.86,3.49,4.62l15,19.86a4.66,4.66,0,0,0,7.44,0l14.74-19.54a54.57,54.57,0,0,0,3.75-5l.06-.08h0A25.63,25.63,0,0,0,618.44,28.09ZM592.62,39.33A11.36,11.36,0,1,1,604,28,11.37,11.37,0,0,1,592.62,39.33Z"/><rect class="cls-1" x="7.96" y="117.95" width="99.99" height="96.73" transform="translate(-27.96 12.57) rotate(-9.99)"/><polygon class="cls-2" points="23.3 213.13 41.91 159.31 69.71 186.72 80.31 167.69 106.5 198.48 23.3 213.13"/><path class="cls-1" d="M72,144.18a7.19,7.19,0,1,1-8.33-5.84A7.19,7.19,0,0,1,72,144.18Z"/><g class="cls-3"><path class="cls-1" d="M106.55,198.74a2.41,2.41,0,0,1-.09-.39c-.06-.28-.13-.64-.22-1.1-.19-1-.46-2.44-.8-4.28l-3-16.16c-2.5-13.91-6.06-33.71-10.33-57.49l.47.33L9.44,134.37l.38-.54v.06l0,.09,0,.17.06.34.12.68.24,1.36.47,2.7c.32,1.8.63,3.6,1,5.38q.94,5.35,1.86,10.61c1.23,7,2.44,13.86,3.61,20.53,2.33,13.34,4.54,26,6.57,37.57l-.49-.34,60.2-10.38,17-2.88L105,199l1.17-.18a2.47,2.47,0,0,1,.42,0,1.37,1.37,0,0,1-.36.09l-1.12.22-4.41.83L83.8,203,23.42,213.8l-.41.07-.07-.41c-2.06-11.6-4.3-24.21-6.66-37.55-1.18-6.67-2.39-13.53-3.63-20.53q-.92-5.25-1.87-10.6c-.31-1.79-.63-3.58-.94-5.38l-.48-2.71-.24-1.36L9,134.66l-.06-.34,0-.18,0-.08V134c-.34.48.47-.69.4-.57l83.2-14.58.4-.07.07.4c4.13,23.91,7.56,43.83,10,57.82,1.17,6.9,2.09,12.34,2.73,16.1.3,1.82.53,3.22.69,4.22.07.45.13.8.17,1.07A2.59,2.59,0,0,1,106.55,198.74Z"/></g><rect class="cls-1" x="12.6" y="21.75" width="38.93" height="57.76" transform="translate(-23.75 72.45) rotate(-79.01)"/><path class="cls-2" d="M64.22,37.52a4.29,4.29,0,0,1-.63.41L61.75,39,54.9,42.88,32.16,55.54l-.19.1-.14-.16-.34-.4-17-20.14c-2.13-2.56-3.87-4.64-5.11-6.14L8,27.12a3.62,3.62,0,0,1-.45-.61,3.79,3.79,0,0,1,.53.54l1.44,1.62,5.25,6,17.15,20,.34.4-.33-.06L54.72,42.56l6.93-3.73,1.89-1A3.54,3.54,0,0,1,64.22,37.52Z"/><path class="cls-1" d="M.09,64.73c-.09-.12,5.19-4.53,11.8-9.85s12-9.56,12.12-9.45S18.82,50,12.22,55.28.18,64.84.09,64.73Z"/><path class="cls-1" d="M43,48.62c.13-.07,3.34,6,7.16,13.44s6.81,13.61,6.69,13.68-3.34-5.95-7.16-13.44S42.83,48.68,43,48.62Z"/><path class="cls-1" d="M616.18,204.76l-55.59-19.45a7.37,7.37,0,0,1-4.52-9.39L583,99a7.37,7.37,0,0,1,9.39-4.52l35.26,12.34,17.44,37.68-19.51,55.77A7.36,7.36,0,0,1,616.18,204.76Z"/><path class="cls-1" d="M627.64,106.79l-7.58,21.65a6.86,6.86,0,0,0,4.2,8.74l20.82,7.29Z"/><path class="cls-1" d="M619.68,130.44s-2.11,5.16,3.26,9c.2.14.42.27.63.39,2.55,1.44,19.33,10.89,19.48,10.47s2-5.81,2-5.81l-20.82-7.29S619.13,135.18,619.68,130.44Z"/><path class="cls-2" d="M615.71,125.93c-.1.28-5.94-1.51-13-4s-12.78-4.72-12.68-5,5.93,1.51,13,4S615.8,125.65,615.71,125.93Z"/><path class="cls-2" d="M628,144c-.1.28-9.65-2.81-21.34-6.9s-21.09-7.63-21-7.91,9.65,2.81,21.34,6.9S628.13,143.71,628,144Z"/><path class="cls-2" d="M628.27,155.54c-.1.28-10.51-3.11-23.25-7.57s-23-8.29-22.9-8.57,10.51,3.11,23.25,7.57S628.36,155.26,628.27,155.54Z"/><path class="cls-2" d="M624.89,165.19c-.1.28-10.51-3.11-23.24-7.57s-23-8.3-22.9-8.58,10.5,3.11,23.25,7.57S625,164.91,624.89,165.19Z"/><path class="cls-2" d="M621.52,174.84c-.1.27-10.51-3.12-23.25-7.57s-23-8.3-22.9-8.58,10.51,3.11,23.25,7.57S621.61,174.56,621.52,174.84Z"/><path class="cls-2" d="M618.14,184.48c-.1.28-10.51-3.11-23.25-7.57s-23-8.3-22.89-8.57,10.5,3.11,23.25,7.57S618.24,184.2,618.14,184.48Z"/><path class="cls-1" d="M598.68,355.81a20.82,20.82,0,0,1,5-2.18l1-5,8.39-.14,1.21,4.92a20.37,20.37,0,0,1,5.09,2l4.25-2.78,6,5.83-2.63,4.33a20.82,20.82,0,0,1,2.18,5l5,1,.15,8.39-4.93,1.21a20.49,20.49,0,0,1-2,5.09l2.78,4.24-5.83,6-4.34-2.63a20.11,20.11,0,0,1-5,2.18l-1,5-8.39.15-1.21-4.93a20.49,20.49,0,0,1-5.09-2l-4.24,2.78-6-5.83,2.63-4.34a20.85,20.85,0,0,1-2.19-5l-5-1-.15-8.4,4.93-1.2a20.56,20.56,0,0,1,2-5.1l-2.78-4.24,5.83-6,4.34,2.63ZM603.15,367a9,9,0,1,0,12.74-.22A9,9,0,0,0,603.15,367Z"/><path class="cls-1" d="M461.94,27.78a22.82,22.82,0,0,1,5.54-2.41l1.15-5.49,9.27-.16,1.33,5.44a22.61,22.61,0,0,1,5.63,2.22l4.68-3.07,6.67,6.44-2.9,4.79a22.82,22.82,0,0,1,2.41,5.54l5.49,1.14.16,9.28-5.44,1.33a22.76,22.76,0,0,1-2.22,5.63l3.07,4.68-6.44,6.67-4.79-2.9A22.82,22.82,0,0,1,480,69.32l-1.14,5.48-9.28.17-1.33-5.45a22.51,22.51,0,0,1-5.62-2.21L458,70.38l-6.67-6.44,2.9-4.79a22.82,22.82,0,0,1-2.41-5.54l-5.48-1.15-.17-9.27,5.45-1.33a22.73,22.73,0,0,1,2.21-5.63l-3.07-4.68,6.44-6.67,4.79,2.9Zm4.94,12.35A10,10,0,1,0,481,39.88,10,10,0,0,0,466.88,40.13Z"/></g></g></svg>