<svg xmlns="http://www.w3.org/2000/svg" viewBox="0 0 69.88 118.91"><defs><style>.cls-1{fill:#e0e0e0;}.cls-2{fill:#fff;}.cls-3{fill:#ffbe9d;}.cls-4{opacity:0.3;}.cls-5{fill:#eb996e;}.cls-6{fill:#263238;}</style></defs><g id="Calque_2" data-name="Calque 2"><g id="Character_2" data-name="Character 2"><path class="cls-1" d="M15.41,47.68S4.3,51.49,2.92,58.88,0,76.43,0,76.43l16.81-.94Z"/><polygon class="cls-2" points="24.82 44.08 14.41 48.08 12.24 101.19 10.85 118.91 62.87 118.91 56.64 47.68 40.41 44.29 24.82 44.08"/><path class="cls-1" d="M69.88,74.06S67.27,49.18,56.64,47.68L52.16,64.15v9.91Z"/><path class="cls-3" d="M16.06,77.6s3.76-1.8,5.54-1.17,9.2,4.12,9.2,4.12l-14,4.63-3.45-3.94Z"/><g class="cls-4"><path d="M61.33,98a8.56,8.56,0,0,0-5.09-4.51,25.35,25.35,0,0,0-6.88-1.21L29.75,90.72a18.78,18.78,0,0,0-7.4.37c-4.19,1.37-7.76,5.52-10.07,9.27v.88c2,1.49,4.77,1.47,7.19.86s4.7-1.72,7.14-2.24c4.58-1,9.32.19,13.86,1.36l12.46,3.2c2.24.57,4.78,1.1,6.73-.15A5.24,5.24,0,0,0,61.33,98Z"/></g><path class="cls-3" d="M1.33,76.43S.86,94.64,4.78,98s6.34,2.81,10.63,2.25S44.32,87.36,44.32,87.36l-2.61-8.81L16.16,83.23,16,75.49Z"/><path class="cls-3" d="M67.83,74.06s1.12,20.39,0,23-5.22,5.42-9.7,4.68-28.49-7.3-28.51-7.29S38,85.66,38,85.66l17.35-.38L54.21,74.06Z"/><path class="cls-3" d="M54.21,76.43c-4.83-3.46-12.5,2.12-12.5,2.12v.94l1.92,6.31,11.7-.52S57.33,78.66,54.21,76.43Z"/><path class="cls-5" d="M55,85.18a18.94,18.94,0,0,1-2.82.24c-1.78.09-4.28.2-7.19.3l.13,0c-1.07.72-2.24,1.48-3.47,2.25-3.32,2.07-6.45,3.75-8.75,4.89-1.14.57-2.09,1-2.74,1.29a4.6,4.6,0,0,1-1.05.4,5,5,0,0,1,1-.58l2.66-1.44c2.25-1.22,5.33-2.94,8.65-5,1.22-.76,2.39-1.51,3.47-2.22l.06,0h.07c2.9-.07,5.41-.11,7.19-.12A18.89,18.89,0,0,1,55,85.18Z"/><path class="cls-5" d="M54.21,74.06a13.8,13.8,0,0,1,.36,2.6c.15,1.61.33,3.83.5,6.29,0,.77.09,1.51.13,2.21L55.1,85a17.47,17.47,0,0,1,3.4,3.46,5.77,5.77,0,0,1,1,1.66,29,29,0,0,0-4.67-4.72l-.09-.07v-.12c-.05-.7-.1-1.44-.15-2.2-.17-2.46-.29-4.69-.35-6.31A13.33,13.33,0,0,1,54.21,74.06Z"/><path class="cls-5" d="M33.36,80.08a24,24,0,0,1-3.39.81c-2.1.43-5,1-8.24,1.58l-5.53,1,.13-.08c-1.19,1.44-2.21,2.63-2.93,3.46a8.94,8.94,0,0,1-1.19,1.25,7.81,7.81,0,0,1,1-1.42c.66-.88,1.63-2.11,2.79-3.58L16,83l.08,0,5.52-1c3.23-.59,6.15-1.1,8.28-1.44A22.72,22.72,0,0,1,33.36,80.08Z"/><path class="cls-5" d="M16,75.49a14.82,14.82,0,0,1,.33,3.86,14.82,14.82,0,0,1-.19,3.88,14,14,0,0,1-.33-3.87A14.18,14.18,0,0,1,16,75.49Z"/><path class="cls-6" d="M14.41,60.87a68.16,68.16,0,0,1,1.08,8.34,64.83,64.83,0,0,1,.56,8.39A70.59,70.59,0,0,1,15,69.26,69.32,69.32,0,0,1,14.41,60.87Z"/><path class="cls-6" d="M55.09,59A63,63,0,0,1,55,67.18a66.16,66.16,0,0,1-.65,8.16,62.06,62.06,0,0,1,.13-8.18A65.35,65.35,0,0,1,55.09,59Z"/><path class="cls-6" d="M55.1,16.73c-1.22-1.31-2.7-2.56-3.13-4.3S52.15,9,51.3,7.56c-1-1.75-3.65-1.9-4.9-3.5-.6-.78-.82-1.81-1.42-2.59C44,.14,42.06-.16,40.4.07S37.15,1,35.49,1.12c-2.29.23-4.68-.44-6.86.29-2.4.8-3.82,3-5.34,5.14L21.31,9A8.21,8.21,0,0,1,20,10.19a16.2,16.2,0,0,0-2.55,1.75,4.09,4.09,0,0,0,.45,5.86,4.36,4.36,0,0,0-2.79,4.35A12.67,12.67,0,0,0,16,25.08a4.39,4.39,0,0,1,.18,3,1.9,1.9,0,0,1-2.46,1.15,4.61,4.61,0,0,0,2.59,3,2.78,2.78,0,0,1-1.81.87c2,4.32,7.13,6.46,11.87,6.33s9.23-2.08,13.58-4l12.67-3.75c1.11-.29,1.53-1.68,1.48-2.83a9,9,0,0,1,0-3.44c.51-1.49,2.2-2.33,2.74-3.82C57.41,19.88,56.33,18.05,55.1,16.73Z"/><path class="cls-6" d="M25.26,29.41a52.43,52.43,0,0,1-2.54-8.75,18.32,18.32,0,0,1,.46-9c.15-.44,1.43-3.38,1.89-3.35s-.44,2.75-.26,3a15.76,15.76,0,0,1,2,9.07,41.18,41.18,0,0,1-1.56,9"/><path class="cls-3" d="M36.5,3.35l-.7,0c-7.61.26-11.64,6.88-11.17,14.49l.19,26.26a8.91,8.91,0,0,0,8.5,8.85h0a8.91,8.91,0,0,0,9.3-8.65c0-1.38.08-2.35.08-2.35s7.33-1,7.6-8.27c.13-3.53-.19-10.83-.56-17.43A13.61,13.61,0,0,0,36.5,3.35Z"/><path class="cls-5" d="M42.7,41.93a17.55,17.55,0,0,1-9.43-3s2.18,5.38,9.48,4.9Z"/><path class="cls-6" d="M46.61,22.21a1,1,0,0,1-1,1,1,1,0,0,1-1-1,1.05,1.05,0,0,1,1-1A1,1,0,0,1,46.61,22.21Z"/><path class="cls-6" d="M48.11,19.22c-.13.14-.91-.47-2-.49s-2,.51-2.08.37.08-.3.45-.56a2.87,2.87,0,0,1,1.66-.47,2.81,2.81,0,0,1,1.61.57C48.06,18.91,48.17,19.16,48.11,19.22Z"/><path class="cls-6" d="M36.1,22.21a1,1,0,0,1-1,1,1,1,0,0,1-1-1,1.05,1.05,0,0,1,1-1A1,1,0,0,1,36.1,22.21Z"/><path class="cls-6" d="M37.11,19.4c-.13.14-.91-.47-2-.49s-1.95.51-2.07.37.08-.3.44-.55a2.81,2.81,0,0,1,1.67-.47,2.74,2.74,0,0,1,1.61.56C37.07,19.1,37.18,19.34,37.11,19.4Z"/><path class="cls-6" d="M40.92,28.15a7.16,7.16,0,0,1,1.83-.29c.29,0,.56-.07.61-.27a1.41,1.41,0,0,0-.17-.85c-.25-.7-.51-1.44-.79-2.21a36.7,36.7,0,0,1-1.76-5.77,37.64,37.64,0,0,1,2.22,5.61c.26.78.52,1.52.76,2.22a1.74,1.74,0,0,1,.12,1.14.73.73,0,0,1-.48.4,2.41,2.41,0,0,1-.49.06A7.87,7.87,0,0,1,40.92,28.15Z"/><path class="cls-6" d="M37.6,28.84c.18,0,.16,1.22,1.18,2.11s2.32.79,2.32,1-.29.23-.84.23a3,3,0,0,1-1.94-.73,2.65,2.65,0,0,1-.91-1.77C37.38,29.13,37.52,28.83,37.6,28.84Z"/><path class="cls-6" d="M37.16,14.84c-.11.3-1.23.13-2.55.26s-2.39.46-2.56.18.12-.42.55-.7A4.26,4.26,0,0,1,34.51,14a4.18,4.18,0,0,1,2,.28C37,14.45,37.22,14.7,37.16,14.84Z"/><path class="cls-6" d="M47.74,15.47c-.21.25-1,0-1.9-.07s-1.72.13-1.89-.14,0-.38.4-.62a2.73,2.73,0,0,1,3.06.18C47.73,15.09,47.83,15.35,47.74,15.47Z"/><path class="cls-3" d="M25.09,23.25c-.12-.05-5-1.61-4.94,3.4s5,3.94,5.05,3.79S25.09,23.25,25.09,23.25Z"/><path class="cls-5" d="M23.66,28.56s-.09.06-.24.13a.88.88,0,0,1-.65,0,2.16,2.16,0,0,1-1-1.93A2.94,2.94,0,0,1,22,25.53a1,1,0,0,1,.65-.68.44.44,0,0,1,.51.24c.07.14,0,.24.07.25s.1-.09.06-.29a.57.57,0,0,0-.2-.32.68.68,0,0,0-.48-.12,1.23,1.23,0,0,0-.9.78,2.91,2.91,0,0,0-.29,1.4,2.26,2.26,0,0,0,1.28,2.15.92.92,0,0,0,.79-.14C23.65,28.68,23.67,28.57,23.66,28.56Z"/><path class="cls-6" d="M46.38,8c.8-.46-1.66-3-3.66-3.91C39.69,2.75,35.1,2,32.34,2.81c-3.31,1-6.05,2.71-7.68,5.78a19.75,19.75,0,0,0-2,10.08,5.93,5.93,0,0,0,.75,3c.71,1.1,2.06,1.77,2,3.3a2.1,2.1,0,0,0,.54,1.52c.93,1,2,0,2.53-.9,1.07-2,1.15-4.32,1.22-6.57a14.53,14.53,0,0,0-.4-4.75c-.25-.83-.66-1.62-.87-2.46a3.05,3.05,0,0,1,.31-2.51,4.83,4.83,0,0,1,.4-.41,5.19,5.19,0,0,1,5.15-1.07c2.83,1,7.65,2.36,8.89,1.39A7.64,7.64,0,0,0,45.37,7Z"/><path class="cls-6" d="M32.59,2.13A10.91,10.91,0,0,1,41,2.46,5.74,5.74,0,0,1,44.1,5.73a3.29,3.29,0,0,1-1.58,3.92l-.09.06c-2.12.75-3.51.49-5.65-.21-1.79-.6-3.4-1.68-5.2-2.26a10.11,10.11,0,0,0-5.94-.08A16.52,16.52,0,0,1,32.59,2.13Z"/></g></g></svg>