<svg xmlns="http://www.w3.org/2000/svg" viewBox="0 0 462.24 384.31"><defs><style>.cls-1{fill:#455a64;}.cls-2{fill:#263238;}.cls-3{fill:#fff;}.cls-4{fill:#ebebeb;}</style></defs><g id="Calque_2" data-name="Calque 2"><g id="Device"><path class="cls-1" d="M448.66,0H13.58A13.58,13.58,0,0,0,0,13.58v307.3a13.58,13.58,0,0,0,13.58,13.59h167s10.62,32.84-22.3,49.84H314.39s-37.17-12.75-27.61-49.84H448.66a13.58,13.58,0,0,0,13.58-13.58V13.58A13.58,13.58,0,0,0,448.66,0Z"/><path class="cls-2" d="M236.93,302.15c5.92,8.46-3.35,17.72-11.81,11.8a2.78,2.78,0,0,1-.72-.73c-5.91-8.45,3.35-17.71,11.8-11.8A3,3,0,0,1,236.93,302.15Z"/><path class="cls-3" d="M17.19,5.63H445.05a9.7,9.7,0,0,1,9.7,9.7V278.25a0,0,0,0,1,0,0H7.49a0,0,0,0,1,0,0V15.33A9.7,9.7,0,0,1,17.19,5.63Z"/><path class="cls-4" d="M16.64,5.63H447.23a7.52,7.52,0,0,1,7.52,7.52V28.28a0,0,0,0,1,0,0H7.49a0,0,0,0,1,0,0V14.78A9.15,9.15,0,0,1,16.64,5.63Z"/><path class="cls-2" d="M370.87,334.51c0,.14-61.91.26-138.26.26s-138.28-.12-138.28-.26,61.9-.26,138.28-.26S370.87,334.37,370.87,334.51Z"/></g></g></svg>