<svg xmlns="http://www.w3.org/2000/svg" viewBox="0 0 64.22 100.41"><defs><style>.cls-1{isolation:isolate;}.cls-2{fill:#ffb31a;}.cls-3{fill:#ff931d;}.cls-4{fill:#ffc82e;}.cls-5{fill:#29477c;}.cls-6{fill:#9ea9bd;mix-blend-mode:multiply;}</style></defs><g class="cls-1"><g id="Calque_2" data-name="Calque 2"><g id="OBJECTS"><path class="cls-2" d="M31.93,61.26c-.29-1.07-.59-2.13-.88-3.2-1.05-5.35-2.09-10.71-3.6-16A95,95,0,0,0,15.36,16c-1.66-2.49-3.42-4.91-5.3-7.23Q8.65,7,7.15,5.3a17.91,17.91,0,0,0-3-3.15c-.19.42.07,1.06.12,1.53a12.49,12.49,0,0,1,.07,2,12.94,12.94,0,0,1-.81,4c-.69,1.87-1.82,3.58-2.37,5.51s-.36,4.27,1.18,5.55c.61.5,1.37.79,2,1.23,2.81,1.86.27,5.74-1.1,7.73C1.8,31.89.1,34.15,0,36.78c-.12,3.49,2.67,6.44,5.71,8.16s6.49,2.65,9.39,4.6a16.12,16.12,0,0,1,7,12.63C25.61,62.1,28.42,61.33,31.93,61.26Z"/><path class="cls-3" d="M52,8.81C50.24,6.09,48.26,3.24,48.63,0A232,232,0,0,0,29.51,62.17l5.68,1a16.58,16.58,0,0,1,6.53-12.57c2-1.49,4.26-2.51,6.2-4s3.56-3.8,3.38-6.26c-.3-4-5.08-6.68-5-10.69,0-2.45,1.87-4.47,3.71-6.08s3.91-3.23,4.63-5.58C55.56,14.8,53.83,11.54,52,8.81Z"/><path class="cls-2" d="M64.17,32.92c-.27-2-1.35-3.75-2.08-5.61s-1.35-4.4-.21-6a95.59,95.59,0,0,0-23,29.25,34.24,34.24,0,0,0-3.17,8.26l6.94.83a5.65,5.65,0,0,1,2.73-4c1.38-1,3-1.6,4.29-2.63a5.05,5.05,0,0,0,2.25-4.26c-.14-1.3-1-2.47-1-3.78.08-1.71,1.76-2.93,3.41-3.38s3.42-.41,5-1A7.34,7.34,0,0,0,64.17,32.92Z"/><path class="cls-4" d="M34.78,31a62.62,62.62,0,0,0-14-25.23,13.69,13.69,0,0,1-4,14.29c-1.13,1-2.41,1.74-3.54,2.7a6.7,6.7,0,0,0-2.39,3.65c-.41,2.14.81,4.29,2.42,5.75a55.44,55.44,0,0,0,5.37,3.69c1.78,1.26,3.41,3,3.77,5.12.67,4-3.39,7.79-2.64,11.82a7,7,0,0,0,4,4.69A19.87,19.87,0,0,0,29.91,59c1.3.16,2.6.32,3.87.6.88.2,1.52.52,2.1-.29,1-1.43.85-4.77,1-6.47a62.53,62.53,0,0,0-.46-14.14A62.75,62.75,0,0,0,34.78,31Z"/><path class="cls-5" d="M20,55.7a42.12,42.12,0,0,0-3.21,16.6c0,15.53,7.43,28.11,16.61,28.11S50,87.83,50,72.3a42.12,42.12,0,0,0-3.22-16.6Z"/><path class="cls-6" d="M46.76,55.7H41.68a45.43,45.43,0,0,1,1.08,10c0,15.52-7.44,28.1-16.61,28.1a10.36,10.36,0,0,1-4.06-.84c3,4.63,6.92,7.47,11.28,7.47C42.54,100.41,50,87.83,50,72.3A42.12,42.12,0,0,0,46.76,55.7Z"/></g></g></g></svg>