<svg xmlns="http://www.w3.org/2000/svg" viewBox="0 0 116.01 372.12"><defs><style>.cls-1{fill:#455a64;}.cls-2{fill:#e0e0e0;}.cls-3{opacity:0.6;}.cls-4{fill:#fff;}.cls-5{fill:#263238;}.cls-6{fill:#ffbe9d;}.cls-7{fill:#eb996e;}.cls-8{opacity:0.3;}.cls-9{fill:#ff725e;}</style></defs><g id="Calque_2" data-name="Calque 2"><g id="Character_1" data-name="Character 1"><path class="cls-1" d="M38.41,326.1,25.8,346.4S42.2,366,40.24,370L0,347l18.35-32.43Z"/><path class="cls-2" d="M14.36,337.53a1.89,1.89,0,0,0-2.21,1.22,1.83,1.83,0,0,0,1.2,2.21,2,2,0,0,0,2.33-1.31,1.9,1.9,0,0,0-1.5-2.16"/><g class="cls-3"><path class="cls-4" d="M0,347l2-3.19,37.84,23.28s1.34,1.8.42,2.95Z"/></g><path class="cls-5" d="M26.57,346.56c-.12.2-1.15-.28-2.48-.2s-2.31.61-2.45.43.81-1.15,2.42-1.21S26.72,346.41,26.57,346.56Z"/><path class="cls-5" d="M29.79,350.73c-.06.21-1.1.06-2.24.51s-1.84,1.22-2,1.1.32-1.31,1.75-1.84S29.9,350.54,29.79,350.73Z"/><path class="cls-5" d="M29.3,357.15c-.2-.06.09-1.2,1.21-2s2.28-.69,2.27-.47-.91.46-1.82,1.12S29.51,357.24,29.3,357.15Z"/><path class="cls-5" d="M28.93,341.62c-.18.13-.93-.66-2.08-1.22s-2.22-.7-2.23-.93,1.23-.45,2.58.23S29.12,341.52,28.93,341.62Z"/><path class="cls-1" d="M36.67,334.44l-1.36,23.85s23.79,9.4,24,13.83l-46.36-1,.6-37.26Z"/><path class="cls-2" d="M21,356a1.9,1.9,0,0,0-1.35,2.14,1.82,1.82,0,0,0,2.1,1.36,2,2,0,0,0,1.42-2.27A1.89,1.89,0,0,0,20.84,356"/><g class="cls-3"><path class="cls-4" d="M12.92,371.15l.21-3.76,44.37,2.34s2,.94,1.78,2.39Z"/></g><path class="cls-5" d="M36.06,358.07c0,.23-1.14.31-2.27,1s-1.75,1.65-1.95,1.55.16-1.39,1.54-2.22S36.12,357.87,36.06,358.07Z"/><path class="cls-5" d="M40.88,360.19c0,.22-.94.58-1.73,1.52s-1,2-1.26,1.94-.34-1.3.67-2.45S40.88,360,40.88,360.19Z"/><path class="cls-5" d="M43.52,366.06c-.21.05-.5-1.09.11-2.32s1.68-1.69,1.77-1.5-.58.84-1.06,1.85S43.75,366.05,43.52,366.06Z"/><path class="cls-5" d="M35.77,352.6c-.1.21-1.13-.13-2.41-.07s-2.29.45-2.4.25.86-1,2.37-1S35.88,352.43,35.77,352.6Z"/><path class="cls-5" d="M76.47,182.14s-3.11,75.59-5,82.62-41.16,78.9-41.16,78.9L6.61,332,38,256.15V182.92Z"/><path class="cls-5" d="M15.76,182.14s-2.48,18.4-1.2,20.32,3.51,8,3.51,8l-1.92,59.1-5.75,86.9H38l11.84-76.63s4.15-7,5.75-13.1,11-66.45,11-66.45V177Z"/><path class="cls-1" d="M69.68,185.37a3.09,3.09,0,0,1-.05.45c0,.32-.1.76-.18,1.31-.18,1.18-.43,2.87-.76,5C68,196.54,67,202.84,65.8,210.62S63.08,227.69,61.44,238c-.84,5.15-1.67,10.56-2.63,16.16a99,99,0,0,1-4.3,17.07c-2.08,5.67-5,10.83-6,16.42-1.19,5.54-2,11-2.83,16.1-1.56,10.32-2.82,19.63-3.89,27.44s-1.93,14.15-2.58,18.51c-.33,2.18-.6,3.87-.81,5l-.24,1.3a3.34,3.34,0,0,1-.1.44,2.13,2.13,0,0,1,0-.45c.05-.32.11-.76.19-1.31.16-1.18.4-2.87.69-5,.58-4.41,1.4-10.73,2.41-18.53s2.24-17.14,3.77-27.46c.79-5.16,1.61-10.58,2.8-16.15,1-5.68,4-10.89,6.06-16.5a98.83,98.83,0,0,0,4.28-17c1-5.58,1.81-11,2.66-16.14l4.49-27.35c1.29-7.76,2.34-14.05,3.07-18.43.37-2.15.66-3.83.87-5l.24-1.3A2.06,2.06,0,0,1,69.68,185.37Z"/><path class="cls-1" d="M13.49,309.76a10.82,10.82,0,0,1,0,1.83c0,1.18-.12,2.88-.24,5-.24,4.2-.66,10-1.14,16.39s-.9,12.18-1.18,16.38c-.13,2-.24,3.69-.33,5a11,11,0,0,1-.18,1.81,11.23,11.23,0,0,1,0-1.82c0-1.18.06-2.88.15-5,.17-4.21.52-10,1-16.41s1-12.08,1.3-16.37c.17-2,.32-3.69.42-5A11.23,11.23,0,0,1,13.49,309.76Z"/><path class="cls-5" d="M76.18,24.49c-1.79-1.93-4-3.75-4.58-6.31-.57-2.35.26-5-1-7.12-1.53-2.56-5.34-2.78-7.17-5.12-.89-1.14-1.2-2.64-2.07-3.78C59.88.21,57.1-.23,54.67.1s-4.75,1.29-7.19,1.54c-3.35.34-6.84-.65-10,.42-3.52,1.18-5.6,4.4-7.81,7.52l-2.9,3.64a14.4,14.4,0,0,1-2,1.7,24.08,24.08,0,0,0-3.73,2.55A6,6,0,0,0,21.71,26a6.35,6.35,0,0,0-4.08,6.38,18.15,18.15,0,0,0,1.28,4.28,6.38,6.38,0,0,1,.26,4.38c-.55,1.39-2.27,2.39-3.59,1.69a6.68,6.68,0,0,0,3.78,4.35,4,4,0,0,1-2.65,1.28c2.93,6.32,10.43,9.45,17.38,9.26s13.5-3,19.86-5.85l18.53-5.49c1.63-.43,2.25-2.45,2.17-4.14s-.56-3.43,0-5c.75-2.19,3.22-3.42,4-5.59C79.56,29.09,78,26.41,76.18,24.49Z"/><path class="cls-5" d="M32.51,43a77.81,77.81,0,0,1-3.72-12.81A27.13,27.13,0,0,1,29.47,17c.22-.64,2.09-4.94,2.77-4.89.47,0-.64,4-.39,4.43A23,23,0,0,1,34.8,29.85,60.35,60.35,0,0,1,32.51,43"/><path class="cls-6" d="M49,4.9l-1,0c-11.12.37-17,10.05-16.34,21.2l.28,38.41a13,13,0,0,0,12.44,13h0A13.05,13.05,0,0,0,57.92,64.78c.06-2,.11-3.43.11-3.43S68.75,60,69.15,49.25c.19-5.17-.27-15.85-.81-25.51A19.93,19.93,0,0,0,49,4.9Z"/><path class="cls-7" d="M58,61.35a25.68,25.68,0,0,1-13.79-4.47s3,7.92,13.7,7.22Z"/><path class="cls-5" d="M65.68,32.5a1.52,1.52,0,0,1-1.5,1.5,1.46,1.46,0,0,1-1.54-1.42,1.53,1.53,0,0,1,1.51-1.5A1.45,1.45,0,0,1,65.68,32.5Z"/><path class="cls-5" d="M66,28.13c-.2.19-1.33-.69-3-.73s-2.87.75-3,.55.12-.45.65-.82A4.19,4.19,0,0,1,63,26.45a4.09,4.09,0,0,1,2.36.82C65.88,27.67,66,28,66,28.13Z"/><path class="cls-5" d="M49.91,32.5A1.53,1.53,0,0,1,48.4,34a1.46,1.46,0,0,1-1.54-1.42,1.53,1.53,0,0,1,1.51-1.5A1.46,1.46,0,0,1,49.91,32.5Z"/><path class="cls-5" d="M49.86,28.39c-.2.2-1.33-.69-3-.73s-2.86.76-3,.55.12-.44.65-.81a4.19,4.19,0,0,1,2.44-.69,4,4,0,0,1,2.36.83C49.79,27.94,50,28.3,49.86,28.39Z"/><path class="cls-5" d="M55.43,41.18a11.32,11.32,0,0,1,2.68-.41c.42,0,.82-.11.89-.4a2.11,2.11,0,0,0-.24-1.25c-.37-1-.76-2.1-1.16-3.23C56,31.29,54.84,27.52,55,27.45s1.64,3.62,3.25,8.21c.38,1.14.75,2.22,1.1,3.25a2.43,2.43,0,0,1,.18,1.66,1,1,0,0,1-.7.59,2.4,2.4,0,0,1-.72.08A10.94,10.94,0,0,1,55.43,41.18Z"/><path class="cls-5" d="M50.57,42.2c.27,0,.23,1.78,1.72,3.08s3.4,1.16,3.4,1.41-.43.33-1.23.34A4.46,4.46,0,0,1,51.62,46a3.88,3.88,0,0,1-1.33-2.58C50.24,42.62,50.45,42.18,50.57,42.2Z"/><path class="cls-5" d="M49.93,21.71c-.17.45-1.8.19-3.73.38s-3.5.67-3.75.26c-.11-.19.17-.61.81-1a6.2,6.2,0,0,1,2.8-.91,6.07,6.07,0,0,1,2.9.42C49.66,21.14,50,21.5,49.93,21.71Z"/><path class="cls-5" d="M65.41,22.64c-.3.37-1.42-.05-2.78-.1s-2.52.19-2.77-.21c-.11-.19.08-.56.59-.9a4,4,0,0,1,4.47.25C65.39,22.07,65.54,22.46,65.41,22.64Z"/><path class="cls-6" d="M32.27,34c-.18-.09-7.29-2.36-7.23,5s7.37,5.76,7.38,5.55S32.27,34,32.27,34Z"/><path class="cls-7" d="M30.17,41.79s-.13.08-.34.19a1.31,1.31,0,0,1-.95,0,3.16,3.16,0,0,1-1.48-2.82,4.3,4.3,0,0,1,.34-1.83,1.5,1.5,0,0,1,1-1,.65.65,0,0,1,.75.35c.1.2.05.35.09.36s.16-.12.1-.43a.83.83,0,0,0-.29-.45.94.94,0,0,0-.71-.18,1.77,1.77,0,0,0-1.32,1.14,4.38,4.38,0,0,0-.43,2.05c.06,1.47.82,2.85,1.88,3.15a1.33,1.33,0,0,0,1.16-.21C30.16,42,30.2,41.8,30.17,41.79Z"/><path class="cls-5" d="M63.42,11.68C64.59,11,61,7.23,58.06,6,53.64,4,46.91,2.9,42.88,4.11,38,5.58,34,8.07,31.64,12.56a29,29,0,0,0-3,14.76,8.76,8.76,0,0,0,1.1,4.46c1.05,1.6,3,2.59,3,4.83a3.07,3.07,0,0,0,.79,2.22c1.36,1.41,3,0,3.71-1.31,1.56-2.9,1.68-6.33,1.77-9.62A21.59,21.59,0,0,0,38.42,21c-.38-1.22-1-2.36-1.28-3.6a4.41,4.41,0,0,1,.46-3.66,4.41,4.41,0,0,1,.58-.61,7.59,7.59,0,0,1,7.54-1.57c4.14,1.4,11.19,3.46,13,2A11.51,11.51,0,0,0,62,10.17Z"/><path class="cls-5" d="M43.25,3.11A16,16,0,0,1,55.6,3.6a8.33,8.33,0,0,1,4.48,4.79c.64,2.16-.24,4.84-2.31,5.73l-.14.09c-3.1,1.1-5.13.71-8.25-.32-2.63-.86-5-2.44-7.62-3.3a14.88,14.88,0,0,0-8.69-.11A24.27,24.27,0,0,1,43.25,3.11Z"/><path class="cls-4" d="M16.73,125c-.43,9-3,60.36-3,60.36a87.3,87.3,0,0,0,36.51,3.79c19.57-2.41,27.86,1.33,27.86,1.33l-5.77-89.59L57.73,66.67s-20.45-2.78-25.86-2.18a44.53,44.53,0,0,0-5.52,4.09c-5.5,6.25-9.23,19.59-9.44,30.7Z"/><g class="cls-8"><path d="M47.7,103.71c-5.42-4.64-12.76-2.6-16.46-8.69a178.71,178.71,0,0,0,15,29.62,3.45,3.45,0,0,0,1.45,1.5c1.44.58,2.81-.83,4.12-1.67,2.42-1.55,5.66-1.14,8.24.12s4.72,3.26,7,5,5,3.17,7.89,3.08A188.2,188.2,0,0,0,47.7,103.71Z"/></g><path class="cls-6" d="M69.61,98.29l13.76,12.64L98.24,77.09,110.8,81.3s-13.5,50-17,53.87C89,140.39,81.11,139.68,77,136c-4.74-4.21-22.46-21.69-22.46-21.69Z"/><path class="cls-7" d="M83.36,119.2a13.2,13.2,0,0,1-.39-4.26,13,13,0,0,1,.49-4.25,27.1,27.1,0,0,1,0,4.26A26.27,26.27,0,0,1,83.36,119.2Z"/><path class="cls-6" d="M97.45,80.42l2.62-16.9a2.24,2.24,0,0,1,.83-1.44l1.12-.89s-.14-.22,1.87-2.84,4.84-2.58,5.56-1.08c0,0,3.73-1.94,4.54.74.48,1.58-1,3.75-1,3.75s3.46,1.1,2.11,5.37c0,0,1.86,0,.13,4.62-.73,2-5.9,12.38-5.9,12.38Z"/><path class="cls-5" d="M87.86,67.44h0a1.32,1.32,0,0,0,1.76.81L107,60.8l2.29-3.43L88.61,65.84A1.31,1.31,0,0,0,87.86,67.44Z"/><path class="cls-7" d="M113.8,60.38a9.75,9.75,0,0,1-1.35,2.94,5.78,5.78,0,0,1-2.15,2.44c-.09-.1.83-1.17,1.7-2.71A10.36,10.36,0,0,1,113.8,60.38Z"/><path class="cls-7" d="M104.7,64.37a18.39,18.39,0,0,1,2.2-3.73,18,18,0,0,1,2.63-3.44,17.83,17.83,0,0,1-2.2,3.73A18,18,0,0,1,104.7,64.37Z"/><path class="cls-7" d="M113.81,69.05c-.11-.1.24-.61.62-1.24s.65-1.18.79-1.14.07.71-.35,1.4S113.9,69.16,113.81,69.05Z"/><path class="cls-9" d="M71.32,96.63,49,120.16c-8.16-7.79-15.58-20.22-19.4-30.58a21.74,21.74,0,0,1-.73-11.74c.95-3.44,2-4.42,4.38-6.43,0,0,7.21-5.76,17.23,3.13C56.54,80,71.32,96.63,71.32,96.63Z"/><path class="cls-5" d="M71.32,96.63l-.25-.25-.72-.77-2.72-3c-2.37-2.57-5.79-6.3-10.11-10.81-2.17-2.24-4.54-4.72-7.26-7.17a23.52,23.52,0,0,0-4.62-3.19A14.21,14.21,0,0,0,40,69.85a10.77,10.77,0,0,0-6,1.34,11.19,11.19,0,0,0-4.25,4.73,15.27,15.27,0,0,0-.93,3.2,18.28,18.28,0,0,0-.23,3.4,22.75,22.75,0,0,0,1.17,6.85,91.93,91.93,0,0,0,8.68,17.26A74.66,74.66,0,0,0,49.13,120h-.32l16.26-17,4.59-4.74,1.22-1.25c.28-.29.44-.43.44-.43a5,5,0,0,1-.37.43l-1.16,1.26-4.47,4.79-16.19,17.2-.15.16-.16-.15A74.22,74.22,0,0,1,38,106.9a91.54,91.54,0,0,1-8.75-17.36,23.3,23.3,0,0,1-1.2-7A19.26,19.26,0,0,1,28.32,79a15.48,15.48,0,0,1,1-3.32,8.7,8.7,0,0,1,1.9-2.83c.4-.41.81-.77,1.23-1.13l.63-.53a5.8,5.8,0,0,1,.71-.47A11.26,11.26,0,0,1,40,69.37a14.6,14.6,0,0,1,5.85,1.7,24.3,24.3,0,0,1,4.7,3.28c2.73,2.48,5.08,5,7.24,7.24,4.29,4.55,7.66,8.31,10,10.93l2.65,3c.28.34.51.6.68.8A1.73,1.73,0,0,1,71.32,96.63Z"/></g></g></svg>