<svg xmlns="http://www.w3.org/2000/svg" viewBox="0 0 133.92 233.18"><defs><style>.cls-1{fill:#455a64;}.cls-2{fill:#ff725e;}.cls-3{opacity:0.3;}.cls-4{fill:#263238;}</style></defs><g id="Calque_2" data-name="Calque 2"><g id="Plant"><path class="cls-1" d="M113.78,5.42c-11.87,6.15-21,16.73-27.51,28.39S75.5,58.25,71.33,70.94l-3.66,65.48c13.81-23.49,24.89-51.11,27.89-78.19l-9.19-.82C92.53,56.47,97.7,52,101,46.71s5-11.4,6.64-17.41L96.42,31A41.58,41.58,0,0,0,113.78,5.42Z"/><path class="cls-2" d="M113.78,5.42c-11.87,6.15-21,16.73-27.51,28.39S75.5,58.25,71.33,70.94l-3.66,65.48c13.81-23.49,24.89-51.11,27.89-78.19l-9.19-.82C92.53,56.47,97.7,52,101,46.71s5-11.4,6.64-17.41L96.42,31A41.58,41.58,0,0,0,113.78,5.42Z"/><g class="cls-3"><path d="M113.78,5.42c-11.87,6.15-21,16.73-27.51,28.39S75.5,58.25,71.33,70.94l-3.66,65.48c13.81-23.49,24.89-51.11,27.89-78.19l-9.19-.82C92.53,56.47,97.7,52,101,46.71s5-11.4,6.64-17.41L96.42,31A41.58,41.58,0,0,0,113.78,5.42Z"/></g><path class="cls-2" d="M65.63,151.76S35.65,115.89,36,81.64H48.11S35,73,36,68.15,37.38,45,37.38,45l11.07,2.77S40.15,43.59,39.11,37,41.54,0,41.54,0,55,14.18,59.18,28.71,74.23,60.19,71,104.47,65.63,151.76,65.63,151.76Z"/><path class="cls-2" d="M80.82,155.15s32.48-21.63,39.69-49.24l-9.73-2.65s12.46-4.08,12.68-8.2,4-18.94,4-18.94l-9.5-.19s7.58-1.52,9.85-6.58,6.15-30.29,6.15-30.29S120,47.51,113.46,58.28s-19,22-26.1,58.32S80.82,155.15,80.82,155.15Z"/><path class="cls-4" d="M49.72,31.28a1.62,1.62,0,0,1,.11.37c.06.28.15.64.26,1.11.22,1,.54,2.43.95,4.25s.89,4.12,1.41,6.76,1.16,5.64,1.76,9c1.29,6.65,2.64,14.6,4,23.45s2.7,18.61,3.9,28.88,2.09,20.08,2.79,29,1.16,17,1.43,23.75c.17,3.38.25,6.45.34,9.14s.14,5,.16,6.9,0,3.33,0,4.36v1.13a2.29,2.29,0,0,1,0,.39,2.33,2.33,0,0,1,0-.39c0-.28,0-.65,0-1.13,0-1-.08-2.49-.15-4.36s-.12-4.21-.24-6.89-.22-5.75-.41-9.13c-.32-6.76-.86-14.81-1.54-23.73s-1.66-18.73-2.84-29-2.53-20-3.85-28.87-2.68-16.8-3.92-23.45c-.58-3.34-1.18-6.34-1.68-9s-1-4.92-1.33-6.77-.65-3.27-.85-4.28l-.21-1.12A1.83,1.83,0,0,1,49.72,31.28Z"/><path class="cls-2" d="M61.47,173.73S34,142.61,25.52,123.8L32,121.05c-4.66.77-9.43-1.23-13-4.28s-6.27-7-8.87-11l8.47-1.43A31.47,31.47,0,0,1,0,90c10,1.65,19,7.14,26.49,14,6,5.56,11.14,12,16.05,18.6a63,63,0,0,1,6.23,10.25C53.38,142.39,61.49,162.3,61.47,173.73Z"/><path class="cls-4" d="M120.94,57.17a1,1,0,0,1-.13.32q-.15.34-.42.9l-1.67,3.46c-1.48,3-3.56,7.33-6.08,12.72s-5.44,11.85-8.57,19.08-6.41,15.23-9.69,23.7S88.17,134,85.6,141.41s-4.74,14.19-6.49,19.88S76,171.6,75,174.8L74,178.48c-.12.39-.22.71-.29,1a1.72,1.72,0,0,1-.12.32,1.45,1.45,0,0,1,.06-.34c.07-.24.15-.56.25-1,.23-.88.57-2.12,1-3.71.86-3.22,2.19-7.85,3.9-13.56s3.87-12.46,6.4-19.92,5.47-15.61,8.74-24.1,6.61-16.47,9.74-23.7,6.1-13.67,8.67-19,4.71-9.7,6.24-12.66l1.76-3.4c.19-.37.35-.66.47-.88A1.52,1.52,0,0,1,120.94,57.17Z"/><path class="cls-4" d="M63.8,187.07a2.64,2.64,0,0,1-.13-.57c-.07-.44-.16-1-.26-1.66s-.24-1.59-.43-2.61-.36-2.17-.64-3.44c-.49-2.55-1.19-5.56-2.09-8.87s-2.06-6.89-3.45-10.6-2.93-7.15-4.42-10.24-3-5.8-4.29-8c-.63-1.13-1.26-2.12-1.8-3s-1-1.64-1.4-2.24l-.9-1.42a2.85,2.85,0,0,1-.28-.51s.14.14.37.45l1,1.36c.42.6.93,1.33,1.48,2.2s1.21,1.85,1.87,3c1.36,2.22,2.86,4.94,4.4,8s3.06,6.55,4.48,10.27,2.52,7.34,3.42,10.66,1.55,6.36,2,8.92c.25,1.28.4,2.45.56,3.47s.26,1.9.34,2.63.12,1.23.16,1.66A2.91,2.91,0,0,1,63.8,187.07Z"/><rect class="cls-4" x="39.96" y="179.75" width="60.03" height="12.25"/><polygon class="cls-4" points="45.68 191.99 52.17 233.18 88.45 233.18 94.5 191.99 45.68 191.99"/><path class="cls-1" d="M96.31,192c0,.15-11.36.26-25.36.26s-25.37-.11-25.37-.26,11.35-.26,25.37-.26S96.31,191.85,96.31,192Z"/></g></g></svg>