<svg xmlns="http://www.w3.org/2000/svg" viewBox="0 0 273.23 336.83"><defs><style>.cls-1{fill:#fff;}.cls-2{fill:#f5f5f5;}.cls-3{fill:#e0e0e0;}.cls-4{fill:#263238;}.cls-5{fill:#ff725e;}.cls-6{fill:#455a64;}</style></defs><g id="Calque_2" data-name="Calque 2"><g id="Resume"><rect class="cls-1" x="0.34" y="16.34" width="272.73" height="320.17"/><rect class="cls-2" x="235.86" y="16.4" width="37.13" height="34.94"/><rect class="cls-1" x="249.82" y="27.79" width="2.94" height="2.95"/><rect class="cls-1" x="253.91" y="27.79" width="2.94" height="2.95"/><rect class="cls-1" x="257.99" y="27.79" width="2.94" height="2.95"/><rect class="cls-1" x="249.82" y="32.18" width="2.94" height="2.95"/><rect class="cls-1" x="253.91" y="32.18" width="2.94" height="2.95"/><rect class="cls-1" x="257.99" y="32.18" width="2.94" height="2.95"/><rect class="cls-1" x="249.82" y="36.58" width="2.94" height="2.95"/><rect class="cls-1" x="253.91" y="36.58" width="2.94" height="2.95"/><rect class="cls-1" x="257.99" y="36.58" width="2.94" height="2.95"/><rect class="cls-3" x="0.26" y="0.22" width="272.73" height="16.18"/><path class="cls-1" d="M10.37,8.31A2.67,2.67,0,1,1,7.71,5.63,2.67,2.67,0,0,1,10.37,8.31Z"/><path class="cls-1" d="M18,8.31a2.67,2.67,0,1,1-2.67-2.68A2.67,2.67,0,0,1,18,8.31Z"/><path class="cls-1" d="M25.59,8.31a2.67,2.67,0,1,1-2.67-2.68A2.68,2.68,0,0,1,25.59,8.31Z"/><path class="cls-4" d="M32.36,46v9.29H30.22V51.45H26v3.81H23.87V46H26v3.67h4.21V46Z"/><path class="cls-4" d="M41.35,52.28H36a1.9,1.9,0,0,0,2,1.43A2.37,2.37,0,0,0,39.78,53l1.1,1.2A3.73,3.73,0,0,1,38,55.37c-2.46,0-4.07-1.55-4.07-3.68A3.63,3.63,0,0,1,37.68,48a3.53,3.53,0,0,1,3.71,3.7C41.39,51.88,41.36,52.11,41.35,52.28Zm-5.41-1.21h3.5a1.77,1.77,0,0,0-3.5,0Z"/><path class="cls-4" d="M42.76,45.41h2.07v9.85H42.76Z"/><path class="cls-4" d="M46.75,45.41h2.06v9.85H46.75Z"/><path class="cls-4" d="M50.2,51.69a3.92,3.92,0,1,1,3.92,3.68A3.66,3.66,0,0,1,50.2,51.69Zm5.73,0a1.83,1.83,0,1,0-1.81,2A1.79,1.79,0,0,0,55.93,51.69Z"/><path class="cls-4" d="M59.09,54.16a1.27,1.27,0,0,1,2.54,0,1.27,1.27,0,0,1-2.54,0Zm0-8.19h2.46L61.18,52H59.54Z"/><path class="cls-4" d="M70.16,65.42c0,.14-10.44.26-23.32.26s-23.32-.12-23.32-.26,10.44-.26,23.32-.26S70.16,65.27,70.16,65.42Z"/><path class="cls-4" d="M111.7,73.3c0,.14-19.74.26-44.09.26s-44.09-.12-44.09-.26S43.26,73,67.61,73,111.7,73.15,111.7,73.3Z"/><path class="cls-3" d="M126.43,82.11c0,.14-22.94.26-51.23.26S24,82.25,24,82.11s22.93-.26,51.23-.26S126.43,82,126.43,82.11Z"/><path class="cls-3" d="M126.43,88c0,.14-22.94.26-51.23.26S24,88.16,24,88s22.93-.26,51.23-.26S126.43,87.87,126.43,88Z"/><path class="cls-5" d="M80.86,110.91h0a7.1,7.1,0,0,1-7.09-7.11h0a7.09,7.09,0,0,1,7.09-7.1h0A7.1,7.1,0,0,1,88,103.8h0A7.1,7.1,0,0,1,80.86,110.91Z"/><rect class="cls-1" x="77.64" y="102.22" width="1.47" height="4.75"/><path class="cls-1" d="M78.37,101.6a.88.88,0,1,0-.87-.88A.88.88,0,0,0,78.37,101.6Z"/><path class="cls-1" d="M81.46,104.48c0-.67.3-1.07.89-1.07s.8.38.8,1.07V107h1.46v-3a1.66,1.66,0,0,0-1.73-1.89,1.64,1.64,0,0,0-1.42.79v-.64H80.05V107h1.41Z"/><path class="cls-5" d="M47.18,111h0A7.16,7.16,0,0,1,40,103.8h0a7.16,7.16,0,0,1,7.15-7.16h0a7.15,7.15,0,0,1,7.14,7.16h0A7.15,7.15,0,0,1,47.18,111Z"/><path class="cls-1" d="M48.79,103.62H45.9v.83h2A1.9,1.9,0,0,1,46,106.07a2.27,2.27,0,1,1,1.54-3.93l.64-.55a3.07,3.07,0,0,0-2.18-.9,3.12,3.12,0,0,0,0,6.23,2.82,2.82,0,0,0,2.83-3Z"/><polygon class="cls-1" points="52.94 103.65 51.75 103.65 51.75 102.46 50.99 102.46 50.99 103.65 49.79 103.65 49.79 104.41 50.99 104.41 50.99 105.61 51.75 105.61 51.75 104.41 52.94 104.41 52.94 103.65"/><path class="cls-5" d="M64.26,110.87h0a7.05,7.05,0,0,1-7-7.06h0a7.05,7.05,0,0,1,7-7.06h0a7,7,0,0,1,7,7.06h0A7,7,0,0,1,64.26,110.87Z"/><path class="cls-1" d="M64.26,100.64c1,0,1.16,0,1.56,0a2.35,2.35,0,0,1,.72.13,1.29,1.29,0,0,1,.73.74,2.07,2.07,0,0,1,.13.72c0,.41,0,.53,0,1.56s0,1.16,0,1.57a2,2,0,0,1-.13.71,1.29,1.29,0,0,1-.73.74,2.35,2.35,0,0,1-.72.13c-.4,0-.53,0-1.56,0s-1.15,0-1.56,0a2.27,2.27,0,0,1-.71-.13,1.27,1.27,0,0,1-.74-.74,2.27,2.27,0,0,1-.13-.71c0-.41,0-.54,0-1.57s0-1.15,0-1.56a2.35,2.35,0,0,1,.13-.72,1.27,1.27,0,0,1,.74-.74,2.27,2.27,0,0,1,.71-.13c.41,0,.53,0,1.56,0m0-.7c-1.05,0-1.18,0-1.59,0a2.94,2.94,0,0,0-.93.18,2,2,0,0,0-.69.45,2,2,0,0,0-.44.69,2.69,2.69,0,0,0-.18.94c0,.41,0,.54,0,1.59s0,1.18,0,1.6a2.8,2.8,0,0,0,.18.94,1.94,1.94,0,0,0,.44.68,1.87,1.87,0,0,0,.69.45,2.94,2.94,0,0,0,.93.18c.41,0,.54,0,1.59,0s1.18,0,1.59,0a3,3,0,0,0,.94-.18,2,2,0,0,0,1.13-1.13,3.07,3.07,0,0,0,.18-.94c0-.42,0-.55,0-1.6s0-1.18,0-1.59a3,3,0,0,0-.18-.94,1.87,1.87,0,0,0-.45-.69,2,2,0,0,0-.68-.45,3,3,0,0,0-.94-.18c-.41,0-.54,0-1.59,0"/><path class="cls-1" d="M64.26,101.82a2,2,0,1,0,2,2,2,2,0,0,0-2-2m0,3.28a1.29,1.29,0,1,1,1.29-1.29,1.28,1.28,0,0,1-1.29,1.29"/><path class="cls-1" d="M66.79,101.75a.47.47,0,1,1-.47-.47.47.47,0,0,1,.47.47"/><path class="cls-5" d="M30.33,111h0a7.09,7.09,0,0,1-7.08-7.1h0a7.09,7.09,0,0,1,7.08-7.11h0a7.1,7.1,0,0,1,7.09,7.11h0A7.1,7.1,0,0,1,30.33,111Z"/><path class="cls-1" d="M29.25,108.15H31v-4.33h1.2l.13-1.45H31v-.82c0-.35.06-.48.39-.48h.94V99.56h-1.2c-1.28,0-1.86.57-1.86,1.66v1.15h-.89v1.47h.89Z"/><path class="cls-4" d="M98.93,120.57c0,.14-17.92.26-40,.26s-40-.12-40-.26,17.93-.26,40-.26S98.93,120.43,98.93,120.57Z"/><rect class="cls-2" x="16.45" y="146.76" width="244.43" height="189.28"/><path class="cls-5" d="M93.64,169.26c0,.15-7.44.26-16.6.26s-16.61-.11-16.61-.26S67.86,169,77,169,93.64,169.12,93.64,169.26Z"/><path class="cls-5" d="M212.7,169.26c0,.15-7.43.26-16.6.26s-16.6-.11-16.6-.26,7.43-.26,16.6-.26S212.7,169.12,212.7,169.26Z"/><path class="cls-5" d="M212.7,207.54c0,.14-7.43.26-16.6.26s-16.6-.12-16.6-.26,7.43-.26,16.6-.26S212.7,207.39,212.7,207.54Z"/><path class="cls-6" d="M105,181.53c0,.15-9.66.26-21.57.26s-21.56-.11-21.56-.26,9.65-.26,21.56-.26S105,181.39,105,181.53Z"/><path class="cls-4" d="M103.62,204.17c0,.14-9.66.26-21.57.26s-21.56-.12-21.56-.26,9.65-.26,21.56-.26S103.62,204,103.62,204.17Z"/><path class="cls-4" d="M58.6,181.53a1,1,0,1,1-1-1A1,1,0,0,1,58.6,181.53Z"/><path class="cls-4" d="M58.6,204.17a1,1,0,0,1-2,0,1,1,0,1,1,2,0Z"/><path class="cls-4" d="M58.55,223.31a1,1,0,1,1-1-1A1,1,0,0,1,58.55,223.31Z"/><path class="cls-4" d="M57.55,201.44a74.81,74.81,0,0,1-.26-8.75,74.92,74.92,0,0,1,.26-8.76,71.05,71.05,0,0,1,.27,8.76A71,71,0,0,1,57.55,201.44Z"/><path class="cls-4" d="M57.55,219.66a36.05,36.05,0,0,1-.26-6.06,36,36,0,0,1,.26-6.06,34.11,34.11,0,0,1,.27,6.06A34.2,34.2,0,0,1,57.55,219.66Z"/><path class="cls-6" d="M79.65,185.2a69.11,69.11,0,0,1-8.56.26,69.24,69.24,0,0,1-8.56-.26,71.68,71.68,0,0,1,8.56-.26A71.54,71.54,0,0,1,79.65,185.2Z"/><path class="cls-3" d="M104.6,192.19c0,.15-9.34.26-20.85.26s-20.85-.11-20.85-.26,9.33-.26,20.85-.26S104.6,192.05,104.6,192.19Z"/><path class="cls-3" d="M92.93,198c0,.15-6.72.26-15,.26s-15-.11-15-.26,6.72-.26,15-.26S92.93,197.87,92.93,198Z"/><path class="cls-3" d="M104.23,195c0,.15-9.33.26-20.85.26s-20.85-.11-20.85-.26,9.34-.26,20.85-.26S104.23,194.87,104.23,195Z"/><path class="cls-3" d="M104.6,210.47c0,.15-9.34.26-20.85.26s-20.85-.11-20.85-.26,9.33-.26,20.85-.26S104.6,210.33,104.6,210.47Z"/><path class="cls-3" d="M92.93,216.29c0,.15-6.72.26-15,.26s-15-.11-15-.26,6.72-.26,15-.26S92.93,216.15,92.93,216.29Z"/><path class="cls-3" d="M104.23,213.29c0,.15-9.33.26-20.85.26s-20.85-.11-20.85-.26,9.34-.26,20.85-.26S104.23,213.15,104.23,213.29Z"/><path class="cls-4" d="M103.62,223.5c0,.14-9.66.26-21.57.26s-21.56-.12-21.56-.26,9.65-.26,21.56-.26S103.62,223.35,103.62,223.5Z"/><path class="cls-3" d="M104.6,229.8c0,.15-9.34.26-20.85.26S62.9,230,62.9,229.8s9.33-.26,20.85-.26S104.6,229.66,104.6,229.8Z"/><path class="cls-3" d="M92.93,235.62c0,.15-6.72.26-15,.26s-15-.11-15-.26,6.72-.26,15-.26S92.93,235.48,92.93,235.62Z"/><path class="cls-3" d="M104.23,232.62c0,.15-9.33.26-20.85.26s-20.85-.11-20.85-.26,9.34-.26,20.85-.26S104.23,232.48,104.23,232.62Z"/><path class="cls-5" d="M93.64,248.62c0,.15-7.44.26-16.6.26s-16.61-.11-16.61-.26,7.43-.26,16.61-.26S93.64,248.48,93.64,248.62Z"/><path class="cls-6" d="M105,260.9c0,.14-9.66.26-21.57.26s-21.56-.12-21.56-.26,9.65-.26,21.56-.26S105,260.75,105,260.9Z"/><path class="cls-4" d="M103.62,283.53c0,.14-9.66.26-21.57.26s-21.56-.12-21.56-.26,9.65-.26,21.56-.26S103.62,283.38,103.62,283.53Z"/><circle class="cls-4" cx="57.61" cy="260.9" r="0.99"/><path class="cls-4" d="M58.6,283.53a1,1,0,1,1-1-1A1,1,0,0,1,58.6,283.53Z"/><path class="cls-4" d="M58.55,302.67a1,1,0,1,1-1-1A1,1,0,0,1,58.55,302.67Z"/><path class="cls-4" d="M57.55,280.81a74.92,74.92,0,0,1-.26-8.76,74.92,74.92,0,0,1,.26-8.76,71.05,71.05,0,0,1,.27,8.76A71.05,71.05,0,0,1,57.55,280.81Z"/><path class="cls-4" d="M57.55,299a36,36,0,0,1-.26-6.06,36,36,0,0,1,.26-6.06,34.11,34.11,0,0,1,.27,6.06A34.11,34.11,0,0,1,57.55,299Z"/><path class="cls-6" d="M79.65,264.56a69.11,69.11,0,0,1-8.56.26,69.24,69.24,0,0,1-8.56-.26,71.68,71.68,0,0,1,8.56-.26A71.54,71.54,0,0,1,79.65,264.56Z"/><path class="cls-3" d="M104.6,271.55c0,.15-9.34.26-20.85.26s-20.85-.11-20.85-.26,9.33-.26,20.85-.26S104.6,271.41,104.6,271.55Z"/><path class="cls-3" d="M92.93,277.37c0,.15-6.72.26-15,.26s-15-.11-15-.26,6.72-.26,15-.26S92.93,277.23,92.93,277.37Z"/><path class="cls-3" d="M104.23,274.37c0,.15-9.33.26-20.85.26s-20.85-.11-20.85-.26,9.34-.26,20.85-.26S104.23,274.23,104.23,274.37Z"/><path class="cls-3" d="M104.6,289.83c0,.15-9.34.26-20.85.26S62.9,290,62.9,289.83s9.33-.26,20.85-.26S104.6,289.69,104.6,289.83Z"/><path class="cls-3" d="M92.93,295.65c0,.15-6.72.26-15,.26s-15-.11-15-.26,6.72-.26,15-.26S92.93,295.51,92.93,295.65Z"/><path class="cls-3" d="M104.23,292.65c0,.15-9.33.26-20.85.26s-20.85-.11-20.85-.26,9.34-.26,20.85-.26S104.23,292.51,104.23,292.65Z"/><path class="cls-4" d="M103.62,302.86c0,.14-9.66.26-21.57.26s-21.56-.12-21.56-.26,9.65-.26,21.56-.26S103.62,302.71,103.62,302.86Z"/><path class="cls-3" d="M104.6,309.16c0,.15-9.34.26-20.85.26s-20.85-.11-20.85-.26,9.33-.26,20.85-.26S104.6,309,104.6,309.16Z"/><path class="cls-3" d="M92.93,315c0,.15-6.72.26-15,.26s-15-.11-15-.26,6.72-.26,15-.26S92.93,314.84,92.93,315Z"/><path class="cls-3" d="M104.23,312c0,.15-9.33.26-20.85.26s-20.85-.11-20.85-.26,9.34-.26,20.85-.26S104.23,311.84,104.23,312Z"/><path class="cls-6" d="M141.42,335.58c-.14,0-.26-42-.26-93.81s.12-93.82.26-93.82.26,42,.26,93.82S141.56,335.58,141.42,335.58Z"/><path class="cls-6" d="M235.86,180.44c0,.15-13.14.27-29.34.27s-29.35-.12-29.35-.27,13.13-.26,29.35-.26S235.86,180.3,235.86,180.44Z"/><path class="cls-6" d="M236.64,185.2c0,.15-13,.26-29.12.26s-29.14-.11-29.14-.26,13-.26,29.14-.26S236.64,185.06,236.64,185.2Z"/><path class="cls-5" d="M212.7,280.9c0,.14-7.43.26-16.6.26s-16.6-.12-16.6-.26,7.43-.26,16.6-.26S212.7,280.75,212.7,280.9Z"/><path class="cls-6" d="M235.86,292.08c0,.14-13.14.26-29.34.26s-29.35-.12-29.35-.26,13.13-.26,29.35-.26S235.86,291.93,235.86,292.08Z"/><path class="cls-6" d="M236.64,296.84c0,.14-13.31.26-29.73.26s-29.74-.12-29.74-.26,13.31-.27,29.74-.27S236.64,296.69,236.64,296.84Z"/><path class="cls-3" d="M231.11,223.4H180.63a2.25,2.25,0,0,1-2.25-2.25h0a2.25,2.25,0,0,1,2.25-2.25h50.48a2.25,2.25,0,0,1,2.25,2.25h0A2.25,2.25,0,0,1,231.11,223.4Z"/><path class="cls-5" d="M207.79,223.4H180.63a2.25,2.25,0,0,1-2.25-2.25h0a2.25,2.25,0,0,1,2.25-2.25h27.16a2.24,2.24,0,0,1,2.24,2.25h0A2.24,2.24,0,0,1,207.79,223.4Z"/><path class="cls-3" d="M231.11,233.4H180.63a2.25,2.25,0,0,1-2.25-2.25h0a2.24,2.24,0,0,1,2.25-2.24h50.48a2.24,2.24,0,0,1,2.25,2.24h0A2.25,2.25,0,0,1,231.11,233.4Z"/><path class="cls-5" d="M199,233.4H180.63a2.25,2.25,0,0,1-2.25-2.25h0a2.24,2.24,0,0,1,2.25-2.24H199a2.24,2.24,0,0,1,2.25,2.24h0A2.25,2.25,0,0,1,199,233.4Z"/><path class="cls-3" d="M231.11,243.4H180.63a2.25,2.25,0,0,1-2.25-2.25h0a2.24,2.24,0,0,1,2.25-2.24h50.48a2.24,2.24,0,0,1,2.25,2.24h0A2.25,2.25,0,0,1,231.11,243.4Z"/><path class="cls-5" d="M223.8,243.4H180.63a2.25,2.25,0,0,1-2.25-2.25h0a2.24,2.24,0,0,1,2.25-2.24H223.8a2.24,2.24,0,0,1,2.24,2.24h0A2.24,2.24,0,0,1,223.8,243.4Z"/><path class="cls-3" d="M231.11,253.4H180.63a2.25,2.25,0,0,1-2.25-2.25h0a2.24,2.24,0,0,1,2.25-2.24h50.48a2.24,2.24,0,0,1,2.25,2.24h0A2.25,2.25,0,0,1,231.11,253.4Z"/><path class="cls-5" d="M217.67,253.4h-37a2.25,2.25,0,0,1-2.25-2.25h0a2.24,2.24,0,0,1,2.25-2.24h37a2.24,2.24,0,0,1,2.25,2.24h0A2.25,2.25,0,0,1,217.67,253.4Z"/><path class="cls-6" d="M173.47,222.11a22.22,22.22,0,0,1-4.75.26,22.28,22.28,0,0,1-4.76-.26,22.28,22.28,0,0,1,4.76-.26A22.22,22.22,0,0,1,173.47,222.11Z"/><path class="cls-6" d="M173.47,231.15a21.47,21.47,0,0,1-4.75.26,21.53,21.53,0,0,1-4.76-.26,22.28,22.28,0,0,1,4.76-.26A22.22,22.22,0,0,1,173.47,231.15Z"/><path class="cls-6" d="M173.47,240.19a21.47,21.47,0,0,1-4.75.26,21.53,21.53,0,0,1-4.76-.26,22.28,22.28,0,0,1,4.76-.26A22.22,22.22,0,0,1,173.47,240.19Z"/><path class="cls-6" d="M173.47,249.24a22.22,22.22,0,0,1-4.75.26,22.28,22.28,0,0,1-4.76-.26,21.53,21.53,0,0,1,4.76-.26A21.47,21.47,0,0,1,173.47,249.24Z"/><polygon class="cls-5" points="36.52 163.92 44.93 160.23 52.56 163.92 44.76 167.93 36.52 163.92"/><polygon class="cls-5" points="38.28 165.93 38.16 170.96 50.62 170.96 50.62 166.1 44.61 169.05 38.28 165.93"/><rect class="cls-5" x="158.14" y="163.52" width="12.45" height="7.91"/><rect class="cls-5" x="161.87" y="171.43" width="5" height="2.48"/><path class="cls-5" d="M169.64,173.82a29.31,29.31,0,0,1-5.56.26,29.31,29.31,0,0,1-5.56-.26,30.34,30.34,0,0,1,5.56-.26A30.34,30.34,0,0,1,169.64,173.82Z"/><rect class="cls-5" x="33.56" y="243.43" width="12.45" height="7.91"/><rect class="cls-5" x="37.28" y="251.34" width="5" height="2.48"/><path class="cls-5" d="M45.05,253.73a30.34,30.34,0,0,1-5.56.26,30.34,30.34,0,0,1-5.56-.26,30.34,30.34,0,0,1,5.56-.26A30.34,30.34,0,0,1,45.05,253.73Z"/><path class="cls-5" d="M169.9,210l-1.13-2a5.41,5.41,0,1,0-1.29,1.43h0Z"/><path class="cls-5" d="M166.87,278a3,3,0,0,0,1.83-2.84,2.89,2.89,0,1,0-5.76,0,3.08,3.08,0,0,0,1.84,2.87c-4.44.67-4.23,5.49-4.23,5.49l10.48,0S171.27,278.66,166.87,278Z"/><path class="cls-4" d="M273,.22c0,2,.1,136.33.24,336.35v.23H273l-272.7,0H0v-.26C0,212.12,0,96.4,0,.22V0H.26L273,.22.26.43.48.22c0,96.18,0,211.9,0,336.35l-.26-.26h0l272.7,0-.23.23C272.9,136.55,273,2.25,273,.22Z"/></g></g></svg>